G04 MADE WITH FRITZING*
G04 WWW.FRITZING.ORG*
G04 DOUBLE SIDED*
G04 HOLES PLATED*
G04 CONTOUR ON CENTER OF CONTOUR VECTOR*
%ASAXBY*%
%FSLAX23Y23*%
%MOIN*%
%OFA0B0*%
%SFA1.0B1.0*%
%ADD10R,3.333330X2.222220X3.317330X2.206220*%
%ADD11C,0.008000*%
%ADD12C,0.005000*%
%ADD13R,0.001000X0.001000*%
%LNSILK1*%
G90*
G70*
G54D11*
X4Y2218D02*
X3329Y2218D01*
X3329Y4D01*
X4Y4D01*
X4Y2218D01*
D02*
G54D12*
X1258Y1662D02*
X1038Y1662D01*
D02*
X1258Y1262D02*
X1038Y1262D01*
D02*
X1258Y1262D02*
X1258Y1662D01*
D02*
X1038Y1262D02*
X1038Y1312D01*
D02*
X1038Y1312D02*
X1038Y1612D01*
D02*
X1038Y1612D02*
X1038Y1662D01*
D02*
X1038Y1612D02*
X1088Y1612D01*
D02*
X1088Y1612D02*
X1088Y1312D01*
D02*
X1088Y1312D02*
X1038Y1312D01*
D02*
X2993Y297D02*
X2993Y517D01*
D02*
X2593Y297D02*
X2593Y517D01*
D02*
X2593Y297D02*
X2993Y297D01*
D02*
X2593Y517D02*
X2643Y517D01*
D02*
X2643Y517D02*
X2943Y517D01*
D02*
X2943Y517D02*
X2993Y517D01*
D02*
X2943Y517D02*
X2943Y467D01*
D02*
X2943Y467D02*
X2643Y467D01*
D02*
X2643Y467D02*
X2643Y517D01*
G54D13*
X123Y2189D02*
X3249Y2189D01*
X114Y2188D02*
X3258Y2188D01*
X108Y2187D02*
X3264Y2187D01*
X104Y2186D02*
X3268Y2186D01*
X100Y2185D02*
X3272Y2185D01*
X96Y2184D02*
X3276Y2184D01*
X93Y2183D02*
X3279Y2183D01*
X90Y2182D02*
X3282Y2182D01*
X87Y2181D02*
X3284Y2181D01*
X85Y2180D02*
X3287Y2180D01*
X83Y2179D02*
X3289Y2179D01*
X80Y2178D02*
X116Y2178D01*
X3256Y2178D02*
X3292Y2178D01*
X78Y2177D02*
X110Y2177D01*
X3262Y2177D02*
X3294Y2177D01*
X76Y2176D02*
X105Y2176D01*
X3267Y2176D02*
X3296Y2176D01*
X74Y2175D02*
X101Y2175D01*
X3271Y2175D02*
X3298Y2175D01*
X72Y2174D02*
X97Y2174D01*
X3275Y2174D02*
X3300Y2174D01*
X71Y2173D02*
X94Y2173D01*
X3278Y2173D02*
X3301Y2173D01*
X69Y2172D02*
X92Y2172D01*
X3280Y2172D02*
X3303Y2172D01*
X67Y2171D02*
X89Y2171D01*
X3283Y2171D02*
X3305Y2171D01*
X66Y2170D02*
X87Y2170D01*
X3285Y2170D02*
X3306Y2170D01*
X64Y2169D02*
X84Y2169D01*
X3288Y2169D02*
X3308Y2169D01*
X63Y2168D02*
X82Y2168D01*
X3290Y2168D02*
X3309Y2168D01*
X61Y2167D02*
X80Y2167D01*
X3292Y2167D02*
X3311Y2167D01*
X60Y2166D02*
X78Y2166D01*
X3294Y2166D02*
X3312Y2166D01*
X58Y2165D02*
X76Y2165D01*
X3296Y2165D02*
X3314Y2165D01*
X57Y2164D02*
X75Y2164D01*
X3297Y2164D02*
X3315Y2164D01*
X56Y2163D02*
X73Y2163D01*
X3299Y2163D02*
X3316Y2163D01*
X54Y2162D02*
X71Y2162D01*
X3301Y2162D02*
X3318Y2162D01*
X53Y2161D02*
X70Y2161D01*
X3302Y2161D02*
X3319Y2161D01*
X52Y2160D02*
X68Y2160D01*
X3304Y2160D02*
X3320Y2160D01*
X51Y2159D02*
X67Y2159D01*
X3305Y2159D02*
X3321Y2159D01*
X50Y2158D02*
X65Y2158D01*
X3307Y2158D02*
X3322Y2158D01*
X49Y2157D02*
X64Y2157D01*
X3308Y2157D02*
X3323Y2157D01*
X47Y2156D02*
X63Y2156D01*
X3309Y2156D02*
X3325Y2156D01*
X46Y2155D02*
X61Y2155D01*
X3311Y2155D02*
X3326Y2155D01*
X45Y2154D02*
X60Y2154D01*
X3312Y2154D02*
X3327Y2154D01*
X44Y2153D02*
X59Y2153D01*
X3313Y2153D02*
X3328Y2153D01*
X43Y2152D02*
X58Y2152D01*
X3314Y2152D02*
X3329Y2152D01*
X42Y2151D02*
X57Y2151D01*
X3315Y2151D02*
X3330Y2151D01*
X41Y2150D02*
X55Y2150D01*
X3317Y2150D02*
X3331Y2150D01*
X41Y2149D02*
X54Y2149D01*
X3318Y2149D02*
X3331Y2149D01*
X40Y2148D02*
X53Y2148D01*
X3319Y2148D02*
X3332Y2148D01*
X39Y2147D02*
X52Y2147D01*
X3320Y2147D02*
X3333Y2147D01*
X38Y2146D02*
X51Y2146D01*
X37Y2145D02*
X50Y2145D01*
X36Y2144D02*
X49Y2144D01*
X35Y2143D02*
X48Y2143D01*
X35Y2142D02*
X47Y2142D01*
X34Y2141D02*
X46Y2141D01*
X33Y2140D02*
X46Y2140D01*
X32Y2139D02*
X45Y2139D01*
X32Y2138D02*
X44Y2138D01*
X31Y2137D02*
X43Y2137D01*
X30Y2136D02*
X42Y2136D01*
X30Y2135D02*
X41Y2135D01*
X29Y2134D02*
X41Y2134D01*
X28Y2133D02*
X40Y2133D01*
X28Y2132D02*
X39Y2132D01*
X27Y2131D02*
X38Y2131D01*
X26Y2130D02*
X38Y2130D01*
X26Y2129D02*
X37Y2129D01*
X25Y2128D02*
X36Y2128D01*
X25Y2127D02*
X36Y2127D01*
X24Y2126D02*
X35Y2126D01*
X23Y2125D02*
X34Y2125D01*
X23Y2124D02*
X34Y2124D01*
X22Y2123D02*
X33Y2123D01*
X22Y2122D02*
X33Y2122D01*
X21Y2121D02*
X32Y2121D01*
X21Y2120D02*
X31Y2120D01*
X20Y2119D02*
X31Y2119D01*
X20Y2118D02*
X30Y2118D01*
X19Y2117D02*
X30Y2117D01*
X19Y2116D02*
X29Y2116D01*
X19Y2115D02*
X29Y2115D01*
X18Y2114D02*
X28Y2114D01*
X18Y2113D02*
X28Y2113D01*
X17Y2112D02*
X27Y2112D01*
X17Y2111D02*
X27Y2111D01*
X17Y2110D02*
X27Y2110D01*
X16Y2109D02*
X26Y2109D01*
X16Y2108D02*
X26Y2108D01*
X15Y2107D02*
X25Y2107D01*
X15Y2106D02*
X25Y2106D01*
X15Y2105D02*
X25Y2105D01*
X143Y2105D02*
X158Y2105D01*
X2426Y2105D02*
X2441Y2105D01*
X14Y2104D02*
X24Y2104D01*
X138Y2104D02*
X164Y2104D01*
X2421Y2104D02*
X2447Y2104D01*
X14Y2103D02*
X24Y2103D01*
X134Y2103D02*
X167Y2103D01*
X2417Y2103D02*
X2451Y2103D01*
X14Y2102D02*
X23Y2102D01*
X131Y2102D02*
X170Y2102D01*
X2414Y2102D02*
X2453Y2102D01*
X13Y2101D02*
X23Y2101D01*
X128Y2101D02*
X173Y2101D01*
X2412Y2101D02*
X2456Y2101D01*
X13Y2100D02*
X23Y2100D01*
X126Y2100D02*
X175Y2100D01*
X2410Y2100D02*
X2458Y2100D01*
X13Y2099D02*
X23Y2099D01*
X124Y2099D02*
X177Y2099D01*
X2407Y2099D02*
X2460Y2099D01*
X13Y2098D02*
X22Y2098D01*
X122Y2098D02*
X179Y2098D01*
X2406Y2098D02*
X2462Y2098D01*
X12Y2097D02*
X22Y2097D01*
X121Y2097D02*
X181Y2097D01*
X2404Y2097D02*
X2464Y2097D01*
X12Y2096D02*
X22Y2096D01*
X119Y2096D02*
X182Y2096D01*
X2402Y2096D02*
X2466Y2096D01*
X12Y2095D02*
X21Y2095D01*
X117Y2095D02*
X146Y2095D01*
X156Y2095D02*
X184Y2095D01*
X2401Y2095D02*
X2429Y2095D01*
X2439Y2095D02*
X2467Y2095D01*
X12Y2094D02*
X21Y2094D01*
X116Y2094D02*
X139Y2094D01*
X162Y2094D02*
X185Y2094D01*
X2399Y2094D02*
X2422Y2094D01*
X2445Y2094D02*
X2469Y2094D01*
X11Y2093D02*
X21Y2093D01*
X115Y2093D02*
X135Y2093D01*
X166Y2093D02*
X187Y2093D01*
X2398Y2093D02*
X2419Y2093D01*
X2449Y2093D02*
X2470Y2093D01*
X11Y2092D02*
X21Y2092D01*
X113Y2092D02*
X133Y2092D01*
X169Y2092D02*
X188Y2092D01*
X2397Y2092D02*
X2416Y2092D01*
X2452Y2092D02*
X2471Y2092D01*
X11Y2091D02*
X20Y2091D01*
X112Y2091D02*
X130Y2091D01*
X171Y2091D02*
X189Y2091D01*
X2396Y2091D02*
X2413Y2091D01*
X2454Y2091D02*
X2472Y2091D01*
X11Y2090D02*
X20Y2090D01*
X111Y2090D02*
X128Y2090D01*
X173Y2090D02*
X190Y2090D01*
X2394Y2090D02*
X2411Y2090D01*
X2457Y2090D02*
X2474Y2090D01*
X10Y2089D02*
X20Y2089D01*
X110Y2089D02*
X126Y2089D01*
X175Y2089D02*
X191Y2089D01*
X2393Y2089D02*
X2410Y2089D01*
X2458Y2089D02*
X2475Y2089D01*
X10Y2088D02*
X20Y2088D01*
X109Y2088D02*
X125Y2088D01*
X177Y2088D02*
X192Y2088D01*
X2392Y2088D02*
X2408Y2088D01*
X2460Y2088D02*
X2476Y2088D01*
X10Y2087D02*
X20Y2087D01*
X108Y2087D02*
X123Y2087D01*
X178Y2087D02*
X193Y2087D01*
X2391Y2087D02*
X2406Y2087D01*
X2462Y2087D02*
X2477Y2087D01*
X10Y2086D02*
X19Y2086D01*
X107Y2086D02*
X122Y2086D01*
X180Y2086D02*
X194Y2086D01*
X2390Y2086D02*
X2405Y2086D01*
X2463Y2086D02*
X2477Y2086D01*
X10Y2085D02*
X19Y2085D01*
X106Y2085D02*
X120Y2085D01*
X181Y2085D02*
X195Y2085D01*
X2390Y2085D02*
X2404Y2085D01*
X2464Y2085D02*
X2478Y2085D01*
X10Y2084D02*
X19Y2084D01*
X105Y2084D02*
X119Y2084D01*
X182Y2084D02*
X196Y2084D01*
X2389Y2084D02*
X2402Y2084D01*
X2466Y2084D02*
X2479Y2084D01*
X9Y2083D02*
X19Y2083D01*
X105Y2083D02*
X118Y2083D01*
X183Y2083D02*
X197Y2083D01*
X2388Y2083D02*
X2401Y2083D01*
X2467Y2083D02*
X2480Y2083D01*
X9Y2082D02*
X19Y2082D01*
X104Y2082D02*
X117Y2082D01*
X185Y2082D02*
X197Y2082D01*
X2387Y2082D02*
X2400Y2082D01*
X2468Y2082D02*
X2481Y2082D01*
X9Y2081D02*
X19Y2081D01*
X103Y2081D02*
X116Y2081D01*
X186Y2081D02*
X198Y2081D01*
X2386Y2081D02*
X2399Y2081D01*
X2469Y2081D02*
X2481Y2081D01*
X9Y2080D02*
X19Y2080D01*
X102Y2080D02*
X115Y2080D01*
X187Y2080D02*
X199Y2080D01*
X2386Y2080D02*
X2398Y2080D01*
X2470Y2080D02*
X2482Y2080D01*
X9Y2079D02*
X18Y2079D01*
X102Y2079D02*
X114Y2079D01*
X188Y2079D02*
X200Y2079D01*
X2385Y2079D02*
X2397Y2079D01*
X2471Y2079D02*
X2483Y2079D01*
X9Y2078D02*
X18Y2078D01*
X101Y2078D02*
X113Y2078D01*
X188Y2078D02*
X200Y2078D01*
X2384Y2078D02*
X2396Y2078D01*
X2472Y2078D02*
X2483Y2078D01*
X9Y2077D02*
X18Y2077D01*
X101Y2077D02*
X112Y2077D01*
X189Y2077D02*
X201Y2077D01*
X2384Y2077D02*
X2395Y2077D01*
X2473Y2077D02*
X2484Y2077D01*
X9Y2076D02*
X18Y2076D01*
X100Y2076D02*
X111Y2076D01*
X190Y2076D02*
X201Y2076D01*
X2383Y2076D02*
X2395Y2076D01*
X2473Y2076D02*
X2485Y2076D01*
X9Y2075D02*
X18Y2075D01*
X99Y2075D02*
X111Y2075D01*
X191Y2075D02*
X202Y2075D01*
X2383Y2075D02*
X2394Y2075D01*
X2474Y2075D02*
X2485Y2075D01*
X9Y2074D02*
X18Y2074D01*
X99Y2074D02*
X110Y2074D01*
X192Y2074D02*
X203Y2074D01*
X2382Y2074D02*
X2393Y2074D01*
X2475Y2074D02*
X2486Y2074D01*
X8Y2073D02*
X18Y2073D01*
X98Y2073D02*
X109Y2073D01*
X192Y2073D02*
X203Y2073D01*
X2382Y2073D02*
X2392Y2073D01*
X2475Y2073D02*
X2486Y2073D01*
X8Y2072D02*
X18Y2072D01*
X98Y2072D02*
X109Y2072D01*
X193Y2072D02*
X204Y2072D01*
X2381Y2072D02*
X2392Y2072D01*
X2476Y2072D02*
X2487Y2072D01*
X8Y2071D02*
X18Y2071D01*
X97Y2071D02*
X108Y2071D01*
X193Y2071D02*
X204Y2071D01*
X2381Y2071D02*
X2391Y2071D01*
X2477Y2071D02*
X2487Y2071D01*
X8Y2070D02*
X18Y2070D01*
X97Y2070D02*
X107Y2070D01*
X194Y2070D02*
X204Y2070D01*
X2380Y2070D02*
X2391Y2070D01*
X2477Y2070D02*
X2488Y2070D01*
X8Y2069D02*
X18Y2069D01*
X96Y2069D02*
X107Y2069D01*
X195Y2069D02*
X205Y2069D01*
X2380Y2069D02*
X2390Y2069D01*
X2478Y2069D02*
X2488Y2069D01*
X8Y2068D02*
X18Y2068D01*
X96Y2068D02*
X106Y2068D01*
X195Y2068D02*
X205Y2068D01*
X2379Y2068D02*
X2390Y2068D01*
X2478Y2068D02*
X2489Y2068D01*
X8Y2067D02*
X18Y2067D01*
X96Y2067D02*
X106Y2067D01*
X196Y2067D02*
X206Y2067D01*
X2379Y2067D02*
X2389Y2067D01*
X2479Y2067D02*
X2489Y2067D01*
X8Y2066D02*
X18Y2066D01*
X95Y2066D02*
X105Y2066D01*
X196Y2066D02*
X206Y2066D01*
X2379Y2066D02*
X2389Y2066D01*
X2479Y2066D02*
X2489Y2066D01*
X8Y2065D02*
X18Y2065D01*
X95Y2065D02*
X105Y2065D01*
X196Y2065D02*
X206Y2065D01*
X2378Y2065D02*
X2388Y2065D01*
X2480Y2065D02*
X2490Y2065D01*
X8Y2064D02*
X18Y2064D01*
X95Y2064D02*
X105Y2064D01*
X197Y2064D02*
X207Y2064D01*
X2378Y2064D02*
X2388Y2064D01*
X2480Y2064D02*
X2490Y2064D01*
X8Y2063D02*
X18Y2063D01*
X94Y2063D02*
X104Y2063D01*
X197Y2063D02*
X207Y2063D01*
X2378Y2063D02*
X2387Y2063D01*
X2480Y2063D02*
X2490Y2063D01*
X8Y2062D02*
X18Y2062D01*
X94Y2062D02*
X104Y2062D01*
X198Y2062D02*
X207Y2062D01*
X2377Y2062D02*
X2387Y2062D01*
X2481Y2062D02*
X2491Y2062D01*
X8Y2061D02*
X18Y2061D01*
X94Y2061D02*
X103Y2061D01*
X198Y2061D02*
X208Y2061D01*
X2377Y2061D02*
X2387Y2061D01*
X2481Y2061D02*
X2491Y2061D01*
X8Y2060D02*
X18Y2060D01*
X94Y2060D02*
X103Y2060D01*
X198Y2060D02*
X208Y2060D01*
X2377Y2060D02*
X2386Y2060D01*
X2481Y2060D02*
X2491Y2060D01*
X8Y2059D02*
X18Y2059D01*
X93Y2059D02*
X103Y2059D01*
X198Y2059D02*
X208Y2059D01*
X2377Y2059D02*
X2386Y2059D01*
X2482Y2059D02*
X2491Y2059D01*
X8Y2058D02*
X18Y2058D01*
X93Y2058D02*
X103Y2058D01*
X199Y2058D02*
X208Y2058D01*
X2376Y2058D02*
X2386Y2058D01*
X2482Y2058D02*
X2492Y2058D01*
X8Y2057D02*
X18Y2057D01*
X93Y2057D02*
X102Y2057D01*
X199Y2057D02*
X208Y2057D01*
X2376Y2057D02*
X2386Y2057D01*
X2482Y2057D02*
X2492Y2057D01*
X8Y2056D02*
X18Y2056D01*
X93Y2056D02*
X102Y2056D01*
X199Y2056D02*
X209Y2056D01*
X2376Y2056D02*
X2385Y2056D01*
X2482Y2056D02*
X2492Y2056D01*
X8Y2055D02*
X18Y2055D01*
X93Y2055D02*
X102Y2055D01*
X199Y2055D02*
X209Y2055D01*
X2376Y2055D02*
X2385Y2055D01*
X2483Y2055D02*
X2492Y2055D01*
X8Y2054D02*
X18Y2054D01*
X92Y2054D02*
X102Y2054D01*
X199Y2054D02*
X209Y2054D01*
X2376Y2054D02*
X2385Y2054D01*
X2483Y2054D02*
X2492Y2054D01*
X8Y2053D02*
X18Y2053D01*
X92Y2053D02*
X102Y2053D01*
X200Y2053D02*
X209Y2053D01*
X2376Y2053D02*
X2385Y2053D01*
X2483Y2053D02*
X2492Y2053D01*
X8Y2052D02*
X18Y2052D01*
X92Y2052D02*
X102Y2052D01*
X200Y2052D02*
X209Y2052D01*
X2375Y2052D02*
X2385Y2052D01*
X2483Y2052D02*
X2493Y2052D01*
X8Y2051D02*
X18Y2051D01*
X92Y2051D02*
X102Y2051D01*
X200Y2051D02*
X209Y2051D01*
X2375Y2051D02*
X2385Y2051D01*
X2483Y2051D02*
X2493Y2051D01*
X8Y2050D02*
X18Y2050D01*
X92Y2050D02*
X101Y2050D01*
X200Y2050D02*
X209Y2050D01*
X2375Y2050D02*
X2385Y2050D01*
X2483Y2050D02*
X2493Y2050D01*
X8Y2049D02*
X18Y2049D01*
X92Y2049D02*
X101Y2049D01*
X200Y2049D02*
X209Y2049D01*
X2375Y2049D02*
X2385Y2049D01*
X2483Y2049D02*
X2493Y2049D01*
X8Y2048D02*
X18Y2048D01*
X92Y2048D02*
X101Y2048D01*
X200Y2048D02*
X209Y2048D01*
X2375Y2048D02*
X2385Y2048D01*
X2483Y2048D02*
X2493Y2048D01*
X8Y2047D02*
X18Y2047D01*
X92Y2047D02*
X101Y2047D01*
X200Y2047D02*
X209Y2047D01*
X2375Y2047D02*
X2385Y2047D01*
X2483Y2047D02*
X2493Y2047D01*
X8Y2046D02*
X18Y2046D01*
X92Y2046D02*
X101Y2046D01*
X200Y2046D02*
X210Y2046D01*
X2375Y2046D02*
X2385Y2046D01*
X2483Y2046D02*
X2493Y2046D01*
X8Y2045D02*
X18Y2045D01*
X92Y2045D02*
X101Y2045D01*
X200Y2045D02*
X209Y2045D01*
X2375Y2045D02*
X2385Y2045D01*
X2483Y2045D02*
X2493Y2045D01*
X8Y2044D02*
X18Y2044D01*
X92Y2044D02*
X101Y2044D01*
X200Y2044D02*
X209Y2044D01*
X2375Y2044D02*
X2385Y2044D01*
X2483Y2044D02*
X2493Y2044D01*
X8Y2043D02*
X18Y2043D01*
X92Y2043D02*
X101Y2043D01*
X200Y2043D02*
X209Y2043D01*
X2375Y2043D02*
X2385Y2043D01*
X2483Y2043D02*
X2493Y2043D01*
X8Y2042D02*
X18Y2042D01*
X92Y2042D02*
X101Y2042D01*
X200Y2042D02*
X209Y2042D01*
X2375Y2042D02*
X2385Y2042D01*
X2483Y2042D02*
X2493Y2042D01*
X8Y2041D02*
X18Y2041D01*
X92Y2041D02*
X102Y2041D01*
X200Y2041D02*
X209Y2041D01*
X2375Y2041D02*
X2385Y2041D01*
X2483Y2041D02*
X2493Y2041D01*
X8Y2040D02*
X18Y2040D01*
X92Y2040D02*
X102Y2040D01*
X200Y2040D02*
X209Y2040D01*
X2376Y2040D02*
X2385Y2040D01*
X2483Y2040D02*
X2492Y2040D01*
X8Y2039D02*
X18Y2039D01*
X92Y2039D02*
X102Y2039D01*
X200Y2039D02*
X209Y2039D01*
X2376Y2039D02*
X2385Y2039D01*
X2483Y2039D02*
X2492Y2039D01*
X8Y2038D02*
X18Y2038D01*
X93Y2038D02*
X102Y2038D01*
X199Y2038D02*
X209Y2038D01*
X2376Y2038D02*
X2385Y2038D01*
X2483Y2038D02*
X2492Y2038D01*
X8Y2037D02*
X18Y2037D01*
X93Y2037D02*
X102Y2037D01*
X199Y2037D02*
X209Y2037D01*
X2376Y2037D02*
X2385Y2037D01*
X2483Y2037D02*
X2492Y2037D01*
X8Y2036D02*
X18Y2036D01*
X93Y2036D02*
X102Y2036D01*
X199Y2036D02*
X209Y2036D01*
X2376Y2036D02*
X2386Y2036D01*
X2482Y2036D02*
X2492Y2036D01*
X8Y2035D02*
X18Y2035D01*
X93Y2035D02*
X103Y2035D01*
X199Y2035D02*
X208Y2035D01*
X2376Y2035D02*
X2386Y2035D01*
X2482Y2035D02*
X2492Y2035D01*
X8Y2034D02*
X18Y2034D01*
X93Y2034D02*
X103Y2034D01*
X199Y2034D02*
X208Y2034D01*
X2377Y2034D02*
X2386Y2034D01*
X2482Y2034D02*
X2491Y2034D01*
X8Y2033D02*
X18Y2033D01*
X93Y2033D02*
X103Y2033D01*
X198Y2033D02*
X208Y2033D01*
X2377Y2033D02*
X2386Y2033D01*
X2482Y2033D02*
X2491Y2033D01*
X8Y2032D02*
X18Y2032D01*
X94Y2032D02*
X103Y2032D01*
X198Y2032D02*
X208Y2032D01*
X2377Y2032D02*
X2387Y2032D01*
X2481Y2032D02*
X2491Y2032D01*
X8Y2031D02*
X18Y2031D01*
X94Y2031D02*
X104Y2031D01*
X198Y2031D02*
X207Y2031D01*
X2377Y2031D02*
X2387Y2031D01*
X2481Y2031D02*
X2491Y2031D01*
X8Y2030D02*
X18Y2030D01*
X94Y2030D02*
X104Y2030D01*
X197Y2030D02*
X207Y2030D01*
X2378Y2030D02*
X2387Y2030D01*
X2481Y2030D02*
X2490Y2030D01*
X8Y2029D02*
X18Y2029D01*
X95Y2029D02*
X104Y2029D01*
X197Y2029D02*
X207Y2029D01*
X2378Y2029D02*
X2388Y2029D01*
X2480Y2029D02*
X2490Y2029D01*
X8Y2028D02*
X18Y2028D01*
X95Y2028D02*
X105Y2028D01*
X197Y2028D02*
X207Y2028D01*
X2378Y2028D02*
X2388Y2028D01*
X2480Y2028D02*
X2490Y2028D01*
X8Y2027D02*
X18Y2027D01*
X95Y2027D02*
X105Y2027D01*
X196Y2027D02*
X206Y2027D01*
X2379Y2027D02*
X2388Y2027D01*
X2480Y2027D02*
X2489Y2027D01*
X8Y2026D02*
X18Y2026D01*
X96Y2026D02*
X106Y2026D01*
X196Y2026D02*
X206Y2026D01*
X2379Y2026D02*
X2389Y2026D01*
X2479Y2026D02*
X2489Y2026D01*
X8Y2025D02*
X18Y2025D01*
X96Y2025D02*
X106Y2025D01*
X195Y2025D02*
X205Y2025D01*
X2379Y2025D02*
X2389Y2025D01*
X2479Y2025D02*
X2489Y2025D01*
X8Y2024D02*
X18Y2024D01*
X96Y2024D02*
X107Y2024D01*
X195Y2024D02*
X205Y2024D01*
X2380Y2024D02*
X2390Y2024D01*
X2478Y2024D02*
X2488Y2024D01*
X8Y2023D02*
X18Y2023D01*
X97Y2023D02*
X107Y2023D01*
X194Y2023D02*
X205Y2023D01*
X2380Y2023D02*
X2390Y2023D01*
X2478Y2023D02*
X2488Y2023D01*
X8Y2022D02*
X18Y2022D01*
X97Y2022D02*
X108Y2022D01*
X194Y2022D02*
X204Y2022D01*
X2381Y2022D02*
X2391Y2022D01*
X2477Y2022D02*
X2487Y2022D01*
X8Y2021D02*
X18Y2021D01*
X98Y2021D02*
X108Y2021D01*
X193Y2021D02*
X204Y2021D01*
X2381Y2021D02*
X2392Y2021D01*
X2476Y2021D02*
X2487Y2021D01*
X8Y2020D02*
X18Y2020D01*
X98Y2020D02*
X109Y2020D01*
X192Y2020D02*
X203Y2020D01*
X2381Y2020D02*
X2392Y2020D01*
X2476Y2020D02*
X2486Y2020D01*
X8Y2019D02*
X18Y2019D01*
X99Y2019D02*
X110Y2019D01*
X192Y2019D02*
X203Y2019D01*
X2382Y2019D02*
X2393Y2019D01*
X2475Y2019D02*
X2486Y2019D01*
X8Y2018D02*
X18Y2018D01*
X99Y2018D02*
X110Y2018D01*
X191Y2018D02*
X202Y2018D01*
X2382Y2018D02*
X2394Y2018D01*
X2474Y2018D02*
X2486Y2018D01*
X8Y2017D02*
X18Y2017D01*
X100Y2017D02*
X111Y2017D01*
X190Y2017D02*
X202Y2017D01*
X2383Y2017D02*
X2394Y2017D01*
X2474Y2017D02*
X2485Y2017D01*
X8Y2016D02*
X18Y2016D01*
X100Y2016D02*
X112Y2016D01*
X190Y2016D02*
X201Y2016D01*
X2384Y2016D02*
X2395Y2016D01*
X2473Y2016D02*
X2484Y2016D01*
X8Y2015D02*
X18Y2015D01*
X101Y2015D02*
X113Y2015D01*
X189Y2015D02*
X200Y2015D01*
X2384Y2015D02*
X2396Y2015D01*
X2472Y2015D02*
X2484Y2015D01*
X8Y2014D02*
X18Y2014D01*
X102Y2014D02*
X114Y2014D01*
X188Y2014D02*
X200Y2014D01*
X2385Y2014D02*
X2397Y2014D01*
X2471Y2014D02*
X2483Y2014D01*
X8Y2013D02*
X18Y2013D01*
X102Y2013D02*
X114Y2013D01*
X187Y2013D02*
X199Y2013D01*
X2385Y2013D02*
X2398Y2013D01*
X2470Y2013D02*
X2482Y2013D01*
X8Y2012D02*
X18Y2012D01*
X103Y2012D02*
X115Y2012D01*
X186Y2012D02*
X198Y2012D01*
X2386Y2012D02*
X2399Y2012D01*
X2469Y2012D02*
X2482Y2012D01*
X8Y2011D02*
X18Y2011D01*
X104Y2011D02*
X116Y2011D01*
X185Y2011D02*
X198Y2011D01*
X2387Y2011D02*
X2400Y2011D01*
X2468Y2011D02*
X2481Y2011D01*
X8Y2010D02*
X18Y2010D01*
X104Y2010D02*
X118Y2010D01*
X184Y2010D02*
X197Y2010D01*
X2388Y2010D02*
X2401Y2010D01*
X2467Y2010D02*
X2480Y2010D01*
X8Y2009D02*
X18Y2009D01*
X105Y2009D02*
X119Y2009D01*
X183Y2009D02*
X196Y2009D01*
X2388Y2009D02*
X2402Y2009D01*
X2466Y2009D02*
X2480Y2009D01*
X8Y2008D02*
X18Y2008D01*
X106Y2008D02*
X120Y2008D01*
X182Y2008D02*
X195Y2008D01*
X2389Y2008D02*
X2403Y2008D01*
X2465Y2008D02*
X2479Y2008D01*
X8Y2007D02*
X18Y2007D01*
X107Y2007D02*
X121Y2007D01*
X180Y2007D02*
X195Y2007D01*
X2390Y2007D02*
X2404Y2007D01*
X2464Y2007D02*
X2478Y2007D01*
X8Y2006D02*
X18Y2006D01*
X108Y2006D02*
X122Y2006D01*
X179Y2006D02*
X194Y2006D01*
X2391Y2006D02*
X2406Y2006D01*
X2462Y2006D02*
X2477Y2006D01*
X8Y2005D02*
X18Y2005D01*
X109Y2005D02*
X124Y2005D01*
X177Y2005D02*
X193Y2005D01*
X2392Y2005D02*
X2407Y2005D01*
X2461Y2005D02*
X2476Y2005D01*
X8Y2004D02*
X18Y2004D01*
X110Y2004D02*
X126Y2004D01*
X176Y2004D02*
X192Y2004D01*
X2393Y2004D02*
X2409Y2004D01*
X2459Y2004D02*
X2475Y2004D01*
X8Y2003D02*
X18Y2003D01*
X111Y2003D02*
X127Y2003D01*
X174Y2003D02*
X191Y2003D01*
X2394Y2003D02*
X2411Y2003D01*
X2457Y2003D02*
X2474Y2003D01*
X8Y2002D02*
X18Y2002D01*
X112Y2002D02*
X129Y2002D01*
X172Y2002D02*
X190Y2002D01*
X2395Y2002D02*
X2413Y2002D01*
X2455Y2002D02*
X2473Y2002D01*
X8Y2001D02*
X18Y2001D01*
X113Y2001D02*
X132Y2001D01*
X170Y2001D02*
X188Y2001D01*
X2396Y2001D02*
X2415Y2001D01*
X2453Y2001D02*
X2472Y2001D01*
X8Y2000D02*
X18Y2000D01*
X114Y2000D02*
X134Y2000D01*
X167Y2000D02*
X187Y2000D01*
X2398Y2000D02*
X2418Y2000D01*
X2450Y2000D02*
X2470Y2000D01*
X8Y1999D02*
X18Y1999D01*
X116Y1999D02*
X138Y1999D01*
X164Y1999D02*
X186Y1999D01*
X2399Y1999D02*
X2421Y1999D01*
X2447Y1999D02*
X2469Y1999D01*
X8Y1998D02*
X18Y1998D01*
X117Y1998D02*
X143Y1998D01*
X159Y1998D02*
X184Y1998D01*
X2400Y1998D02*
X2426Y1998D01*
X2442Y1998D02*
X2468Y1998D01*
X8Y1997D02*
X18Y1997D01*
X118Y1997D02*
X183Y1997D01*
X2402Y1997D02*
X2466Y1997D01*
X8Y1996D02*
X18Y1996D01*
X120Y1996D02*
X181Y1996D01*
X2403Y1996D02*
X2465Y1996D01*
X8Y1995D02*
X18Y1995D01*
X122Y1995D02*
X180Y1995D01*
X2405Y1995D02*
X2463Y1995D01*
X8Y1994D02*
X18Y1994D01*
X123Y1994D02*
X178Y1994D01*
X2407Y1994D02*
X2461Y1994D01*
X8Y1993D02*
X18Y1993D01*
X125Y1993D02*
X176Y1993D01*
X2409Y1993D02*
X2459Y1993D01*
X8Y1992D02*
X18Y1992D01*
X128Y1992D02*
X174Y1992D01*
X2411Y1992D02*
X2457Y1992D01*
X8Y1991D02*
X18Y1991D01*
X130Y1991D02*
X171Y1991D01*
X2413Y1991D02*
X2455Y1991D01*
X8Y1990D02*
X18Y1990D01*
X133Y1990D02*
X169Y1990D01*
X2416Y1990D02*
X2452Y1990D01*
X8Y1989D02*
X18Y1989D01*
X136Y1989D02*
X165Y1989D01*
X2420Y1989D02*
X2448Y1989D01*
X8Y1988D02*
X18Y1988D01*
X141Y1988D02*
X161Y1988D01*
X2424Y1988D02*
X2444Y1988D01*
X8Y1987D02*
X18Y1987D01*
X151Y1987D02*
X151Y1987D01*
X2434Y1987D02*
X2434Y1987D01*
X8Y1986D02*
X18Y1986D01*
X8Y1985D02*
X18Y1985D01*
X8Y1984D02*
X18Y1984D01*
X8Y1983D02*
X18Y1983D01*
X8Y1982D02*
X18Y1982D01*
X8Y1981D02*
X18Y1981D01*
X8Y1980D02*
X18Y1980D01*
X8Y1979D02*
X18Y1979D01*
X8Y1978D02*
X18Y1978D01*
X8Y1977D02*
X18Y1977D01*
X8Y1976D02*
X18Y1976D01*
X8Y1975D02*
X18Y1975D01*
X8Y1974D02*
X18Y1974D01*
X8Y1973D02*
X18Y1973D01*
X8Y1972D02*
X18Y1972D01*
X8Y1971D02*
X18Y1971D01*
X8Y1970D02*
X18Y1970D01*
X8Y1969D02*
X18Y1969D01*
X8Y1968D02*
X18Y1968D01*
X8Y1967D02*
X18Y1967D01*
X8Y1966D02*
X18Y1966D01*
X8Y1965D02*
X18Y1965D01*
X8Y1964D02*
X18Y1964D01*
X8Y1963D02*
X18Y1963D01*
X8Y1962D02*
X18Y1962D01*
X8Y1961D02*
X18Y1961D01*
X8Y1960D02*
X18Y1960D01*
X8Y1959D02*
X18Y1959D01*
X8Y1958D02*
X18Y1958D01*
X8Y1957D02*
X18Y1957D01*
X8Y1956D02*
X18Y1956D01*
X8Y1955D02*
X18Y1955D01*
X8Y1954D02*
X18Y1954D01*
X8Y1953D02*
X18Y1953D01*
X8Y1952D02*
X18Y1952D01*
X8Y1951D02*
X18Y1951D01*
X8Y1950D02*
X18Y1950D01*
X8Y1949D02*
X18Y1949D01*
X8Y1948D02*
X18Y1948D01*
X8Y1947D02*
X18Y1947D01*
X8Y1946D02*
X18Y1946D01*
X8Y1945D02*
X18Y1945D01*
X8Y1944D02*
X18Y1944D01*
X8Y1943D02*
X18Y1943D01*
X8Y1942D02*
X18Y1942D01*
X8Y1941D02*
X18Y1941D01*
X8Y1940D02*
X18Y1940D01*
X8Y1939D02*
X18Y1939D01*
X8Y1938D02*
X18Y1938D01*
X8Y1937D02*
X18Y1937D01*
X8Y1936D02*
X18Y1936D01*
X8Y1935D02*
X18Y1935D01*
X8Y1934D02*
X18Y1934D01*
X8Y1933D02*
X18Y1933D01*
X8Y1932D02*
X18Y1932D01*
X8Y1931D02*
X18Y1931D01*
X8Y1930D02*
X18Y1930D01*
X8Y1929D02*
X18Y1929D01*
X8Y1928D02*
X18Y1928D01*
X8Y1927D02*
X18Y1927D01*
X2868Y1927D02*
X2871Y1927D01*
X2896Y1927D02*
X2898Y1927D01*
X2918Y1927D02*
X2935Y1927D01*
X2981Y1927D02*
X2998Y1927D01*
X3018Y1927D02*
X3036Y1927D01*
X3071Y1927D02*
X3096Y1927D01*
X3121Y1927D02*
X3146Y1927D01*
X3175Y1927D02*
X3192Y1927D01*
X8Y1926D02*
X18Y1926D01*
X2867Y1926D02*
X2872Y1926D01*
X2895Y1926D02*
X2899Y1926D01*
X2917Y1926D02*
X2937Y1926D01*
X2979Y1926D02*
X2999Y1926D01*
X3017Y1926D02*
X3036Y1926D01*
X3069Y1926D02*
X3097Y1926D01*
X3119Y1926D02*
X3147Y1926D01*
X3174Y1926D02*
X3192Y1926D01*
X8Y1925D02*
X18Y1925D01*
X2867Y1925D02*
X2872Y1925D01*
X2894Y1925D02*
X2900Y1925D01*
X2917Y1925D02*
X2939Y1925D01*
X2978Y1925D02*
X3000Y1925D01*
X3017Y1925D02*
X3036Y1925D01*
X3068Y1925D02*
X3098Y1925D01*
X3118Y1925D02*
X3148Y1925D01*
X3174Y1925D02*
X3193Y1925D01*
X8Y1924D02*
X18Y1924D01*
X2866Y1924D02*
X2872Y1924D01*
X2894Y1924D02*
X2900Y1924D01*
X2917Y1924D02*
X2940Y1924D01*
X2977Y1924D02*
X3000Y1924D01*
X3017Y1924D02*
X3036Y1924D01*
X3067Y1924D02*
X3099Y1924D01*
X3117Y1924D02*
X3149Y1924D01*
X3173Y1924D02*
X3193Y1924D01*
X8Y1923D02*
X18Y1923D01*
X2866Y1923D02*
X2873Y1923D01*
X2894Y1923D02*
X2900Y1923D01*
X2917Y1923D02*
X2940Y1923D01*
X2976Y1923D02*
X3000Y1923D01*
X3017Y1923D02*
X3036Y1923D01*
X3067Y1923D02*
X3100Y1923D01*
X3117Y1923D02*
X3150Y1923D01*
X3173Y1923D02*
X3193Y1923D01*
X8Y1922D02*
X18Y1922D01*
X2866Y1922D02*
X2873Y1922D01*
X2894Y1922D02*
X2900Y1922D01*
X2917Y1922D02*
X2941Y1922D01*
X2975Y1922D02*
X2999Y1922D01*
X3017Y1922D02*
X3036Y1922D01*
X3067Y1922D02*
X3100Y1922D01*
X3117Y1922D02*
X3150Y1922D01*
X3173Y1922D02*
X3193Y1922D01*
X8Y1921D02*
X18Y1921D01*
X2866Y1921D02*
X2873Y1921D01*
X2894Y1921D02*
X2900Y1921D01*
X2919Y1921D02*
X2942Y1921D01*
X2975Y1921D02*
X2998Y1921D01*
X3019Y1921D02*
X3036Y1921D01*
X3066Y1921D02*
X3100Y1921D01*
X3116Y1921D02*
X3150Y1921D01*
X3173Y1921D02*
X3193Y1921D01*
X8Y1920D02*
X18Y1920D01*
X2866Y1920D02*
X2873Y1920D01*
X2894Y1920D02*
X2900Y1920D01*
X2923Y1920D02*
X2929Y1920D01*
X2935Y1920D02*
X2942Y1920D01*
X2974Y1920D02*
X2982Y1920D01*
X3030Y1920D02*
X3036Y1920D01*
X3066Y1920D02*
X3072Y1920D01*
X3094Y1920D02*
X3100Y1920D01*
X3116Y1920D02*
X3122Y1920D01*
X3144Y1920D02*
X3150Y1920D01*
X3173Y1920D02*
X3179Y1920D01*
X3187Y1920D02*
X3193Y1920D01*
X8Y1919D02*
X18Y1919D01*
X2866Y1919D02*
X2873Y1919D01*
X2894Y1919D02*
X2900Y1919D01*
X2923Y1919D02*
X2929Y1919D01*
X2936Y1919D02*
X2943Y1919D01*
X2974Y1919D02*
X2981Y1919D01*
X3030Y1919D02*
X3036Y1919D01*
X3066Y1919D02*
X3072Y1919D01*
X3094Y1919D02*
X3100Y1919D01*
X3116Y1919D02*
X3122Y1919D01*
X3144Y1919D02*
X3150Y1919D01*
X3173Y1919D02*
X3179Y1919D01*
X3187Y1919D02*
X3193Y1919D01*
X8Y1918D02*
X18Y1918D01*
X2866Y1918D02*
X2873Y1918D01*
X2894Y1918D02*
X2900Y1918D01*
X2923Y1918D02*
X2929Y1918D01*
X2936Y1918D02*
X2943Y1918D01*
X2973Y1918D02*
X2980Y1918D01*
X3030Y1918D02*
X3036Y1918D01*
X3066Y1918D02*
X3072Y1918D01*
X3094Y1918D02*
X3100Y1918D01*
X3116Y1918D02*
X3122Y1918D01*
X3144Y1918D02*
X3150Y1918D01*
X3173Y1918D02*
X3179Y1918D01*
X3187Y1918D02*
X3193Y1918D01*
X8Y1917D02*
X18Y1917D01*
X2866Y1917D02*
X2873Y1917D01*
X2894Y1917D02*
X2900Y1917D01*
X2923Y1917D02*
X2929Y1917D01*
X2937Y1917D02*
X2944Y1917D01*
X2973Y1917D02*
X2980Y1917D01*
X3030Y1917D02*
X3036Y1917D01*
X3066Y1917D02*
X3072Y1917D01*
X3094Y1917D02*
X3100Y1917D01*
X3116Y1917D02*
X3122Y1917D01*
X3144Y1917D02*
X3150Y1917D01*
X3173Y1917D02*
X3179Y1917D01*
X3187Y1917D02*
X3193Y1917D01*
X8Y1916D02*
X18Y1916D01*
X2866Y1916D02*
X2873Y1916D01*
X2894Y1916D02*
X2900Y1916D01*
X2923Y1916D02*
X2929Y1916D01*
X2937Y1916D02*
X2944Y1916D01*
X2972Y1916D02*
X2979Y1916D01*
X3030Y1916D02*
X3036Y1916D01*
X3066Y1916D02*
X3072Y1916D01*
X3094Y1916D02*
X3100Y1916D01*
X3116Y1916D02*
X3122Y1916D01*
X3144Y1916D02*
X3150Y1916D01*
X3173Y1916D02*
X3179Y1916D01*
X3187Y1916D02*
X3193Y1916D01*
X8Y1915D02*
X18Y1915D01*
X2866Y1915D02*
X2873Y1915D01*
X2894Y1915D02*
X2900Y1915D01*
X2923Y1915D02*
X2929Y1915D01*
X2938Y1915D02*
X2945Y1915D01*
X2972Y1915D02*
X2979Y1915D01*
X3030Y1915D02*
X3036Y1915D01*
X3066Y1915D02*
X3072Y1915D01*
X3094Y1915D02*
X3100Y1915D01*
X3116Y1915D02*
X3122Y1915D01*
X3144Y1915D02*
X3150Y1915D01*
X3173Y1915D02*
X3179Y1915D01*
X3187Y1915D02*
X3193Y1915D01*
X8Y1914D02*
X18Y1914D01*
X2866Y1914D02*
X2873Y1914D01*
X2894Y1914D02*
X2900Y1914D01*
X2923Y1914D02*
X2929Y1914D01*
X2938Y1914D02*
X2945Y1914D01*
X2971Y1914D02*
X2978Y1914D01*
X3030Y1914D02*
X3036Y1914D01*
X3066Y1914D02*
X3072Y1914D01*
X3094Y1914D02*
X3100Y1914D01*
X3116Y1914D02*
X3122Y1914D01*
X3144Y1914D02*
X3150Y1914D01*
X3173Y1914D02*
X3179Y1914D01*
X3187Y1914D02*
X3193Y1914D01*
X8Y1913D02*
X18Y1913D01*
X2866Y1913D02*
X2873Y1913D01*
X2894Y1913D02*
X2900Y1913D01*
X2923Y1913D02*
X2929Y1913D01*
X2939Y1913D02*
X2946Y1913D01*
X2971Y1913D02*
X2978Y1913D01*
X3030Y1913D02*
X3036Y1913D01*
X3066Y1913D02*
X3072Y1913D01*
X3094Y1913D02*
X3100Y1913D01*
X3116Y1913D02*
X3122Y1913D01*
X3144Y1913D02*
X3150Y1913D01*
X3173Y1913D02*
X3179Y1913D01*
X3187Y1913D02*
X3193Y1913D01*
X8Y1912D02*
X18Y1912D01*
X2866Y1912D02*
X2873Y1912D01*
X2894Y1912D02*
X2900Y1912D01*
X2923Y1912D02*
X2929Y1912D01*
X2939Y1912D02*
X2946Y1912D01*
X2970Y1912D02*
X2977Y1912D01*
X3030Y1912D02*
X3036Y1912D01*
X3066Y1912D02*
X3072Y1912D01*
X3094Y1912D02*
X3100Y1912D01*
X3116Y1912D02*
X3122Y1912D01*
X3144Y1912D02*
X3150Y1912D01*
X3173Y1912D02*
X3179Y1912D01*
X3187Y1912D02*
X3193Y1912D01*
X8Y1911D02*
X18Y1911D01*
X2866Y1911D02*
X2873Y1911D01*
X2894Y1911D02*
X2900Y1911D01*
X2923Y1911D02*
X2929Y1911D01*
X2940Y1911D02*
X2947Y1911D01*
X2970Y1911D02*
X2977Y1911D01*
X3030Y1911D02*
X3036Y1911D01*
X3066Y1911D02*
X3072Y1911D01*
X3094Y1911D02*
X3100Y1911D01*
X3116Y1911D02*
X3122Y1911D01*
X3144Y1911D02*
X3150Y1911D01*
X3173Y1911D02*
X3179Y1911D01*
X3187Y1911D02*
X3193Y1911D01*
X8Y1910D02*
X18Y1910D01*
X2866Y1910D02*
X2873Y1910D01*
X2894Y1910D02*
X2900Y1910D01*
X2923Y1910D02*
X2929Y1910D01*
X2940Y1910D02*
X2947Y1910D01*
X2969Y1910D02*
X2976Y1910D01*
X3030Y1910D02*
X3036Y1910D01*
X3066Y1910D02*
X3072Y1910D01*
X3094Y1910D02*
X3100Y1910D01*
X3116Y1910D02*
X3122Y1910D01*
X3144Y1910D02*
X3150Y1910D01*
X3173Y1910D02*
X3179Y1910D01*
X3187Y1910D02*
X3193Y1910D01*
X8Y1909D02*
X18Y1909D01*
X2866Y1909D02*
X2873Y1909D01*
X2894Y1909D02*
X2900Y1909D01*
X2923Y1909D02*
X2929Y1909D01*
X2941Y1909D02*
X2948Y1909D01*
X2969Y1909D02*
X2976Y1909D01*
X3030Y1909D02*
X3036Y1909D01*
X3066Y1909D02*
X3072Y1909D01*
X3094Y1909D02*
X3100Y1909D01*
X3116Y1909D02*
X3122Y1909D01*
X3144Y1909D02*
X3150Y1909D01*
X3173Y1909D02*
X3179Y1909D01*
X3187Y1909D02*
X3193Y1909D01*
X8Y1908D02*
X18Y1908D01*
X2866Y1908D02*
X2873Y1908D01*
X2894Y1908D02*
X2900Y1908D01*
X2923Y1908D02*
X2929Y1908D01*
X2941Y1908D02*
X2948Y1908D01*
X2968Y1908D02*
X2975Y1908D01*
X3030Y1908D02*
X3036Y1908D01*
X3066Y1908D02*
X3072Y1908D01*
X3094Y1908D02*
X3100Y1908D01*
X3116Y1908D02*
X3122Y1908D01*
X3144Y1908D02*
X3150Y1908D01*
X3173Y1908D02*
X3179Y1908D01*
X3187Y1908D02*
X3193Y1908D01*
X8Y1907D02*
X18Y1907D01*
X2866Y1907D02*
X2873Y1907D01*
X2894Y1907D02*
X2900Y1907D01*
X2923Y1907D02*
X2929Y1907D01*
X2942Y1907D02*
X2949Y1907D01*
X2968Y1907D02*
X2975Y1907D01*
X3030Y1907D02*
X3036Y1907D01*
X3066Y1907D02*
X3072Y1907D01*
X3094Y1907D02*
X3100Y1907D01*
X3116Y1907D02*
X3122Y1907D01*
X3144Y1907D02*
X3150Y1907D01*
X3173Y1907D02*
X3179Y1907D01*
X3187Y1907D02*
X3193Y1907D01*
X8Y1906D02*
X18Y1906D01*
X2866Y1906D02*
X2873Y1906D01*
X2894Y1906D02*
X2900Y1906D01*
X2923Y1906D02*
X2929Y1906D01*
X2942Y1906D02*
X2949Y1906D01*
X2968Y1906D02*
X2974Y1906D01*
X3030Y1906D02*
X3036Y1906D01*
X3066Y1906D02*
X3072Y1906D01*
X3094Y1906D02*
X3100Y1906D01*
X3116Y1906D02*
X3122Y1906D01*
X3144Y1906D02*
X3150Y1906D01*
X3173Y1906D02*
X3179Y1906D01*
X3187Y1906D02*
X3193Y1906D01*
X8Y1905D02*
X18Y1905D01*
X2866Y1905D02*
X2873Y1905D01*
X2894Y1905D02*
X2900Y1905D01*
X2923Y1905D02*
X2929Y1905D01*
X2943Y1905D02*
X2949Y1905D01*
X2967Y1905D02*
X2974Y1905D01*
X3030Y1905D02*
X3036Y1905D01*
X3066Y1905D02*
X3072Y1905D01*
X3094Y1905D02*
X3100Y1905D01*
X3116Y1905D02*
X3122Y1905D01*
X3144Y1905D02*
X3150Y1905D01*
X3173Y1905D02*
X3179Y1905D01*
X3187Y1905D02*
X3193Y1905D01*
X8Y1904D02*
X18Y1904D01*
X2866Y1904D02*
X2900Y1904D01*
X2923Y1904D02*
X2929Y1904D01*
X2943Y1904D02*
X2950Y1904D01*
X2967Y1904D02*
X2973Y1904D01*
X3030Y1904D02*
X3036Y1904D01*
X3066Y1904D02*
X3072Y1904D01*
X3094Y1904D02*
X3100Y1904D01*
X3116Y1904D02*
X3122Y1904D01*
X3144Y1904D02*
X3150Y1904D01*
X3172Y1904D02*
X3194Y1904D01*
X8Y1903D02*
X18Y1903D01*
X2866Y1903D02*
X2900Y1903D01*
X2923Y1903D02*
X2929Y1903D01*
X2944Y1903D02*
X2950Y1903D01*
X2967Y1903D02*
X2973Y1903D01*
X3030Y1903D02*
X3036Y1903D01*
X3066Y1903D02*
X3072Y1903D01*
X3094Y1903D02*
X3100Y1903D01*
X3116Y1903D02*
X3122Y1903D01*
X3144Y1903D02*
X3150Y1903D01*
X3170Y1903D02*
X3197Y1903D01*
X8Y1902D02*
X18Y1902D01*
X2866Y1902D02*
X2900Y1902D01*
X2923Y1902D02*
X2929Y1902D01*
X2944Y1902D02*
X2950Y1902D01*
X2967Y1902D02*
X2973Y1902D01*
X3030Y1902D02*
X3036Y1902D01*
X3066Y1902D02*
X3072Y1902D01*
X3094Y1902D02*
X3100Y1902D01*
X3116Y1902D02*
X3122Y1902D01*
X3144Y1902D02*
X3150Y1902D01*
X3169Y1902D02*
X3198Y1902D01*
X8Y1901D02*
X18Y1901D01*
X2866Y1901D02*
X2900Y1901D01*
X2923Y1901D02*
X2929Y1901D01*
X2944Y1901D02*
X2950Y1901D01*
X2966Y1901D02*
X2973Y1901D01*
X3030Y1901D02*
X3036Y1901D01*
X3066Y1901D02*
X3072Y1901D01*
X3094Y1901D02*
X3100Y1901D01*
X3116Y1901D02*
X3122Y1901D01*
X3144Y1901D02*
X3150Y1901D01*
X3168Y1901D02*
X3199Y1901D01*
X8Y1900D02*
X18Y1900D01*
X2866Y1900D02*
X2900Y1900D01*
X2923Y1900D02*
X2929Y1900D01*
X2944Y1900D02*
X2950Y1900D01*
X2966Y1900D02*
X2973Y1900D01*
X3030Y1900D02*
X3036Y1900D01*
X3066Y1900D02*
X3072Y1900D01*
X3094Y1900D02*
X3100Y1900D01*
X3116Y1900D02*
X3122Y1900D01*
X3144Y1900D02*
X3150Y1900D01*
X3167Y1900D02*
X3199Y1900D01*
X8Y1899D02*
X18Y1899D01*
X2866Y1899D02*
X2900Y1899D01*
X2923Y1899D02*
X2929Y1899D01*
X2944Y1899D02*
X2950Y1899D01*
X2967Y1899D02*
X2973Y1899D01*
X3030Y1899D02*
X3036Y1899D01*
X3066Y1899D02*
X3072Y1899D01*
X3094Y1899D02*
X3100Y1899D01*
X3116Y1899D02*
X3122Y1899D01*
X3144Y1899D02*
X3150Y1899D01*
X3167Y1899D02*
X3200Y1899D01*
X8Y1898D02*
X18Y1898D01*
X2866Y1898D02*
X2900Y1898D01*
X2923Y1898D02*
X2929Y1898D01*
X2944Y1898D02*
X2950Y1898D01*
X2967Y1898D02*
X2973Y1898D01*
X3030Y1898D02*
X3036Y1898D01*
X3046Y1898D02*
X3048Y1898D01*
X3066Y1898D02*
X3072Y1898D01*
X3094Y1898D02*
X3100Y1898D01*
X3116Y1898D02*
X3122Y1898D01*
X3144Y1898D02*
X3150Y1898D01*
X3167Y1898D02*
X3200Y1898D01*
X8Y1897D02*
X18Y1897D01*
X2866Y1897D02*
X2873Y1897D01*
X2894Y1897D02*
X2900Y1897D01*
X2923Y1897D02*
X2929Y1897D01*
X2943Y1897D02*
X2950Y1897D01*
X2967Y1897D02*
X2973Y1897D01*
X3030Y1897D02*
X3036Y1897D01*
X3045Y1897D02*
X3049Y1897D01*
X3066Y1897D02*
X3072Y1897D01*
X3094Y1897D02*
X3100Y1897D01*
X3116Y1897D02*
X3122Y1897D01*
X3144Y1897D02*
X3150Y1897D01*
X3166Y1897D02*
X3173Y1897D01*
X3194Y1897D02*
X3200Y1897D01*
X8Y1896D02*
X18Y1896D01*
X2866Y1896D02*
X2873Y1896D01*
X2894Y1896D02*
X2900Y1896D01*
X2923Y1896D02*
X2929Y1896D01*
X2943Y1896D02*
X2949Y1896D01*
X2967Y1896D02*
X2974Y1896D01*
X3030Y1896D02*
X3036Y1896D01*
X3044Y1896D02*
X3050Y1896D01*
X3066Y1896D02*
X3072Y1896D01*
X3094Y1896D02*
X3100Y1896D01*
X3116Y1896D02*
X3122Y1896D01*
X3144Y1896D02*
X3150Y1896D01*
X3166Y1896D02*
X3172Y1896D01*
X3194Y1896D02*
X3200Y1896D01*
X8Y1895D02*
X18Y1895D01*
X2866Y1895D02*
X2873Y1895D01*
X2894Y1895D02*
X2900Y1895D01*
X2923Y1895D02*
X2929Y1895D01*
X2942Y1895D02*
X2949Y1895D01*
X2968Y1895D02*
X2974Y1895D01*
X3030Y1895D02*
X3036Y1895D01*
X3044Y1895D02*
X3050Y1895D01*
X3066Y1895D02*
X3072Y1895D01*
X3094Y1895D02*
X3100Y1895D01*
X3116Y1895D02*
X3122Y1895D01*
X3144Y1895D02*
X3150Y1895D01*
X3166Y1895D02*
X3172Y1895D01*
X3194Y1895D02*
X3200Y1895D01*
X8Y1894D02*
X18Y1894D01*
X2866Y1894D02*
X2873Y1894D01*
X2894Y1894D02*
X2900Y1894D01*
X2923Y1894D02*
X2929Y1894D01*
X2942Y1894D02*
X2949Y1894D01*
X2968Y1894D02*
X2975Y1894D01*
X3030Y1894D02*
X3036Y1894D01*
X3044Y1894D02*
X3050Y1894D01*
X3066Y1894D02*
X3072Y1894D01*
X3094Y1894D02*
X3100Y1894D01*
X3116Y1894D02*
X3122Y1894D01*
X3144Y1894D02*
X3150Y1894D01*
X3166Y1894D02*
X3172Y1894D01*
X3194Y1894D02*
X3200Y1894D01*
X8Y1893D02*
X18Y1893D01*
X2866Y1893D02*
X2873Y1893D01*
X2894Y1893D02*
X2900Y1893D01*
X2923Y1893D02*
X2929Y1893D01*
X2941Y1893D02*
X2948Y1893D01*
X2968Y1893D02*
X2975Y1893D01*
X3030Y1893D02*
X3036Y1893D01*
X3044Y1893D02*
X3050Y1893D01*
X3066Y1893D02*
X3072Y1893D01*
X3094Y1893D02*
X3100Y1893D01*
X3116Y1893D02*
X3122Y1893D01*
X3144Y1893D02*
X3150Y1893D01*
X3166Y1893D02*
X3172Y1893D01*
X3194Y1893D02*
X3200Y1893D01*
X8Y1892D02*
X18Y1892D01*
X2866Y1892D02*
X2873Y1892D01*
X2894Y1892D02*
X2900Y1892D01*
X2923Y1892D02*
X2929Y1892D01*
X2941Y1892D02*
X2948Y1892D01*
X2969Y1892D02*
X2976Y1892D01*
X3030Y1892D02*
X3036Y1892D01*
X3044Y1892D02*
X3050Y1892D01*
X3066Y1892D02*
X3072Y1892D01*
X3094Y1892D02*
X3100Y1892D01*
X3116Y1892D02*
X3122Y1892D01*
X3144Y1892D02*
X3150Y1892D01*
X3166Y1892D02*
X3172Y1892D01*
X3194Y1892D02*
X3200Y1892D01*
X8Y1891D02*
X18Y1891D01*
X2866Y1891D02*
X2873Y1891D01*
X2894Y1891D02*
X2900Y1891D01*
X2923Y1891D02*
X2929Y1891D01*
X2940Y1891D02*
X2947Y1891D01*
X2969Y1891D02*
X2976Y1891D01*
X3030Y1891D02*
X3036Y1891D01*
X3044Y1891D02*
X3050Y1891D01*
X3066Y1891D02*
X3072Y1891D01*
X3094Y1891D02*
X3100Y1891D01*
X3116Y1891D02*
X3122Y1891D01*
X3144Y1891D02*
X3150Y1891D01*
X3166Y1891D02*
X3172Y1891D01*
X3194Y1891D02*
X3200Y1891D01*
X8Y1890D02*
X18Y1890D01*
X2866Y1890D02*
X2873Y1890D01*
X2894Y1890D02*
X2900Y1890D01*
X2923Y1890D02*
X2929Y1890D01*
X2940Y1890D02*
X2947Y1890D01*
X2970Y1890D02*
X2977Y1890D01*
X3030Y1890D02*
X3036Y1890D01*
X3044Y1890D02*
X3050Y1890D01*
X3066Y1890D02*
X3072Y1890D01*
X3094Y1890D02*
X3100Y1890D01*
X3116Y1890D02*
X3122Y1890D01*
X3144Y1890D02*
X3150Y1890D01*
X3166Y1890D02*
X3172Y1890D01*
X3194Y1890D02*
X3200Y1890D01*
X8Y1889D02*
X18Y1889D01*
X2866Y1889D02*
X2873Y1889D01*
X2894Y1889D02*
X2900Y1889D01*
X2923Y1889D02*
X2929Y1889D01*
X2939Y1889D02*
X2946Y1889D01*
X2970Y1889D02*
X2977Y1889D01*
X3030Y1889D02*
X3036Y1889D01*
X3044Y1889D02*
X3050Y1889D01*
X3066Y1889D02*
X3072Y1889D01*
X3094Y1889D02*
X3100Y1889D01*
X3116Y1889D02*
X3122Y1889D01*
X3144Y1889D02*
X3150Y1889D01*
X3166Y1889D02*
X3172Y1889D01*
X3194Y1889D02*
X3200Y1889D01*
X8Y1888D02*
X18Y1888D01*
X2866Y1888D02*
X2873Y1888D01*
X2894Y1888D02*
X2900Y1888D01*
X2923Y1888D02*
X2929Y1888D01*
X2939Y1888D02*
X2946Y1888D01*
X2971Y1888D02*
X2978Y1888D01*
X3030Y1888D02*
X3036Y1888D01*
X3044Y1888D02*
X3050Y1888D01*
X3066Y1888D02*
X3072Y1888D01*
X3094Y1888D02*
X3100Y1888D01*
X3116Y1888D02*
X3122Y1888D01*
X3144Y1888D02*
X3150Y1888D01*
X3166Y1888D02*
X3172Y1888D01*
X3194Y1888D02*
X3200Y1888D01*
X8Y1887D02*
X18Y1887D01*
X2866Y1887D02*
X2873Y1887D01*
X2894Y1887D02*
X2900Y1887D01*
X2923Y1887D02*
X2929Y1887D01*
X2938Y1887D02*
X2945Y1887D01*
X2971Y1887D02*
X2978Y1887D01*
X3030Y1887D02*
X3036Y1887D01*
X3044Y1887D02*
X3050Y1887D01*
X3066Y1887D02*
X3072Y1887D01*
X3094Y1887D02*
X3100Y1887D01*
X3116Y1887D02*
X3122Y1887D01*
X3144Y1887D02*
X3150Y1887D01*
X3166Y1887D02*
X3172Y1887D01*
X3194Y1887D02*
X3200Y1887D01*
X8Y1886D02*
X18Y1886D01*
X2866Y1886D02*
X2873Y1886D01*
X2894Y1886D02*
X2900Y1886D01*
X2923Y1886D02*
X2929Y1886D01*
X2938Y1886D02*
X2945Y1886D01*
X2972Y1886D02*
X2979Y1886D01*
X3030Y1886D02*
X3036Y1886D01*
X3044Y1886D02*
X3050Y1886D01*
X3066Y1886D02*
X3072Y1886D01*
X3094Y1886D02*
X3100Y1886D01*
X3116Y1886D02*
X3122Y1886D01*
X3144Y1886D02*
X3150Y1886D01*
X3166Y1886D02*
X3172Y1886D01*
X3194Y1886D02*
X3200Y1886D01*
X8Y1885D02*
X18Y1885D01*
X2866Y1885D02*
X2873Y1885D01*
X2894Y1885D02*
X2900Y1885D01*
X2923Y1885D02*
X2929Y1885D01*
X2937Y1885D02*
X2944Y1885D01*
X2972Y1885D02*
X2979Y1885D01*
X3030Y1885D02*
X3036Y1885D01*
X3044Y1885D02*
X3050Y1885D01*
X3066Y1885D02*
X3072Y1885D01*
X3094Y1885D02*
X3100Y1885D01*
X3116Y1885D02*
X3122Y1885D01*
X3144Y1885D02*
X3150Y1885D01*
X3166Y1885D02*
X3172Y1885D01*
X3194Y1885D02*
X3200Y1885D01*
X8Y1884D02*
X18Y1884D01*
X2866Y1884D02*
X2873Y1884D01*
X2894Y1884D02*
X2900Y1884D01*
X2923Y1884D02*
X2929Y1884D01*
X2937Y1884D02*
X2944Y1884D01*
X2973Y1884D02*
X2980Y1884D01*
X3030Y1884D02*
X3036Y1884D01*
X3044Y1884D02*
X3050Y1884D01*
X3066Y1884D02*
X3072Y1884D01*
X3094Y1884D02*
X3100Y1884D01*
X3116Y1884D02*
X3122Y1884D01*
X3144Y1884D02*
X3150Y1884D01*
X3166Y1884D02*
X3172Y1884D01*
X3194Y1884D02*
X3200Y1884D01*
X8Y1883D02*
X18Y1883D01*
X2866Y1883D02*
X2873Y1883D01*
X2894Y1883D02*
X2900Y1883D01*
X2923Y1883D02*
X2929Y1883D01*
X2936Y1883D02*
X2943Y1883D01*
X2973Y1883D02*
X2980Y1883D01*
X3030Y1883D02*
X3036Y1883D01*
X3044Y1883D02*
X3050Y1883D01*
X3066Y1883D02*
X3072Y1883D01*
X3094Y1883D02*
X3100Y1883D01*
X3116Y1883D02*
X3122Y1883D01*
X3144Y1883D02*
X3150Y1883D01*
X3166Y1883D02*
X3172Y1883D01*
X3194Y1883D02*
X3200Y1883D01*
X8Y1882D02*
X18Y1882D01*
X2866Y1882D02*
X2873Y1882D01*
X2894Y1882D02*
X2900Y1882D01*
X2923Y1882D02*
X2929Y1882D01*
X2936Y1882D02*
X2943Y1882D01*
X2974Y1882D02*
X2981Y1882D01*
X3030Y1882D02*
X3036Y1882D01*
X3044Y1882D02*
X3050Y1882D01*
X3066Y1882D02*
X3072Y1882D01*
X3094Y1882D02*
X3100Y1882D01*
X3116Y1882D02*
X3122Y1882D01*
X3144Y1882D02*
X3150Y1882D01*
X3166Y1882D02*
X3172Y1882D01*
X3194Y1882D02*
X3200Y1882D01*
X8Y1881D02*
X18Y1881D01*
X2866Y1881D02*
X2873Y1881D01*
X2894Y1881D02*
X2900Y1881D01*
X2923Y1881D02*
X2929Y1881D01*
X2935Y1881D02*
X2942Y1881D01*
X2974Y1881D02*
X2982Y1881D01*
X3030Y1881D02*
X3036Y1881D01*
X3044Y1881D02*
X3050Y1881D01*
X3066Y1881D02*
X3072Y1881D01*
X3094Y1881D02*
X3100Y1881D01*
X3116Y1881D02*
X3122Y1881D01*
X3144Y1881D02*
X3150Y1881D01*
X3166Y1881D02*
X3172Y1881D01*
X3194Y1881D02*
X3200Y1881D01*
X8Y1880D02*
X18Y1880D01*
X2866Y1880D02*
X2873Y1880D01*
X2894Y1880D02*
X2900Y1880D01*
X2918Y1880D02*
X2942Y1880D01*
X2975Y1880D02*
X2998Y1880D01*
X3018Y1880D02*
X3050Y1880D01*
X3067Y1880D02*
X3100Y1880D01*
X3117Y1880D02*
X3150Y1880D01*
X3166Y1880D02*
X3200Y1880D01*
X8Y1879D02*
X18Y1879D01*
X2866Y1879D02*
X2873Y1879D01*
X2894Y1879D02*
X2900Y1879D01*
X2917Y1879D02*
X2941Y1879D01*
X2975Y1879D02*
X2999Y1879D01*
X3017Y1879D02*
X3050Y1879D01*
X3067Y1879D02*
X3100Y1879D01*
X3117Y1879D02*
X3150Y1879D01*
X3167Y1879D02*
X3200Y1879D01*
X8Y1878D02*
X18Y1878D01*
X2866Y1878D02*
X2873Y1878D01*
X2894Y1878D02*
X2900Y1878D01*
X2917Y1878D02*
X2940Y1878D01*
X2976Y1878D02*
X3000Y1878D01*
X3017Y1878D02*
X3050Y1878D01*
X3067Y1878D02*
X3100Y1878D01*
X3117Y1878D02*
X3150Y1878D01*
X3167Y1878D02*
X3200Y1878D01*
X8Y1877D02*
X18Y1877D01*
X2867Y1877D02*
X2872Y1877D01*
X2894Y1877D02*
X2900Y1877D01*
X2917Y1877D02*
X2940Y1877D01*
X2977Y1877D02*
X3000Y1877D01*
X3017Y1877D02*
X3050Y1877D01*
X3067Y1877D02*
X3099Y1877D01*
X3117Y1877D02*
X3149Y1877D01*
X3167Y1877D02*
X3199Y1877D01*
X8Y1876D02*
X18Y1876D01*
X2867Y1876D02*
X2872Y1876D01*
X2894Y1876D02*
X2900Y1876D01*
X2917Y1876D02*
X2939Y1876D01*
X2978Y1876D02*
X3000Y1876D01*
X3017Y1876D02*
X3050Y1876D01*
X3068Y1876D02*
X3098Y1876D01*
X3118Y1876D02*
X3148Y1876D01*
X3168Y1876D02*
X3198Y1876D01*
X8Y1875D02*
X18Y1875D01*
X2867Y1875D02*
X2872Y1875D01*
X2895Y1875D02*
X2899Y1875D01*
X2917Y1875D02*
X2937Y1875D01*
X2979Y1875D02*
X2999Y1875D01*
X3017Y1875D02*
X3049Y1875D01*
X3069Y1875D02*
X3097Y1875D01*
X3119Y1875D02*
X3147Y1875D01*
X3169Y1875D02*
X3197Y1875D01*
X8Y1874D02*
X18Y1874D01*
X2868Y1874D02*
X2871Y1874D01*
X2896Y1874D02*
X2898Y1874D01*
X2918Y1874D02*
X2935Y1874D01*
X2981Y1874D02*
X2998Y1874D01*
X3018Y1874D02*
X3048Y1874D01*
X3071Y1874D02*
X3096Y1874D01*
X3121Y1874D02*
X3146Y1874D01*
X3171Y1874D02*
X3196Y1874D01*
X8Y1873D02*
X18Y1873D01*
X8Y1872D02*
X18Y1872D01*
X8Y1871D02*
X18Y1871D01*
X8Y1870D02*
X18Y1870D01*
X8Y1869D02*
X18Y1869D01*
X8Y1868D02*
X18Y1868D01*
X8Y1867D02*
X18Y1867D01*
X8Y1866D02*
X18Y1866D01*
X8Y1865D02*
X18Y1865D01*
X8Y1864D02*
X18Y1864D01*
X8Y1863D02*
X18Y1863D01*
X8Y1862D02*
X18Y1862D01*
X8Y1861D02*
X18Y1861D01*
X8Y1860D02*
X18Y1860D01*
X8Y1859D02*
X18Y1859D01*
X8Y1858D02*
X18Y1858D01*
X8Y1857D02*
X18Y1857D01*
X8Y1856D02*
X18Y1856D01*
X8Y1855D02*
X18Y1855D01*
X8Y1854D02*
X18Y1854D01*
X8Y1853D02*
X18Y1853D01*
X8Y1852D02*
X18Y1852D01*
X8Y1851D02*
X18Y1851D01*
X8Y1850D02*
X18Y1850D01*
X8Y1849D02*
X18Y1849D01*
X8Y1848D02*
X18Y1848D01*
X8Y1847D02*
X18Y1847D01*
X8Y1846D02*
X18Y1846D01*
X8Y1845D02*
X18Y1845D01*
X8Y1844D02*
X18Y1844D01*
X8Y1843D02*
X18Y1843D01*
X8Y1842D02*
X18Y1842D01*
X8Y1841D02*
X18Y1841D01*
X8Y1840D02*
X18Y1840D01*
X8Y1839D02*
X18Y1839D01*
X8Y1838D02*
X18Y1838D01*
X8Y1837D02*
X18Y1837D01*
X8Y1836D02*
X18Y1836D01*
X8Y1835D02*
X18Y1835D01*
X8Y1834D02*
X18Y1834D01*
X8Y1833D02*
X18Y1833D01*
X8Y1832D02*
X18Y1832D01*
X8Y1831D02*
X18Y1831D01*
X8Y1830D02*
X18Y1830D01*
X8Y1829D02*
X18Y1829D01*
X8Y1828D02*
X18Y1828D01*
X8Y1827D02*
X18Y1827D01*
X8Y1826D02*
X18Y1826D01*
X8Y1825D02*
X18Y1825D01*
X8Y1824D02*
X18Y1824D01*
X8Y1823D02*
X18Y1823D01*
X8Y1822D02*
X18Y1822D01*
X8Y1821D02*
X18Y1821D01*
X8Y1820D02*
X18Y1820D01*
X8Y1819D02*
X18Y1819D01*
X8Y1818D02*
X18Y1818D01*
X8Y1817D02*
X18Y1817D01*
X8Y1816D02*
X18Y1816D01*
X8Y1815D02*
X18Y1815D01*
X8Y1814D02*
X18Y1814D01*
X8Y1813D02*
X18Y1813D01*
X8Y1812D02*
X18Y1812D01*
X8Y1811D02*
X18Y1811D01*
X8Y1810D02*
X18Y1810D01*
X8Y1809D02*
X18Y1809D01*
X8Y1808D02*
X18Y1808D01*
X8Y1807D02*
X18Y1807D01*
X8Y1806D02*
X18Y1806D01*
X8Y1805D02*
X18Y1805D01*
X8Y1804D02*
X18Y1804D01*
X8Y1803D02*
X18Y1803D01*
X8Y1802D02*
X18Y1802D01*
X8Y1801D02*
X18Y1801D01*
X8Y1800D02*
X18Y1800D01*
X8Y1799D02*
X18Y1799D01*
X8Y1798D02*
X18Y1798D01*
X8Y1797D02*
X18Y1797D01*
X8Y1796D02*
X18Y1796D01*
X8Y1795D02*
X18Y1795D01*
X8Y1794D02*
X18Y1794D01*
X8Y1793D02*
X18Y1793D01*
X8Y1792D02*
X18Y1792D01*
X8Y1791D02*
X18Y1791D01*
X8Y1790D02*
X18Y1790D01*
X8Y1789D02*
X18Y1789D01*
X8Y1788D02*
X18Y1788D01*
X8Y1787D02*
X18Y1787D01*
X8Y1786D02*
X18Y1786D01*
X8Y1785D02*
X18Y1785D01*
X8Y1784D02*
X18Y1784D01*
X8Y1783D02*
X18Y1783D01*
X8Y1782D02*
X18Y1782D01*
X8Y1781D02*
X18Y1781D01*
X8Y1780D02*
X18Y1780D01*
X8Y1779D02*
X18Y1779D01*
X8Y1778D02*
X18Y1778D01*
X8Y1777D02*
X18Y1777D01*
X8Y1776D02*
X18Y1776D01*
X8Y1775D02*
X18Y1775D01*
X8Y1774D02*
X18Y1774D01*
X8Y1773D02*
X18Y1773D01*
X8Y1772D02*
X18Y1772D01*
X8Y1771D02*
X18Y1771D01*
X8Y1770D02*
X18Y1770D01*
X8Y1769D02*
X18Y1769D01*
X8Y1768D02*
X18Y1768D01*
X8Y1767D02*
X18Y1767D01*
X8Y1766D02*
X18Y1766D01*
X8Y1765D02*
X18Y1765D01*
X8Y1764D02*
X18Y1764D01*
X8Y1763D02*
X18Y1763D01*
X8Y1762D02*
X18Y1762D01*
X8Y1761D02*
X18Y1761D01*
X8Y1760D02*
X18Y1760D01*
X8Y1759D02*
X18Y1759D01*
X8Y1758D02*
X18Y1758D01*
X8Y1757D02*
X18Y1757D01*
X8Y1756D02*
X18Y1756D01*
X8Y1755D02*
X18Y1755D01*
X8Y1754D02*
X18Y1754D01*
X8Y1753D02*
X18Y1753D01*
X8Y1752D02*
X18Y1752D01*
X8Y1751D02*
X18Y1751D01*
X8Y1750D02*
X18Y1750D01*
X8Y1749D02*
X18Y1749D01*
X8Y1748D02*
X18Y1748D01*
X8Y1747D02*
X18Y1747D01*
X8Y1746D02*
X18Y1746D01*
X8Y1745D02*
X18Y1745D01*
X8Y1744D02*
X18Y1744D01*
X8Y1743D02*
X18Y1743D01*
X8Y1742D02*
X18Y1742D01*
X8Y1741D02*
X18Y1741D01*
X8Y1740D02*
X18Y1740D01*
X8Y1739D02*
X18Y1739D01*
X8Y1738D02*
X18Y1738D01*
X8Y1737D02*
X18Y1737D01*
X8Y1736D02*
X18Y1736D01*
X8Y1735D02*
X18Y1735D01*
X8Y1734D02*
X18Y1734D01*
X8Y1733D02*
X18Y1733D01*
X8Y1732D02*
X18Y1732D01*
X8Y1731D02*
X18Y1731D01*
X8Y1730D02*
X18Y1730D01*
X8Y1729D02*
X18Y1729D01*
X8Y1728D02*
X18Y1728D01*
X8Y1727D02*
X18Y1727D01*
X8Y1726D02*
X18Y1726D01*
X8Y1725D02*
X18Y1725D01*
X8Y1724D02*
X18Y1724D01*
X8Y1723D02*
X18Y1723D01*
X8Y1722D02*
X18Y1722D01*
X8Y1721D02*
X18Y1721D01*
X8Y1720D02*
X18Y1720D01*
X8Y1719D02*
X18Y1719D01*
X8Y1718D02*
X18Y1718D01*
X8Y1717D02*
X18Y1717D01*
X8Y1716D02*
X18Y1716D01*
X8Y1715D02*
X18Y1715D01*
X8Y1714D02*
X18Y1714D01*
X8Y1713D02*
X18Y1713D01*
X8Y1712D02*
X18Y1712D01*
X8Y1711D02*
X18Y1711D01*
X8Y1710D02*
X18Y1710D01*
X8Y1709D02*
X18Y1709D01*
X8Y1708D02*
X18Y1708D01*
X8Y1707D02*
X18Y1707D01*
X8Y1706D02*
X18Y1706D01*
X8Y1705D02*
X18Y1705D01*
X8Y1704D02*
X18Y1704D01*
X8Y1703D02*
X18Y1703D01*
X8Y1702D02*
X18Y1702D01*
X8Y1701D02*
X18Y1701D01*
X8Y1700D02*
X18Y1700D01*
X8Y1699D02*
X18Y1699D01*
X8Y1698D02*
X18Y1698D01*
X8Y1697D02*
X18Y1697D01*
X8Y1696D02*
X18Y1696D01*
X8Y1695D02*
X18Y1695D01*
X8Y1694D02*
X18Y1694D01*
X8Y1693D02*
X18Y1693D01*
X8Y1692D02*
X18Y1692D01*
X8Y1691D02*
X18Y1691D01*
X8Y1690D02*
X18Y1690D01*
X8Y1689D02*
X18Y1689D01*
X8Y1688D02*
X18Y1688D01*
X8Y1687D02*
X18Y1687D01*
X8Y1686D02*
X18Y1686D01*
X8Y1685D02*
X18Y1685D01*
X8Y1684D02*
X18Y1684D01*
X8Y1683D02*
X18Y1683D01*
X8Y1682D02*
X18Y1682D01*
X8Y1681D02*
X18Y1681D01*
X8Y1680D02*
X18Y1680D01*
X8Y1679D02*
X18Y1679D01*
X8Y1678D02*
X18Y1678D01*
X8Y1677D02*
X18Y1677D01*
X8Y1676D02*
X18Y1676D01*
X8Y1675D02*
X18Y1675D01*
X8Y1674D02*
X18Y1674D01*
X8Y1673D02*
X18Y1673D01*
X8Y1672D02*
X18Y1672D01*
X8Y1671D02*
X18Y1671D01*
X8Y1670D02*
X18Y1670D01*
X8Y1669D02*
X18Y1669D01*
X8Y1668D02*
X18Y1668D01*
X8Y1667D02*
X18Y1667D01*
X8Y1666D02*
X18Y1666D01*
X8Y1665D02*
X18Y1665D01*
X8Y1664D02*
X18Y1664D01*
X8Y1663D02*
X18Y1663D01*
X8Y1662D02*
X18Y1662D01*
X8Y1661D02*
X18Y1661D01*
X8Y1660D02*
X18Y1660D01*
X8Y1659D02*
X18Y1659D01*
X8Y1658D02*
X18Y1658D01*
X8Y1657D02*
X18Y1657D01*
X8Y1656D02*
X18Y1656D01*
X8Y1655D02*
X18Y1655D01*
X8Y1654D02*
X18Y1654D01*
X8Y1653D02*
X18Y1653D01*
X8Y1652D02*
X18Y1652D01*
X8Y1651D02*
X18Y1651D01*
X8Y1650D02*
X18Y1650D01*
X8Y1649D02*
X18Y1649D01*
X8Y1648D02*
X18Y1648D01*
X8Y1647D02*
X18Y1647D01*
X8Y1646D02*
X18Y1646D01*
X8Y1645D02*
X18Y1645D01*
X8Y1644D02*
X18Y1644D01*
X8Y1643D02*
X18Y1643D01*
X8Y1642D02*
X18Y1642D01*
X8Y1641D02*
X18Y1641D01*
X8Y1640D02*
X18Y1640D01*
X8Y1639D02*
X18Y1639D01*
X8Y1638D02*
X18Y1638D01*
X8Y1637D02*
X18Y1637D01*
X8Y1636D02*
X18Y1636D01*
X8Y1635D02*
X18Y1635D01*
X8Y1634D02*
X18Y1634D01*
X8Y1633D02*
X18Y1633D01*
X8Y1632D02*
X18Y1632D01*
X8Y1631D02*
X18Y1631D01*
X8Y1630D02*
X18Y1630D01*
X8Y1629D02*
X18Y1629D01*
X8Y1628D02*
X18Y1628D01*
X8Y1627D02*
X18Y1627D01*
X8Y1626D02*
X18Y1626D01*
X8Y1625D02*
X18Y1625D01*
X8Y1624D02*
X18Y1624D01*
X8Y1623D02*
X18Y1623D01*
X8Y1622D02*
X18Y1622D01*
X8Y1621D02*
X18Y1621D01*
X8Y1620D02*
X18Y1620D01*
X8Y1619D02*
X18Y1619D01*
X8Y1618D02*
X18Y1618D01*
X8Y1617D02*
X18Y1617D01*
X8Y1616D02*
X18Y1616D01*
X8Y1615D02*
X18Y1615D01*
X8Y1614D02*
X18Y1614D01*
X8Y1613D02*
X18Y1613D01*
X8Y1612D02*
X18Y1612D01*
X8Y1611D02*
X18Y1611D01*
X8Y1610D02*
X18Y1610D01*
X8Y1609D02*
X18Y1609D01*
X8Y1608D02*
X18Y1608D01*
X8Y1607D02*
X18Y1607D01*
X8Y1606D02*
X18Y1606D01*
X8Y1605D02*
X18Y1605D01*
X8Y1604D02*
X18Y1604D01*
X8Y1603D02*
X18Y1603D01*
X8Y1602D02*
X18Y1602D01*
X8Y1601D02*
X18Y1601D01*
X8Y1600D02*
X18Y1600D01*
X8Y1599D02*
X18Y1599D01*
X8Y1598D02*
X18Y1598D01*
X8Y1597D02*
X18Y1597D01*
X8Y1596D02*
X18Y1596D01*
X8Y1595D02*
X18Y1595D01*
X8Y1594D02*
X18Y1594D01*
X8Y1593D02*
X18Y1593D01*
X8Y1592D02*
X18Y1592D01*
X8Y1591D02*
X18Y1591D01*
X8Y1590D02*
X18Y1590D01*
X8Y1589D02*
X18Y1589D01*
X8Y1588D02*
X18Y1588D01*
X8Y1587D02*
X18Y1587D01*
X8Y1586D02*
X18Y1586D01*
X8Y1585D02*
X18Y1585D01*
X8Y1584D02*
X18Y1584D01*
X8Y1583D02*
X18Y1583D01*
X8Y1582D02*
X18Y1582D01*
X8Y1581D02*
X18Y1581D01*
X8Y1580D02*
X18Y1580D01*
X8Y1579D02*
X18Y1579D01*
X8Y1578D02*
X18Y1578D01*
X8Y1577D02*
X18Y1577D01*
X8Y1576D02*
X18Y1576D01*
X8Y1575D02*
X18Y1575D01*
X8Y1574D02*
X18Y1574D01*
X8Y1573D02*
X18Y1573D01*
X8Y1572D02*
X18Y1572D01*
X8Y1571D02*
X18Y1571D01*
X8Y1570D02*
X18Y1570D01*
X8Y1569D02*
X18Y1569D01*
X8Y1568D02*
X18Y1568D01*
X8Y1567D02*
X18Y1567D01*
X8Y1566D02*
X18Y1566D01*
X8Y1565D02*
X18Y1565D01*
X8Y1564D02*
X18Y1564D01*
X8Y1563D02*
X18Y1563D01*
X8Y1562D02*
X18Y1562D01*
X8Y1561D02*
X18Y1561D01*
X8Y1560D02*
X18Y1560D01*
X8Y1559D02*
X18Y1559D01*
X8Y1558D02*
X18Y1558D01*
X8Y1557D02*
X18Y1557D01*
X8Y1556D02*
X18Y1556D01*
X8Y1555D02*
X18Y1555D01*
X8Y1554D02*
X18Y1554D01*
X8Y1553D02*
X18Y1553D01*
X8Y1552D02*
X18Y1552D01*
X8Y1551D02*
X18Y1551D01*
X8Y1550D02*
X18Y1550D01*
X8Y1549D02*
X18Y1549D01*
X8Y1548D02*
X18Y1548D01*
X8Y1547D02*
X18Y1547D01*
X8Y1546D02*
X18Y1546D01*
X8Y1545D02*
X18Y1545D01*
X8Y1544D02*
X18Y1544D01*
X8Y1543D02*
X18Y1543D01*
X8Y1542D02*
X18Y1542D01*
X8Y1541D02*
X18Y1541D01*
X8Y1540D02*
X18Y1540D01*
X8Y1539D02*
X18Y1539D01*
X8Y1538D02*
X18Y1538D01*
X8Y1537D02*
X18Y1537D01*
X8Y1536D02*
X18Y1536D01*
X8Y1535D02*
X18Y1535D01*
X8Y1534D02*
X18Y1534D01*
X8Y1533D02*
X18Y1533D01*
X8Y1532D02*
X18Y1532D01*
X8Y1531D02*
X18Y1531D01*
X8Y1530D02*
X18Y1530D01*
X8Y1529D02*
X18Y1529D01*
X8Y1528D02*
X18Y1528D01*
X8Y1527D02*
X18Y1527D01*
X8Y1526D02*
X18Y1526D01*
X8Y1525D02*
X18Y1525D01*
X8Y1524D02*
X18Y1524D01*
X8Y1523D02*
X18Y1523D01*
X8Y1522D02*
X18Y1522D01*
X8Y1521D02*
X18Y1521D01*
X8Y1520D02*
X18Y1520D01*
X8Y1519D02*
X18Y1519D01*
X8Y1518D02*
X18Y1518D01*
X8Y1517D02*
X18Y1517D01*
X8Y1516D02*
X18Y1516D01*
X8Y1515D02*
X18Y1515D01*
X8Y1514D02*
X18Y1514D01*
X8Y1513D02*
X18Y1513D01*
X8Y1512D02*
X18Y1512D01*
X8Y1511D02*
X18Y1511D01*
X8Y1510D02*
X18Y1510D01*
X8Y1509D02*
X18Y1509D01*
X8Y1508D02*
X18Y1508D01*
X8Y1507D02*
X18Y1507D01*
X8Y1506D02*
X18Y1506D01*
X8Y1505D02*
X18Y1505D01*
X8Y1504D02*
X18Y1504D01*
X8Y1503D02*
X18Y1503D01*
X8Y1502D02*
X18Y1502D01*
X8Y1501D02*
X18Y1501D01*
X8Y1500D02*
X18Y1500D01*
X8Y1499D02*
X18Y1499D01*
X8Y1498D02*
X18Y1498D01*
X8Y1497D02*
X18Y1497D01*
X8Y1496D02*
X18Y1496D01*
X8Y1495D02*
X18Y1495D01*
X8Y1494D02*
X18Y1494D01*
X8Y1493D02*
X18Y1493D01*
X8Y1492D02*
X18Y1492D01*
X8Y1491D02*
X18Y1491D01*
X8Y1490D02*
X18Y1490D01*
X8Y1489D02*
X18Y1489D01*
X8Y1488D02*
X18Y1488D01*
X8Y1487D02*
X18Y1487D01*
X8Y1486D02*
X18Y1486D01*
X8Y1485D02*
X18Y1485D01*
X8Y1484D02*
X18Y1484D01*
X8Y1483D02*
X18Y1483D01*
X8Y1482D02*
X18Y1482D01*
X8Y1481D02*
X18Y1481D01*
X8Y1480D02*
X18Y1480D01*
X8Y1479D02*
X18Y1479D01*
X8Y1478D02*
X18Y1478D01*
X8Y1477D02*
X18Y1477D01*
X8Y1476D02*
X18Y1476D01*
X8Y1475D02*
X18Y1475D01*
X8Y1474D02*
X18Y1474D01*
X8Y1473D02*
X18Y1473D01*
X8Y1472D02*
X18Y1472D01*
X8Y1471D02*
X18Y1471D01*
X8Y1470D02*
X18Y1470D01*
X8Y1469D02*
X18Y1469D01*
X8Y1468D02*
X18Y1468D01*
X8Y1467D02*
X18Y1467D01*
X8Y1466D02*
X18Y1466D01*
X8Y1465D02*
X18Y1465D01*
X8Y1464D02*
X18Y1464D01*
X8Y1463D02*
X18Y1463D01*
X8Y1462D02*
X18Y1462D01*
X8Y1461D02*
X18Y1461D01*
X8Y1460D02*
X18Y1460D01*
X8Y1459D02*
X18Y1459D01*
X8Y1458D02*
X18Y1458D01*
X8Y1457D02*
X18Y1457D01*
X8Y1456D02*
X18Y1456D01*
X8Y1455D02*
X18Y1455D01*
X8Y1454D02*
X18Y1454D01*
X8Y1453D02*
X18Y1453D01*
X8Y1452D02*
X18Y1452D01*
X8Y1451D02*
X18Y1451D01*
X8Y1450D02*
X18Y1450D01*
X8Y1449D02*
X18Y1449D01*
X8Y1448D02*
X18Y1448D01*
X8Y1447D02*
X18Y1447D01*
X8Y1446D02*
X18Y1446D01*
X8Y1445D02*
X18Y1445D01*
X8Y1444D02*
X18Y1444D01*
X8Y1443D02*
X18Y1443D01*
X8Y1442D02*
X18Y1442D01*
X8Y1441D02*
X18Y1441D01*
X8Y1440D02*
X18Y1440D01*
X8Y1439D02*
X18Y1439D01*
X8Y1438D02*
X18Y1438D01*
X8Y1437D02*
X18Y1437D01*
X8Y1436D02*
X18Y1436D01*
X8Y1435D02*
X18Y1435D01*
X8Y1434D02*
X18Y1434D01*
X8Y1433D02*
X18Y1433D01*
X8Y1432D02*
X18Y1432D01*
X8Y1431D02*
X18Y1431D01*
X8Y1430D02*
X18Y1430D01*
X8Y1429D02*
X18Y1429D01*
X8Y1428D02*
X18Y1428D01*
X8Y1427D02*
X18Y1427D01*
X8Y1426D02*
X18Y1426D01*
X8Y1425D02*
X18Y1425D01*
X8Y1424D02*
X18Y1424D01*
X8Y1423D02*
X18Y1423D01*
X8Y1422D02*
X18Y1422D01*
X8Y1421D02*
X18Y1421D01*
X8Y1420D02*
X18Y1420D01*
X8Y1419D02*
X18Y1419D01*
X8Y1418D02*
X18Y1418D01*
X8Y1417D02*
X18Y1417D01*
X8Y1416D02*
X18Y1416D01*
X8Y1415D02*
X18Y1415D01*
X8Y1414D02*
X18Y1414D01*
X8Y1413D02*
X18Y1413D01*
X8Y1412D02*
X18Y1412D01*
X8Y1411D02*
X18Y1411D01*
X8Y1410D02*
X18Y1410D01*
X8Y1409D02*
X18Y1409D01*
X8Y1408D02*
X18Y1408D01*
X8Y1407D02*
X18Y1407D01*
X8Y1406D02*
X18Y1406D01*
X8Y1405D02*
X18Y1405D01*
X8Y1404D02*
X18Y1404D01*
X8Y1403D02*
X18Y1403D01*
X8Y1402D02*
X18Y1402D01*
X8Y1401D02*
X18Y1401D01*
X8Y1400D02*
X18Y1400D01*
X8Y1399D02*
X18Y1399D01*
X8Y1398D02*
X18Y1398D01*
X8Y1397D02*
X18Y1397D01*
X8Y1396D02*
X18Y1396D01*
X8Y1395D02*
X18Y1395D01*
X8Y1394D02*
X18Y1394D01*
X8Y1393D02*
X18Y1393D01*
X8Y1392D02*
X18Y1392D01*
X8Y1391D02*
X18Y1391D01*
X8Y1390D02*
X18Y1390D01*
X8Y1389D02*
X18Y1389D01*
X8Y1388D02*
X18Y1388D01*
X8Y1387D02*
X18Y1387D01*
X8Y1386D02*
X18Y1386D01*
X8Y1385D02*
X18Y1385D01*
X8Y1384D02*
X18Y1384D01*
X8Y1383D02*
X18Y1383D01*
X8Y1382D02*
X18Y1382D01*
X8Y1381D02*
X18Y1381D01*
X8Y1380D02*
X18Y1380D01*
X8Y1379D02*
X18Y1379D01*
X8Y1378D02*
X18Y1378D01*
X8Y1377D02*
X18Y1377D01*
X8Y1376D02*
X18Y1376D01*
X8Y1375D02*
X18Y1375D01*
X8Y1374D02*
X18Y1374D01*
X8Y1373D02*
X18Y1373D01*
X8Y1372D02*
X18Y1372D01*
X8Y1371D02*
X18Y1371D01*
X8Y1370D02*
X18Y1370D01*
X8Y1369D02*
X18Y1369D01*
X8Y1368D02*
X18Y1368D01*
X8Y1367D02*
X18Y1367D01*
X8Y1366D02*
X18Y1366D01*
X8Y1365D02*
X18Y1365D01*
X8Y1364D02*
X18Y1364D01*
X8Y1363D02*
X18Y1363D01*
X8Y1362D02*
X18Y1362D01*
X8Y1361D02*
X18Y1361D01*
X8Y1360D02*
X18Y1360D01*
X8Y1359D02*
X18Y1359D01*
X8Y1358D02*
X18Y1358D01*
X8Y1357D02*
X18Y1357D01*
X8Y1356D02*
X18Y1356D01*
X8Y1355D02*
X18Y1355D01*
X8Y1354D02*
X18Y1354D01*
X8Y1353D02*
X18Y1353D01*
X8Y1352D02*
X18Y1352D01*
X8Y1351D02*
X18Y1351D01*
X8Y1350D02*
X18Y1350D01*
X8Y1349D02*
X18Y1349D01*
X8Y1348D02*
X18Y1348D01*
X8Y1347D02*
X18Y1347D01*
X8Y1346D02*
X18Y1346D01*
X8Y1345D02*
X18Y1345D01*
X8Y1344D02*
X18Y1344D01*
X8Y1343D02*
X18Y1343D01*
X8Y1342D02*
X18Y1342D01*
X8Y1341D02*
X18Y1341D01*
X8Y1340D02*
X18Y1340D01*
X8Y1339D02*
X18Y1339D01*
X8Y1338D02*
X18Y1338D01*
X8Y1337D02*
X18Y1337D01*
X8Y1336D02*
X18Y1336D01*
X8Y1335D02*
X18Y1335D01*
X8Y1334D02*
X18Y1334D01*
X8Y1333D02*
X18Y1333D01*
X8Y1332D02*
X18Y1332D01*
X8Y1331D02*
X18Y1331D01*
X8Y1330D02*
X18Y1330D01*
X8Y1329D02*
X18Y1329D01*
X8Y1328D02*
X18Y1328D01*
X8Y1327D02*
X18Y1327D01*
X8Y1326D02*
X18Y1326D01*
X8Y1325D02*
X18Y1325D01*
X8Y1324D02*
X18Y1324D01*
X8Y1323D02*
X18Y1323D01*
X8Y1322D02*
X18Y1322D01*
X8Y1321D02*
X18Y1321D01*
X8Y1320D02*
X18Y1320D01*
X8Y1319D02*
X18Y1319D01*
X8Y1318D02*
X18Y1318D01*
X8Y1317D02*
X18Y1317D01*
X8Y1316D02*
X18Y1316D01*
X8Y1315D02*
X18Y1315D01*
X8Y1314D02*
X18Y1314D01*
X8Y1313D02*
X18Y1313D01*
X8Y1312D02*
X18Y1312D01*
X8Y1311D02*
X18Y1311D01*
X8Y1310D02*
X18Y1310D01*
X8Y1309D02*
X18Y1309D01*
X8Y1308D02*
X18Y1308D01*
X8Y1307D02*
X18Y1307D01*
X8Y1306D02*
X18Y1306D01*
X8Y1305D02*
X18Y1305D01*
X8Y1304D02*
X18Y1304D01*
X8Y1303D02*
X18Y1303D01*
X8Y1302D02*
X18Y1302D01*
X8Y1301D02*
X18Y1301D01*
X8Y1300D02*
X18Y1300D01*
X8Y1299D02*
X18Y1299D01*
X8Y1298D02*
X18Y1298D01*
X8Y1297D02*
X18Y1297D01*
X8Y1296D02*
X18Y1296D01*
X8Y1295D02*
X18Y1295D01*
X8Y1294D02*
X18Y1294D01*
X8Y1293D02*
X18Y1293D01*
X8Y1292D02*
X18Y1292D01*
X8Y1291D02*
X18Y1291D01*
X8Y1290D02*
X18Y1290D01*
X8Y1289D02*
X18Y1289D01*
X8Y1288D02*
X18Y1288D01*
X8Y1287D02*
X18Y1287D01*
X8Y1286D02*
X18Y1286D01*
X8Y1285D02*
X18Y1285D01*
X8Y1284D02*
X18Y1284D01*
X8Y1283D02*
X18Y1283D01*
X8Y1282D02*
X18Y1282D01*
X8Y1281D02*
X18Y1281D01*
X8Y1280D02*
X18Y1280D01*
X8Y1279D02*
X18Y1279D01*
X8Y1278D02*
X18Y1278D01*
X8Y1277D02*
X18Y1277D01*
X8Y1276D02*
X18Y1276D01*
X8Y1275D02*
X18Y1275D01*
X8Y1274D02*
X18Y1274D01*
X8Y1273D02*
X18Y1273D01*
X8Y1272D02*
X18Y1272D01*
X8Y1271D02*
X18Y1271D01*
X8Y1270D02*
X18Y1270D01*
X8Y1269D02*
X18Y1269D01*
X8Y1268D02*
X18Y1268D01*
X8Y1267D02*
X18Y1267D01*
X8Y1266D02*
X18Y1266D01*
X8Y1265D02*
X18Y1265D01*
X8Y1264D02*
X18Y1264D01*
X8Y1263D02*
X18Y1263D01*
X8Y1262D02*
X18Y1262D01*
X8Y1261D02*
X18Y1261D01*
X8Y1260D02*
X18Y1260D01*
X8Y1259D02*
X18Y1259D01*
X8Y1258D02*
X18Y1258D01*
X8Y1257D02*
X18Y1257D01*
X8Y1256D02*
X18Y1256D01*
X8Y1255D02*
X18Y1255D01*
X8Y1254D02*
X18Y1254D01*
X8Y1253D02*
X18Y1253D01*
X8Y1252D02*
X18Y1252D01*
X1293Y1252D02*
X1295Y1252D01*
X1331Y1252D02*
X1333Y1252D01*
X8Y1251D02*
X18Y1251D01*
X1291Y1251D02*
X1297Y1251D01*
X1328Y1251D02*
X1335Y1251D01*
X8Y1250D02*
X18Y1250D01*
X1289Y1250D02*
X1298Y1250D01*
X1326Y1250D02*
X1337Y1250D01*
X8Y1249D02*
X18Y1249D01*
X1288Y1249D02*
X1298Y1249D01*
X1325Y1249D02*
X1338Y1249D01*
X8Y1248D02*
X18Y1248D01*
X1287Y1248D02*
X1298Y1248D01*
X1324Y1248D02*
X1338Y1248D01*
X8Y1247D02*
X18Y1247D01*
X1287Y1247D02*
X1297Y1247D01*
X1323Y1247D02*
X1339Y1247D01*
X8Y1246D02*
X18Y1246D01*
X1286Y1246D02*
X1296Y1246D01*
X1321Y1246D02*
X1339Y1246D01*
X8Y1245D02*
X18Y1245D01*
X1286Y1245D02*
X1293Y1245D01*
X1320Y1245D02*
X1331Y1245D01*
X1333Y1245D02*
X1339Y1245D01*
X8Y1244D02*
X18Y1244D01*
X1286Y1244D02*
X1292Y1244D01*
X1319Y1244D02*
X1329Y1244D01*
X1333Y1244D02*
X1339Y1244D01*
X8Y1243D02*
X18Y1243D01*
X1286Y1243D02*
X1292Y1243D01*
X1317Y1243D02*
X1328Y1243D01*
X1333Y1243D02*
X1339Y1243D01*
X8Y1242D02*
X18Y1242D01*
X1286Y1242D02*
X1292Y1242D01*
X1316Y1242D02*
X1327Y1242D01*
X1333Y1242D02*
X1339Y1242D01*
X8Y1241D02*
X18Y1241D01*
X1286Y1241D02*
X1292Y1241D01*
X1315Y1241D02*
X1325Y1241D01*
X1333Y1241D02*
X1339Y1241D01*
X8Y1240D02*
X18Y1240D01*
X1286Y1240D02*
X1292Y1240D01*
X1314Y1240D02*
X1324Y1240D01*
X1333Y1240D02*
X1339Y1240D01*
X8Y1239D02*
X18Y1239D01*
X1286Y1239D02*
X1292Y1239D01*
X1312Y1239D02*
X1323Y1239D01*
X1333Y1239D02*
X1339Y1239D01*
X8Y1238D02*
X18Y1238D01*
X1286Y1238D02*
X1292Y1238D01*
X1311Y1238D02*
X1322Y1238D01*
X1333Y1238D02*
X1339Y1238D01*
X8Y1237D02*
X18Y1237D01*
X1286Y1237D02*
X1292Y1237D01*
X1310Y1237D02*
X1320Y1237D01*
X1333Y1237D02*
X1339Y1237D01*
X8Y1236D02*
X18Y1236D01*
X1286Y1236D02*
X1292Y1236D01*
X1308Y1236D02*
X1319Y1236D01*
X1333Y1236D02*
X1339Y1236D01*
X8Y1235D02*
X18Y1235D01*
X1286Y1235D02*
X1292Y1235D01*
X1307Y1235D02*
X1318Y1235D01*
X1333Y1235D02*
X1339Y1235D01*
X8Y1234D02*
X18Y1234D01*
X1286Y1234D02*
X1292Y1234D01*
X1306Y1234D02*
X1316Y1234D01*
X1333Y1234D02*
X1339Y1234D01*
X8Y1233D02*
X18Y1233D01*
X1286Y1233D02*
X1292Y1233D01*
X1305Y1233D02*
X1315Y1233D01*
X1333Y1233D02*
X1339Y1233D01*
X8Y1232D02*
X18Y1232D01*
X1286Y1232D02*
X1292Y1232D01*
X1303Y1232D02*
X1314Y1232D01*
X1333Y1232D02*
X1339Y1232D01*
X8Y1231D02*
X18Y1231D01*
X1286Y1231D02*
X1292Y1231D01*
X1302Y1231D02*
X1313Y1231D01*
X1333Y1231D02*
X1339Y1231D01*
X8Y1230D02*
X18Y1230D01*
X1286Y1230D02*
X1292Y1230D01*
X1301Y1230D02*
X1311Y1230D01*
X1333Y1230D02*
X1339Y1230D01*
X8Y1229D02*
X18Y1229D01*
X1286Y1229D02*
X1292Y1229D01*
X1299Y1229D02*
X1310Y1229D01*
X1333Y1229D02*
X1339Y1229D01*
X8Y1228D02*
X18Y1228D01*
X1286Y1228D02*
X1292Y1228D01*
X1298Y1228D02*
X1309Y1228D01*
X1333Y1228D02*
X1339Y1228D01*
X8Y1227D02*
X18Y1227D01*
X1286Y1227D02*
X1292Y1227D01*
X1297Y1227D02*
X1307Y1227D01*
X1333Y1227D02*
X1339Y1227D01*
X8Y1226D02*
X18Y1226D01*
X1286Y1226D02*
X1292Y1226D01*
X1296Y1226D02*
X1306Y1226D01*
X1333Y1226D02*
X1339Y1226D01*
X8Y1225D02*
X18Y1225D01*
X1286Y1225D02*
X1292Y1225D01*
X1294Y1225D02*
X1305Y1225D01*
X1332Y1225D02*
X1339Y1225D01*
X8Y1224D02*
X18Y1224D01*
X1286Y1224D02*
X1304Y1224D01*
X1329Y1224D02*
X1338Y1224D01*
X8Y1223D02*
X18Y1223D01*
X1286Y1223D02*
X1302Y1223D01*
X1328Y1223D02*
X1338Y1223D01*
X8Y1222D02*
X18Y1222D01*
X1287Y1222D02*
X1301Y1222D01*
X1327Y1222D02*
X1337Y1222D01*
X8Y1221D02*
X18Y1221D01*
X1287Y1221D02*
X1300Y1221D01*
X1327Y1221D02*
X1337Y1221D01*
X8Y1220D02*
X18Y1220D01*
X1288Y1220D02*
X1298Y1220D01*
X1327Y1220D02*
X1336Y1220D01*
X8Y1219D02*
X18Y1219D01*
X1290Y1219D02*
X1297Y1219D01*
X1328Y1219D02*
X1334Y1219D01*
X8Y1218D02*
X18Y1218D01*
X1292Y1218D02*
X1295Y1218D01*
X1329Y1218D02*
X1332Y1218D01*
X8Y1217D02*
X18Y1217D01*
X8Y1216D02*
X18Y1216D01*
X8Y1215D02*
X18Y1215D01*
X8Y1214D02*
X18Y1214D01*
X8Y1213D02*
X18Y1213D01*
X8Y1212D02*
X18Y1212D01*
X8Y1211D02*
X18Y1211D01*
X8Y1210D02*
X18Y1210D01*
X8Y1209D02*
X18Y1209D01*
X8Y1208D02*
X18Y1208D01*
X8Y1207D02*
X18Y1207D01*
X8Y1206D02*
X18Y1206D01*
X8Y1205D02*
X18Y1205D01*
X8Y1204D02*
X18Y1204D01*
X8Y1203D02*
X18Y1203D01*
X8Y1202D02*
X18Y1202D01*
X1296Y1202D02*
X1314Y1202D01*
X8Y1201D02*
X18Y1201D01*
X1293Y1201D02*
X1317Y1201D01*
X8Y1200D02*
X18Y1200D01*
X1292Y1200D02*
X1318Y1200D01*
X8Y1199D02*
X18Y1199D01*
X1291Y1199D02*
X1319Y1199D01*
X8Y1198D02*
X18Y1198D01*
X1290Y1198D02*
X1320Y1198D01*
X8Y1197D02*
X18Y1197D01*
X1289Y1197D02*
X1321Y1197D01*
X8Y1196D02*
X18Y1196D01*
X1288Y1196D02*
X1322Y1196D01*
X8Y1195D02*
X18Y1195D01*
X1288Y1195D02*
X1297Y1195D01*
X1300Y1195D02*
X1307Y1195D01*
X1314Y1195D02*
X1323Y1195D01*
X8Y1194D02*
X18Y1194D01*
X1287Y1194D02*
X1295Y1194D01*
X1301Y1194D02*
X1307Y1194D01*
X1315Y1194D02*
X1323Y1194D01*
X8Y1193D02*
X18Y1193D01*
X1287Y1193D02*
X1294Y1193D01*
X1301Y1193D02*
X1307Y1193D01*
X1316Y1193D02*
X1324Y1193D01*
X8Y1192D02*
X18Y1192D01*
X1286Y1192D02*
X1293Y1192D01*
X1301Y1192D02*
X1307Y1192D01*
X1317Y1192D02*
X1324Y1192D01*
X8Y1191D02*
X18Y1191D01*
X1286Y1191D02*
X1292Y1191D01*
X1301Y1191D02*
X1307Y1191D01*
X1318Y1191D02*
X1324Y1191D01*
X8Y1190D02*
X18Y1190D01*
X1286Y1190D02*
X1292Y1190D01*
X1301Y1190D02*
X1307Y1190D01*
X1318Y1190D02*
X1324Y1190D01*
X8Y1189D02*
X18Y1189D01*
X1286Y1189D02*
X1292Y1189D01*
X1301Y1189D02*
X1307Y1189D01*
X1318Y1189D02*
X1324Y1189D01*
X8Y1188D02*
X18Y1188D01*
X1286Y1188D02*
X1292Y1188D01*
X1301Y1188D02*
X1307Y1188D01*
X1318Y1188D02*
X1324Y1188D01*
X8Y1187D02*
X18Y1187D01*
X1286Y1187D02*
X1292Y1187D01*
X1301Y1187D02*
X1307Y1187D01*
X1318Y1187D02*
X1324Y1187D01*
X8Y1186D02*
X18Y1186D01*
X1286Y1186D02*
X1292Y1186D01*
X1301Y1186D02*
X1307Y1186D01*
X1318Y1186D02*
X1324Y1186D01*
X8Y1185D02*
X18Y1185D01*
X1286Y1185D02*
X1292Y1185D01*
X1301Y1185D02*
X1307Y1185D01*
X1318Y1185D02*
X1324Y1185D01*
X8Y1184D02*
X18Y1184D01*
X1286Y1184D02*
X1292Y1184D01*
X1301Y1184D02*
X1307Y1184D01*
X1318Y1184D02*
X1324Y1184D01*
X8Y1183D02*
X18Y1183D01*
X1286Y1183D02*
X1292Y1183D01*
X1301Y1183D02*
X1307Y1183D01*
X1318Y1183D02*
X1324Y1183D01*
X8Y1182D02*
X18Y1182D01*
X1286Y1182D02*
X1292Y1182D01*
X1301Y1182D02*
X1307Y1182D01*
X1318Y1182D02*
X1324Y1182D01*
X8Y1181D02*
X18Y1181D01*
X1286Y1181D02*
X1292Y1181D01*
X1301Y1181D02*
X1307Y1181D01*
X1318Y1181D02*
X1324Y1181D01*
X8Y1180D02*
X18Y1180D01*
X1286Y1180D02*
X1292Y1180D01*
X1301Y1180D02*
X1307Y1180D01*
X1318Y1180D02*
X1324Y1180D01*
X8Y1179D02*
X18Y1179D01*
X1286Y1179D02*
X1292Y1179D01*
X1301Y1179D02*
X1307Y1179D01*
X1318Y1179D02*
X1324Y1179D01*
X8Y1178D02*
X18Y1178D01*
X1286Y1178D02*
X1292Y1178D01*
X1301Y1178D02*
X1307Y1178D01*
X1317Y1178D02*
X1324Y1178D01*
X8Y1177D02*
X18Y1177D01*
X1286Y1177D02*
X1292Y1177D01*
X1301Y1177D02*
X1307Y1177D01*
X1317Y1177D02*
X1324Y1177D01*
X8Y1176D02*
X18Y1176D01*
X1286Y1176D02*
X1292Y1176D01*
X1301Y1176D02*
X1307Y1176D01*
X1316Y1176D02*
X1323Y1176D01*
X8Y1175D02*
X18Y1175D01*
X1286Y1175D02*
X1292Y1175D01*
X1301Y1175D02*
X1307Y1175D01*
X1314Y1175D02*
X1323Y1175D01*
X8Y1174D02*
X18Y1174D01*
X1286Y1174D02*
X1292Y1174D01*
X1301Y1174D02*
X1322Y1174D01*
X8Y1173D02*
X18Y1173D01*
X1286Y1173D02*
X1292Y1173D01*
X1301Y1173D02*
X1321Y1173D01*
X8Y1172D02*
X18Y1172D01*
X1286Y1172D02*
X1292Y1172D01*
X1301Y1172D02*
X1320Y1172D01*
X8Y1171D02*
X18Y1171D01*
X1286Y1171D02*
X1292Y1171D01*
X1301Y1171D02*
X1319Y1171D01*
X8Y1170D02*
X18Y1170D01*
X1286Y1170D02*
X1292Y1170D01*
X1301Y1170D02*
X1318Y1170D01*
X8Y1169D02*
X18Y1169D01*
X1287Y1169D02*
X1291Y1169D01*
X1301Y1169D02*
X1317Y1169D01*
X8Y1168D02*
X18Y1168D01*
X1288Y1168D02*
X1290Y1168D01*
X1303Y1168D02*
X1314Y1168D01*
X8Y1167D02*
X18Y1167D01*
X8Y1166D02*
X18Y1166D01*
X8Y1165D02*
X18Y1165D01*
X8Y1164D02*
X18Y1164D01*
X8Y1163D02*
X18Y1163D01*
X8Y1162D02*
X18Y1162D01*
X8Y1161D02*
X18Y1161D01*
X8Y1160D02*
X18Y1160D01*
X8Y1159D02*
X18Y1159D01*
X8Y1158D02*
X18Y1158D01*
X8Y1157D02*
X18Y1157D01*
X8Y1156D02*
X18Y1156D01*
X8Y1155D02*
X18Y1155D01*
X8Y1154D02*
X18Y1154D01*
X8Y1153D02*
X18Y1153D01*
X8Y1152D02*
X18Y1152D01*
X1288Y1152D02*
X1322Y1152D01*
X8Y1151D02*
X18Y1151D01*
X1287Y1151D02*
X1323Y1151D01*
X8Y1150D02*
X18Y1150D01*
X1286Y1150D02*
X1324Y1150D01*
X8Y1149D02*
X18Y1149D01*
X1286Y1149D02*
X1324Y1149D01*
X8Y1148D02*
X18Y1148D01*
X1286Y1148D02*
X1324Y1148D01*
X8Y1147D02*
X18Y1147D01*
X1286Y1147D02*
X1324Y1147D01*
X8Y1146D02*
X18Y1146D01*
X1287Y1146D02*
X1323Y1146D01*
X8Y1145D02*
X18Y1145D01*
X1311Y1145D02*
X1319Y1145D01*
X8Y1144D02*
X18Y1144D01*
X1312Y1144D02*
X1319Y1144D01*
X8Y1143D02*
X18Y1143D01*
X1312Y1143D02*
X1320Y1143D01*
X8Y1142D02*
X18Y1142D01*
X1313Y1142D02*
X1320Y1142D01*
X8Y1141D02*
X18Y1141D01*
X1314Y1141D02*
X1321Y1141D01*
X8Y1140D02*
X18Y1140D01*
X1314Y1140D02*
X1322Y1140D01*
X8Y1139D02*
X18Y1139D01*
X1315Y1139D02*
X1322Y1139D01*
X8Y1138D02*
X18Y1138D01*
X1316Y1138D02*
X1323Y1138D01*
X8Y1137D02*
X18Y1137D01*
X1316Y1137D02*
X1323Y1137D01*
X8Y1136D02*
X18Y1136D01*
X1317Y1136D02*
X1324Y1136D01*
X8Y1135D02*
X18Y1135D01*
X1318Y1135D02*
X1324Y1135D01*
X8Y1134D02*
X18Y1134D01*
X1318Y1134D02*
X1324Y1134D01*
X8Y1133D02*
X18Y1133D01*
X1318Y1133D02*
X1324Y1133D01*
X8Y1132D02*
X18Y1132D01*
X1318Y1132D02*
X1324Y1132D01*
X8Y1131D02*
X18Y1131D01*
X1318Y1131D02*
X1324Y1131D01*
X8Y1130D02*
X18Y1130D01*
X1318Y1130D02*
X1324Y1130D01*
X8Y1129D02*
X18Y1129D01*
X1318Y1129D02*
X1324Y1129D01*
X8Y1128D02*
X18Y1128D01*
X1318Y1128D02*
X1324Y1128D01*
X8Y1127D02*
X18Y1127D01*
X1318Y1127D02*
X1324Y1127D01*
X8Y1126D02*
X18Y1126D01*
X1316Y1126D02*
X1324Y1126D01*
X8Y1125D02*
X18Y1125D01*
X1298Y1125D02*
X1324Y1125D01*
X8Y1124D02*
X18Y1124D01*
X1287Y1124D02*
X1323Y1124D01*
X8Y1123D02*
X18Y1123D01*
X1286Y1123D02*
X1322Y1123D01*
X8Y1122D02*
X18Y1122D01*
X1286Y1122D02*
X1322Y1122D01*
X8Y1121D02*
X18Y1121D01*
X1286Y1121D02*
X1321Y1121D01*
X8Y1120D02*
X18Y1120D01*
X1286Y1120D02*
X1319Y1120D01*
X8Y1119D02*
X18Y1119D01*
X1287Y1119D02*
X1317Y1119D01*
X8Y1118D02*
X18Y1118D01*
X1288Y1118D02*
X1296Y1118D01*
X8Y1117D02*
X18Y1117D01*
X8Y1116D02*
X18Y1116D01*
X8Y1115D02*
X18Y1115D01*
X8Y1114D02*
X18Y1114D01*
X8Y1113D02*
X18Y1113D01*
X8Y1112D02*
X18Y1112D01*
X8Y1111D02*
X18Y1111D01*
X8Y1110D02*
X18Y1110D01*
X8Y1109D02*
X18Y1109D01*
X8Y1108D02*
X18Y1108D01*
X8Y1107D02*
X18Y1107D01*
X8Y1106D02*
X18Y1106D01*
X8Y1105D02*
X18Y1105D01*
X8Y1104D02*
X18Y1104D01*
X8Y1103D02*
X18Y1103D01*
X8Y1102D02*
X18Y1102D01*
X1291Y1102D02*
X1293Y1102D01*
X8Y1101D02*
X18Y1101D01*
X1290Y1101D02*
X1294Y1101D01*
X1314Y1101D02*
X1318Y1101D01*
X8Y1100D02*
X18Y1100D01*
X1289Y1100D02*
X1295Y1100D01*
X1312Y1100D02*
X1320Y1100D01*
X8Y1099D02*
X18Y1099D01*
X1288Y1099D02*
X1295Y1099D01*
X1310Y1099D02*
X1322Y1099D01*
X8Y1098D02*
X18Y1098D01*
X1288Y1098D02*
X1295Y1098D01*
X1309Y1098D02*
X1322Y1098D01*
X8Y1097D02*
X18Y1097D01*
X1287Y1097D02*
X1294Y1097D01*
X1309Y1097D02*
X1323Y1097D01*
X8Y1096D02*
X18Y1096D01*
X1287Y1096D02*
X1294Y1096D01*
X1308Y1096D02*
X1324Y1096D01*
X8Y1095D02*
X18Y1095D01*
X1286Y1095D02*
X1293Y1095D01*
X1308Y1095D02*
X1324Y1095D01*
X8Y1094D02*
X18Y1094D01*
X1286Y1094D02*
X1292Y1094D01*
X1307Y1094D02*
X1314Y1094D01*
X1318Y1094D02*
X1324Y1094D01*
X8Y1093D02*
X18Y1093D01*
X1286Y1093D02*
X1292Y1093D01*
X1307Y1093D02*
X1313Y1093D01*
X1318Y1093D02*
X1324Y1093D01*
X8Y1092D02*
X18Y1092D01*
X1286Y1092D02*
X1292Y1092D01*
X1306Y1092D02*
X1313Y1092D01*
X1318Y1092D02*
X1324Y1092D01*
X8Y1091D02*
X18Y1091D01*
X1286Y1091D02*
X1292Y1091D01*
X1306Y1091D02*
X1313Y1091D01*
X1318Y1091D02*
X1324Y1091D01*
X8Y1090D02*
X18Y1090D01*
X1286Y1090D02*
X1292Y1090D01*
X1306Y1090D02*
X1312Y1090D01*
X1318Y1090D02*
X1324Y1090D01*
X8Y1089D02*
X18Y1089D01*
X1286Y1089D02*
X1292Y1089D01*
X1305Y1089D02*
X1312Y1089D01*
X1318Y1089D02*
X1324Y1089D01*
X8Y1088D02*
X18Y1088D01*
X1286Y1088D02*
X1292Y1088D01*
X1305Y1088D02*
X1311Y1088D01*
X1318Y1088D02*
X1324Y1088D01*
X8Y1087D02*
X18Y1087D01*
X1286Y1087D02*
X1292Y1087D01*
X1304Y1087D02*
X1311Y1087D01*
X1318Y1087D02*
X1324Y1087D01*
X8Y1086D02*
X18Y1086D01*
X1286Y1086D02*
X1292Y1086D01*
X1304Y1086D02*
X1310Y1086D01*
X1318Y1086D02*
X1324Y1086D01*
X8Y1085D02*
X18Y1085D01*
X1286Y1085D02*
X1292Y1085D01*
X1303Y1085D02*
X1310Y1085D01*
X1318Y1085D02*
X1324Y1085D01*
X8Y1084D02*
X18Y1084D01*
X1286Y1084D02*
X1292Y1084D01*
X1303Y1084D02*
X1310Y1084D01*
X1318Y1084D02*
X1324Y1084D01*
X8Y1083D02*
X18Y1083D01*
X1286Y1083D02*
X1292Y1083D01*
X1303Y1083D02*
X1309Y1083D01*
X1318Y1083D02*
X1324Y1083D01*
X8Y1082D02*
X18Y1082D01*
X1286Y1082D02*
X1292Y1082D01*
X1302Y1082D02*
X1309Y1082D01*
X1318Y1082D02*
X1324Y1082D01*
X8Y1081D02*
X18Y1081D01*
X1286Y1081D02*
X1292Y1081D01*
X1302Y1081D02*
X1308Y1081D01*
X1318Y1081D02*
X1324Y1081D01*
X8Y1080D02*
X18Y1080D01*
X1286Y1080D02*
X1292Y1080D01*
X1301Y1080D02*
X1308Y1080D01*
X1318Y1080D02*
X1324Y1080D01*
X8Y1079D02*
X18Y1079D01*
X1286Y1079D02*
X1292Y1079D01*
X1301Y1079D02*
X1307Y1079D01*
X1318Y1079D02*
X1324Y1079D01*
X8Y1078D02*
X18Y1078D01*
X1286Y1078D02*
X1292Y1078D01*
X1300Y1078D02*
X1307Y1078D01*
X1318Y1078D02*
X1324Y1078D01*
X8Y1077D02*
X18Y1077D01*
X1286Y1077D02*
X1292Y1077D01*
X1300Y1077D02*
X1307Y1077D01*
X1318Y1077D02*
X1324Y1077D01*
X8Y1076D02*
X18Y1076D01*
X1286Y1076D02*
X1293Y1076D01*
X1299Y1076D02*
X1306Y1076D01*
X1318Y1076D02*
X1324Y1076D01*
X8Y1075D02*
X18Y1075D01*
X1286Y1075D02*
X1295Y1075D01*
X1297Y1075D02*
X1306Y1075D01*
X1317Y1075D02*
X1324Y1075D01*
X8Y1074D02*
X18Y1074D01*
X1287Y1074D02*
X1305Y1074D01*
X1316Y1074D02*
X1324Y1074D01*
X8Y1073D02*
X18Y1073D01*
X1287Y1073D02*
X1305Y1073D01*
X1316Y1073D02*
X1323Y1073D01*
X8Y1072D02*
X18Y1072D01*
X1288Y1072D02*
X1304Y1072D01*
X1315Y1072D02*
X1323Y1072D01*
X8Y1071D02*
X18Y1071D01*
X1289Y1071D02*
X1303Y1071D01*
X1316Y1071D02*
X1322Y1071D01*
X8Y1070D02*
X18Y1070D01*
X1290Y1070D02*
X1302Y1070D01*
X1316Y1070D02*
X1321Y1070D01*
X8Y1069D02*
X18Y1069D01*
X1292Y1069D02*
X1300Y1069D01*
X1317Y1069D02*
X1320Y1069D01*
X8Y1068D02*
X18Y1068D01*
X1294Y1068D02*
X1298Y1068D01*
X8Y1067D02*
X18Y1067D01*
X8Y1066D02*
X18Y1066D01*
X8Y1065D02*
X18Y1065D01*
X8Y1064D02*
X18Y1064D01*
X8Y1063D02*
X18Y1063D01*
X8Y1062D02*
X18Y1062D01*
X8Y1061D02*
X18Y1061D01*
X8Y1060D02*
X18Y1060D01*
X8Y1059D02*
X18Y1059D01*
X8Y1058D02*
X18Y1058D01*
X8Y1057D02*
X18Y1057D01*
X8Y1056D02*
X18Y1056D01*
X8Y1055D02*
X18Y1055D01*
X8Y1054D02*
X18Y1054D01*
X8Y1053D02*
X18Y1053D01*
X8Y1052D02*
X18Y1052D01*
X1296Y1052D02*
X1314Y1052D01*
X8Y1051D02*
X18Y1051D01*
X1293Y1051D02*
X1317Y1051D01*
X8Y1050D02*
X18Y1050D01*
X1292Y1050D02*
X1318Y1050D01*
X8Y1049D02*
X18Y1049D01*
X1291Y1049D02*
X1319Y1049D01*
X8Y1048D02*
X18Y1048D01*
X1290Y1048D02*
X1320Y1048D01*
X8Y1047D02*
X18Y1047D01*
X1289Y1047D02*
X1321Y1047D01*
X8Y1046D02*
X18Y1046D01*
X1288Y1046D02*
X1322Y1046D01*
X8Y1045D02*
X18Y1045D01*
X1288Y1045D02*
X1297Y1045D01*
X1314Y1045D02*
X1323Y1045D01*
X8Y1044D02*
X18Y1044D01*
X1287Y1044D02*
X1295Y1044D01*
X1315Y1044D02*
X1323Y1044D01*
X8Y1043D02*
X18Y1043D01*
X1287Y1043D02*
X1294Y1043D01*
X1316Y1043D02*
X1324Y1043D01*
X8Y1042D02*
X18Y1042D01*
X1286Y1042D02*
X1293Y1042D01*
X1317Y1042D02*
X1324Y1042D01*
X8Y1041D02*
X18Y1041D01*
X1286Y1041D02*
X1292Y1041D01*
X1318Y1041D02*
X1324Y1041D01*
X8Y1040D02*
X18Y1040D01*
X1286Y1040D02*
X1292Y1040D01*
X1318Y1040D02*
X1324Y1040D01*
X8Y1039D02*
X18Y1039D01*
X1286Y1039D02*
X1292Y1039D01*
X1318Y1039D02*
X1324Y1039D01*
X8Y1038D02*
X18Y1038D01*
X1286Y1038D02*
X1292Y1038D01*
X1318Y1038D02*
X1324Y1038D01*
X8Y1037D02*
X18Y1037D01*
X1286Y1037D02*
X1292Y1037D01*
X1318Y1037D02*
X1324Y1037D01*
X8Y1036D02*
X18Y1036D01*
X1286Y1036D02*
X1292Y1036D01*
X1318Y1036D02*
X1324Y1036D01*
X8Y1035D02*
X18Y1035D01*
X1286Y1035D02*
X1292Y1035D01*
X1318Y1035D02*
X1324Y1035D01*
X8Y1034D02*
X18Y1034D01*
X1286Y1034D02*
X1292Y1034D01*
X1318Y1034D02*
X1324Y1034D01*
X8Y1033D02*
X18Y1033D01*
X1286Y1033D02*
X1292Y1033D01*
X1318Y1033D02*
X1324Y1033D01*
X8Y1032D02*
X18Y1032D01*
X1286Y1032D02*
X1292Y1032D01*
X1318Y1032D02*
X1324Y1032D01*
X8Y1031D02*
X18Y1031D01*
X1286Y1031D02*
X1292Y1031D01*
X1318Y1031D02*
X1324Y1031D01*
X8Y1030D02*
X18Y1030D01*
X1286Y1030D02*
X1292Y1030D01*
X1318Y1030D02*
X1324Y1030D01*
X8Y1029D02*
X18Y1029D01*
X1286Y1029D02*
X1292Y1029D01*
X1318Y1029D02*
X1324Y1029D01*
X8Y1028D02*
X18Y1028D01*
X1286Y1028D02*
X1293Y1028D01*
X1317Y1028D02*
X1324Y1028D01*
X8Y1027D02*
X18Y1027D01*
X1287Y1027D02*
X1294Y1027D01*
X1317Y1027D02*
X1324Y1027D01*
X8Y1026D02*
X18Y1026D01*
X1287Y1026D02*
X1295Y1026D01*
X1315Y1026D02*
X1323Y1026D01*
X8Y1025D02*
X18Y1025D01*
X1288Y1025D02*
X1296Y1025D01*
X1314Y1025D02*
X1323Y1025D01*
X8Y1024D02*
X18Y1024D01*
X1288Y1024D02*
X1322Y1024D01*
X8Y1023D02*
X18Y1023D01*
X1289Y1023D02*
X1321Y1023D01*
X8Y1022D02*
X18Y1022D01*
X1290Y1022D02*
X1320Y1022D01*
X8Y1021D02*
X18Y1021D01*
X1291Y1021D02*
X1319Y1021D01*
X8Y1020D02*
X18Y1020D01*
X1292Y1020D02*
X1318Y1020D01*
X8Y1019D02*
X18Y1019D01*
X1293Y1019D02*
X1317Y1019D01*
X8Y1018D02*
X18Y1018D01*
X1296Y1018D02*
X1314Y1018D01*
X8Y1017D02*
X18Y1017D01*
X8Y1016D02*
X18Y1016D01*
X8Y1015D02*
X18Y1015D01*
X8Y1014D02*
X18Y1014D01*
X8Y1013D02*
X18Y1013D01*
X8Y1012D02*
X18Y1012D01*
X8Y1011D02*
X18Y1011D01*
X8Y1010D02*
X18Y1010D01*
X8Y1009D02*
X18Y1009D01*
X8Y1008D02*
X18Y1008D01*
X8Y1007D02*
X18Y1007D01*
X8Y1006D02*
X18Y1006D01*
X8Y1005D02*
X18Y1005D01*
X8Y1004D02*
X18Y1004D01*
X8Y1003D02*
X18Y1003D01*
X8Y1002D02*
X18Y1002D01*
X1288Y1002D02*
X1322Y1002D01*
X8Y1001D02*
X18Y1001D01*
X1287Y1001D02*
X1323Y1001D01*
X8Y1000D02*
X18Y1000D01*
X1286Y1000D02*
X1324Y1000D01*
X8Y999D02*
X18Y999D01*
X1286Y999D02*
X1324Y999D01*
X8Y998D02*
X18Y998D01*
X1286Y998D02*
X1324Y998D01*
X8Y997D02*
X18Y997D01*
X1286Y997D02*
X1324Y997D01*
X8Y996D02*
X18Y996D01*
X1287Y996D02*
X1323Y996D01*
X8Y995D02*
X18Y995D01*
X1309Y995D02*
X1317Y995D01*
X8Y994D02*
X18Y994D01*
X1309Y994D02*
X1318Y994D01*
X8Y993D02*
X18Y993D01*
X1310Y993D02*
X1319Y993D01*
X8Y992D02*
X18Y992D01*
X1311Y992D02*
X1319Y992D01*
X8Y991D02*
X18Y991D01*
X1312Y991D02*
X1320Y991D01*
X8Y990D02*
X18Y990D01*
X1313Y990D02*
X1321Y990D01*
X8Y989D02*
X18Y989D01*
X1314Y989D02*
X1322Y989D01*
X8Y988D02*
X18Y988D01*
X1315Y988D02*
X1323Y988D01*
X8Y987D02*
X18Y987D01*
X1315Y987D02*
X1324Y987D01*
X8Y986D02*
X18Y986D01*
X1316Y986D02*
X1324Y986D01*
X8Y985D02*
X18Y985D01*
X1317Y985D02*
X1324Y985D01*
X8Y984D02*
X18Y984D01*
X1318Y984D02*
X1324Y984D01*
X8Y983D02*
X18Y983D01*
X1318Y983D02*
X1324Y983D01*
X8Y982D02*
X18Y982D01*
X1318Y982D02*
X1324Y982D01*
X8Y981D02*
X18Y981D01*
X1318Y981D02*
X1324Y981D01*
X8Y980D02*
X18Y980D01*
X1318Y980D02*
X1324Y980D01*
X8Y979D02*
X18Y979D01*
X1318Y979D02*
X1324Y979D01*
X8Y978D02*
X18Y978D01*
X1318Y978D02*
X1324Y978D01*
X8Y977D02*
X18Y977D01*
X1318Y977D02*
X1324Y977D01*
X8Y976D02*
X18Y976D01*
X1317Y976D02*
X1324Y976D01*
X8Y975D02*
X18Y975D01*
X1316Y975D02*
X1324Y975D01*
X8Y974D02*
X18Y974D01*
X1311Y974D02*
X1323Y974D01*
X8Y973D02*
X18Y973D01*
X1310Y973D02*
X1323Y973D01*
X8Y972D02*
X18Y972D01*
X1310Y972D02*
X1322Y972D01*
X8Y971D02*
X18Y971D01*
X1310Y971D02*
X1321Y971D01*
X8Y970D02*
X18Y970D01*
X1310Y970D02*
X1320Y970D01*
X8Y969D02*
X18Y969D01*
X1310Y969D02*
X1319Y969D01*
X8Y968D02*
X18Y968D01*
X1312Y968D02*
X1316Y968D01*
X8Y967D02*
X18Y967D01*
X8Y966D02*
X18Y966D01*
X8Y965D02*
X18Y965D01*
X8Y964D02*
X18Y964D01*
X8Y963D02*
X18Y963D01*
X8Y962D02*
X18Y962D01*
X8Y961D02*
X18Y961D01*
X8Y960D02*
X18Y960D01*
X8Y959D02*
X18Y959D01*
X8Y958D02*
X18Y958D01*
X8Y957D02*
X18Y957D01*
X8Y956D02*
X18Y956D01*
X8Y955D02*
X18Y955D01*
X8Y954D02*
X18Y954D01*
X8Y953D02*
X18Y953D01*
X8Y952D02*
X18Y952D01*
X8Y951D02*
X18Y951D01*
X8Y950D02*
X18Y950D01*
X8Y949D02*
X18Y949D01*
X8Y948D02*
X18Y948D01*
X8Y947D02*
X18Y947D01*
X8Y946D02*
X18Y946D01*
X8Y945D02*
X18Y945D01*
X8Y944D02*
X18Y944D01*
X8Y943D02*
X18Y943D01*
X8Y942D02*
X18Y942D01*
X8Y941D02*
X18Y941D01*
X8Y940D02*
X18Y940D01*
X8Y939D02*
X18Y939D01*
X8Y938D02*
X18Y938D01*
X8Y937D02*
X18Y937D01*
X8Y936D02*
X18Y936D01*
X8Y935D02*
X18Y935D01*
X8Y934D02*
X18Y934D01*
X8Y933D02*
X18Y933D01*
X8Y932D02*
X18Y932D01*
X8Y931D02*
X18Y931D01*
X8Y930D02*
X18Y930D01*
X8Y929D02*
X18Y929D01*
X8Y928D02*
X18Y928D01*
X8Y927D02*
X18Y927D01*
X8Y926D02*
X18Y926D01*
X8Y925D02*
X18Y925D01*
X8Y924D02*
X18Y924D01*
X8Y923D02*
X18Y923D01*
X8Y922D02*
X18Y922D01*
X8Y921D02*
X18Y921D01*
X8Y920D02*
X18Y920D01*
X8Y919D02*
X18Y919D01*
X8Y918D02*
X18Y918D01*
X8Y917D02*
X18Y917D01*
X8Y916D02*
X18Y916D01*
X8Y915D02*
X18Y915D01*
X8Y914D02*
X18Y914D01*
X8Y913D02*
X18Y913D01*
X8Y912D02*
X18Y912D01*
X8Y911D02*
X18Y911D01*
X8Y910D02*
X18Y910D01*
X8Y909D02*
X18Y909D01*
X8Y908D02*
X18Y908D01*
X8Y907D02*
X18Y907D01*
X8Y906D02*
X18Y906D01*
X8Y905D02*
X18Y905D01*
X8Y904D02*
X18Y904D01*
X8Y903D02*
X18Y903D01*
X8Y902D02*
X18Y902D01*
X8Y901D02*
X18Y901D01*
X8Y900D02*
X18Y900D01*
X8Y899D02*
X18Y899D01*
X8Y898D02*
X18Y898D01*
X8Y897D02*
X18Y897D01*
X8Y896D02*
X18Y896D01*
X8Y895D02*
X18Y895D01*
X8Y894D02*
X18Y894D01*
X8Y893D02*
X18Y893D01*
X8Y892D02*
X18Y892D01*
X8Y891D02*
X18Y891D01*
X8Y890D02*
X18Y890D01*
X8Y889D02*
X18Y889D01*
X8Y888D02*
X18Y888D01*
X8Y887D02*
X18Y887D01*
X8Y886D02*
X18Y886D01*
X8Y885D02*
X18Y885D01*
X8Y884D02*
X18Y884D01*
X8Y883D02*
X18Y883D01*
X8Y882D02*
X18Y882D01*
X8Y881D02*
X18Y881D01*
X8Y880D02*
X18Y880D01*
X8Y879D02*
X18Y879D01*
X8Y878D02*
X18Y878D01*
X8Y877D02*
X18Y877D01*
X8Y876D02*
X18Y876D01*
X8Y875D02*
X18Y875D01*
X8Y874D02*
X18Y874D01*
X8Y873D02*
X18Y873D01*
X8Y872D02*
X18Y872D01*
X8Y871D02*
X18Y871D01*
X8Y870D02*
X18Y870D01*
X8Y869D02*
X18Y869D01*
X8Y868D02*
X18Y868D01*
X8Y867D02*
X18Y867D01*
X8Y866D02*
X18Y866D01*
X8Y865D02*
X18Y865D01*
X8Y864D02*
X18Y864D01*
X8Y863D02*
X18Y863D01*
X8Y862D02*
X18Y862D01*
X8Y861D02*
X18Y861D01*
X8Y860D02*
X18Y860D01*
X8Y859D02*
X18Y859D01*
X8Y858D02*
X18Y858D01*
X8Y857D02*
X18Y857D01*
X8Y856D02*
X18Y856D01*
X8Y855D02*
X18Y855D01*
X8Y854D02*
X18Y854D01*
X8Y853D02*
X18Y853D01*
X8Y852D02*
X18Y852D01*
X8Y851D02*
X18Y851D01*
X8Y850D02*
X18Y850D01*
X8Y849D02*
X18Y849D01*
X8Y848D02*
X18Y848D01*
X8Y847D02*
X18Y847D01*
X8Y846D02*
X18Y846D01*
X8Y845D02*
X18Y845D01*
X8Y844D02*
X18Y844D01*
X8Y843D02*
X18Y843D01*
X8Y842D02*
X18Y842D01*
X8Y841D02*
X18Y841D01*
X8Y840D02*
X18Y840D01*
X8Y839D02*
X18Y839D01*
X8Y838D02*
X18Y838D01*
X8Y837D02*
X18Y837D01*
X8Y836D02*
X18Y836D01*
X8Y835D02*
X18Y835D01*
X8Y834D02*
X18Y834D01*
X8Y833D02*
X18Y833D01*
X8Y832D02*
X18Y832D01*
X8Y831D02*
X18Y831D01*
X8Y830D02*
X18Y830D01*
X8Y829D02*
X18Y829D01*
X8Y828D02*
X18Y828D01*
X8Y827D02*
X18Y827D01*
X8Y826D02*
X18Y826D01*
X8Y825D02*
X18Y825D01*
X8Y824D02*
X18Y824D01*
X8Y823D02*
X18Y823D01*
X8Y822D02*
X18Y822D01*
X8Y821D02*
X18Y821D01*
X8Y820D02*
X18Y820D01*
X8Y819D02*
X18Y819D01*
X8Y818D02*
X18Y818D01*
X8Y817D02*
X18Y817D01*
X8Y816D02*
X18Y816D01*
X8Y815D02*
X18Y815D01*
X8Y814D02*
X18Y814D01*
X8Y813D02*
X18Y813D01*
X8Y812D02*
X18Y812D01*
X8Y811D02*
X18Y811D01*
X8Y810D02*
X18Y810D01*
X8Y809D02*
X18Y809D01*
X8Y808D02*
X18Y808D01*
X8Y807D02*
X18Y807D01*
X8Y806D02*
X18Y806D01*
X8Y805D02*
X18Y805D01*
X8Y804D02*
X18Y804D01*
X8Y803D02*
X18Y803D01*
X8Y802D02*
X18Y802D01*
X8Y801D02*
X18Y801D01*
X8Y800D02*
X18Y800D01*
X8Y799D02*
X18Y799D01*
X8Y798D02*
X18Y798D01*
X8Y797D02*
X18Y797D01*
X8Y796D02*
X18Y796D01*
X8Y795D02*
X18Y795D01*
X8Y794D02*
X18Y794D01*
X8Y793D02*
X18Y793D01*
X8Y792D02*
X18Y792D01*
X8Y791D02*
X18Y791D01*
X8Y790D02*
X18Y790D01*
X8Y789D02*
X18Y789D01*
X8Y788D02*
X18Y788D01*
X8Y787D02*
X18Y787D01*
X8Y786D02*
X18Y786D01*
X8Y785D02*
X18Y785D01*
X8Y784D02*
X18Y784D01*
X8Y783D02*
X18Y783D01*
X8Y782D02*
X18Y782D01*
X8Y781D02*
X18Y781D01*
X8Y780D02*
X18Y780D01*
X8Y779D02*
X18Y779D01*
X8Y778D02*
X18Y778D01*
X8Y777D02*
X18Y777D01*
X8Y776D02*
X18Y776D01*
X8Y775D02*
X18Y775D01*
X8Y774D02*
X18Y774D01*
X8Y773D02*
X18Y773D01*
X8Y772D02*
X18Y772D01*
X8Y771D02*
X18Y771D01*
X8Y770D02*
X18Y770D01*
X8Y769D02*
X18Y769D01*
X8Y768D02*
X18Y768D01*
X8Y767D02*
X18Y767D01*
X8Y766D02*
X18Y766D01*
X8Y765D02*
X18Y765D01*
X8Y764D02*
X18Y764D01*
X8Y763D02*
X18Y763D01*
X8Y762D02*
X18Y762D01*
X8Y761D02*
X18Y761D01*
X8Y760D02*
X18Y760D01*
X8Y759D02*
X18Y759D01*
X8Y758D02*
X18Y758D01*
X8Y757D02*
X18Y757D01*
X8Y756D02*
X18Y756D01*
X8Y755D02*
X18Y755D01*
X8Y754D02*
X18Y754D01*
X8Y753D02*
X18Y753D01*
X8Y752D02*
X18Y752D01*
X8Y751D02*
X18Y751D01*
X8Y750D02*
X18Y750D01*
X8Y749D02*
X18Y749D01*
X8Y748D02*
X18Y748D01*
X8Y747D02*
X18Y747D01*
X8Y746D02*
X18Y746D01*
X8Y745D02*
X18Y745D01*
X8Y744D02*
X18Y744D01*
X8Y743D02*
X18Y743D01*
X8Y742D02*
X18Y742D01*
X8Y741D02*
X18Y741D01*
X8Y740D02*
X18Y740D01*
X8Y739D02*
X18Y739D01*
X8Y738D02*
X18Y738D01*
X8Y737D02*
X18Y737D01*
X8Y736D02*
X18Y736D01*
X8Y735D02*
X18Y735D01*
X8Y734D02*
X18Y734D01*
X8Y733D02*
X18Y733D01*
X8Y732D02*
X18Y732D01*
X8Y731D02*
X18Y731D01*
X8Y730D02*
X18Y730D01*
X8Y729D02*
X18Y729D01*
X8Y728D02*
X18Y728D01*
X8Y727D02*
X18Y727D01*
X8Y726D02*
X18Y726D01*
X8Y725D02*
X18Y725D01*
X8Y724D02*
X18Y724D01*
X8Y723D02*
X18Y723D01*
X8Y722D02*
X18Y722D01*
X8Y721D02*
X18Y721D01*
X8Y720D02*
X18Y720D01*
X8Y719D02*
X18Y719D01*
X8Y718D02*
X18Y718D01*
X8Y717D02*
X18Y717D01*
X8Y716D02*
X18Y716D01*
X8Y715D02*
X18Y715D01*
X8Y714D02*
X18Y714D01*
X8Y713D02*
X18Y713D01*
X8Y712D02*
X18Y712D01*
X8Y711D02*
X18Y711D01*
X8Y710D02*
X18Y710D01*
X8Y709D02*
X18Y709D01*
X8Y708D02*
X18Y708D01*
X8Y707D02*
X18Y707D01*
X8Y706D02*
X18Y706D01*
X8Y705D02*
X18Y705D01*
X8Y704D02*
X18Y704D01*
X8Y703D02*
X18Y703D01*
X8Y702D02*
X18Y702D01*
X8Y701D02*
X18Y701D01*
X8Y700D02*
X18Y700D01*
X8Y699D02*
X18Y699D01*
X8Y698D02*
X18Y698D01*
X8Y697D02*
X18Y697D01*
X8Y696D02*
X18Y696D01*
X8Y695D02*
X18Y695D01*
X8Y694D02*
X18Y694D01*
X8Y693D02*
X18Y693D01*
X8Y692D02*
X18Y692D01*
X8Y691D02*
X18Y691D01*
X8Y690D02*
X18Y690D01*
X8Y689D02*
X18Y689D01*
X8Y688D02*
X18Y688D01*
X8Y687D02*
X18Y687D01*
X8Y686D02*
X18Y686D01*
X8Y685D02*
X18Y685D01*
X8Y684D02*
X18Y684D01*
X8Y683D02*
X18Y683D01*
X8Y682D02*
X18Y682D01*
X8Y681D02*
X18Y681D01*
X8Y680D02*
X18Y680D01*
X8Y679D02*
X18Y679D01*
X8Y678D02*
X18Y678D01*
X8Y677D02*
X18Y677D01*
X8Y676D02*
X18Y676D01*
X8Y675D02*
X18Y675D01*
X8Y674D02*
X18Y674D01*
X8Y673D02*
X18Y673D01*
X8Y672D02*
X18Y672D01*
X8Y671D02*
X18Y671D01*
X8Y670D02*
X18Y670D01*
X8Y669D02*
X18Y669D01*
X8Y668D02*
X18Y668D01*
X8Y667D02*
X18Y667D01*
X8Y666D02*
X18Y666D01*
X8Y665D02*
X18Y665D01*
X8Y664D02*
X18Y664D01*
X8Y663D02*
X18Y663D01*
X8Y662D02*
X18Y662D01*
X8Y661D02*
X18Y661D01*
X8Y660D02*
X18Y660D01*
X8Y659D02*
X18Y659D01*
X8Y658D02*
X18Y658D01*
X8Y657D02*
X18Y657D01*
X8Y656D02*
X18Y656D01*
X8Y655D02*
X18Y655D01*
X8Y654D02*
X18Y654D01*
X8Y653D02*
X18Y653D01*
X8Y652D02*
X18Y652D01*
X8Y651D02*
X18Y651D01*
X8Y650D02*
X18Y650D01*
X8Y649D02*
X18Y649D01*
X8Y648D02*
X18Y648D01*
X8Y647D02*
X18Y647D01*
X8Y646D02*
X18Y646D01*
X8Y645D02*
X18Y645D01*
X8Y644D02*
X18Y644D01*
X8Y643D02*
X18Y643D01*
X8Y642D02*
X18Y642D01*
X8Y641D02*
X18Y641D01*
X8Y640D02*
X18Y640D01*
X8Y639D02*
X18Y639D01*
X8Y638D02*
X18Y638D01*
X8Y637D02*
X18Y637D01*
X8Y636D02*
X18Y636D01*
X8Y635D02*
X18Y635D01*
X8Y634D02*
X18Y634D01*
X8Y633D02*
X18Y633D01*
X8Y632D02*
X18Y632D01*
X8Y631D02*
X18Y631D01*
X8Y630D02*
X18Y630D01*
X8Y629D02*
X18Y629D01*
X8Y628D02*
X18Y628D01*
X8Y627D02*
X18Y627D01*
X8Y626D02*
X18Y626D01*
X8Y625D02*
X18Y625D01*
X8Y624D02*
X18Y624D01*
X8Y623D02*
X18Y623D01*
X8Y622D02*
X18Y622D01*
X8Y621D02*
X18Y621D01*
X8Y620D02*
X18Y620D01*
X8Y619D02*
X18Y619D01*
X8Y618D02*
X18Y618D01*
X8Y617D02*
X18Y617D01*
X8Y616D02*
X18Y616D01*
X8Y615D02*
X18Y615D01*
X8Y614D02*
X18Y614D01*
X8Y613D02*
X18Y613D01*
X8Y612D02*
X18Y612D01*
X8Y611D02*
X18Y611D01*
X8Y610D02*
X18Y610D01*
X8Y609D02*
X18Y609D01*
X8Y608D02*
X18Y608D01*
X8Y607D02*
X18Y607D01*
X8Y606D02*
X18Y606D01*
X8Y605D02*
X18Y605D01*
X8Y604D02*
X18Y604D01*
X8Y603D02*
X18Y603D01*
X8Y602D02*
X18Y602D01*
X8Y601D02*
X18Y601D01*
X8Y600D02*
X18Y600D01*
X8Y599D02*
X18Y599D01*
X8Y598D02*
X18Y598D01*
X8Y597D02*
X18Y597D01*
X8Y596D02*
X18Y596D01*
X8Y595D02*
X18Y595D01*
X8Y594D02*
X18Y594D01*
X8Y593D02*
X18Y593D01*
X8Y592D02*
X18Y592D01*
X8Y591D02*
X18Y591D01*
X8Y590D02*
X18Y590D01*
X8Y589D02*
X18Y589D01*
X8Y588D02*
X18Y588D01*
X8Y587D02*
X18Y587D01*
X8Y586D02*
X18Y586D01*
X8Y585D02*
X18Y585D01*
X8Y584D02*
X18Y584D01*
X8Y583D02*
X18Y583D01*
X8Y582D02*
X18Y582D01*
X8Y581D02*
X18Y581D01*
X8Y580D02*
X18Y580D01*
X8Y579D02*
X18Y579D01*
X8Y578D02*
X18Y578D01*
X8Y577D02*
X18Y577D01*
X8Y576D02*
X18Y576D01*
X8Y575D02*
X18Y575D01*
X8Y574D02*
X18Y574D01*
X8Y573D02*
X18Y573D01*
X8Y572D02*
X18Y572D01*
X8Y571D02*
X18Y571D01*
X8Y570D02*
X18Y570D01*
X8Y569D02*
X18Y569D01*
X8Y568D02*
X18Y568D01*
X8Y567D02*
X18Y567D01*
X8Y566D02*
X18Y566D01*
X8Y565D02*
X18Y565D01*
X8Y564D02*
X18Y564D01*
X8Y563D02*
X18Y563D01*
X8Y562D02*
X18Y562D01*
X8Y561D02*
X18Y561D01*
X8Y560D02*
X18Y560D01*
X8Y559D02*
X18Y559D01*
X8Y558D02*
X18Y558D01*
X8Y557D02*
X18Y557D01*
X8Y556D02*
X18Y556D01*
X8Y555D02*
X18Y555D01*
X8Y554D02*
X18Y554D01*
X8Y553D02*
X18Y553D01*
X8Y552D02*
X18Y552D01*
X8Y551D02*
X18Y551D01*
X8Y550D02*
X18Y550D01*
X8Y549D02*
X18Y549D01*
X8Y548D02*
X18Y548D01*
X8Y547D02*
X18Y547D01*
X8Y546D02*
X18Y546D01*
X8Y545D02*
X18Y545D01*
X8Y544D02*
X18Y544D01*
X8Y543D02*
X18Y543D01*
X8Y542D02*
X18Y542D01*
X8Y541D02*
X18Y541D01*
X8Y540D02*
X18Y540D01*
X8Y539D02*
X18Y539D01*
X8Y538D02*
X18Y538D01*
X8Y537D02*
X18Y537D01*
X8Y536D02*
X18Y536D01*
X8Y535D02*
X18Y535D01*
X8Y534D02*
X18Y534D01*
X8Y533D02*
X18Y533D01*
X8Y532D02*
X18Y532D01*
X8Y531D02*
X18Y531D01*
X8Y530D02*
X18Y530D01*
X8Y529D02*
X18Y529D01*
X8Y528D02*
X18Y528D01*
X8Y527D02*
X18Y527D01*
X8Y526D02*
X18Y526D01*
X8Y525D02*
X18Y525D01*
X8Y524D02*
X18Y524D01*
X8Y523D02*
X18Y523D01*
X8Y522D02*
X18Y522D01*
X8Y521D02*
X18Y521D01*
X8Y520D02*
X18Y520D01*
X8Y519D02*
X18Y519D01*
X8Y518D02*
X18Y518D01*
X8Y517D02*
X18Y517D01*
X8Y516D02*
X18Y516D01*
X8Y515D02*
X18Y515D01*
X8Y514D02*
X18Y514D01*
X8Y513D02*
X18Y513D01*
X8Y512D02*
X18Y512D01*
X8Y511D02*
X18Y511D01*
X8Y510D02*
X18Y510D01*
X8Y509D02*
X18Y509D01*
X8Y508D02*
X18Y508D01*
X8Y507D02*
X18Y507D01*
X8Y506D02*
X18Y506D01*
X8Y505D02*
X18Y505D01*
X8Y504D02*
X18Y504D01*
X8Y503D02*
X18Y503D01*
X8Y502D02*
X18Y502D01*
X8Y501D02*
X18Y501D01*
X8Y500D02*
X18Y500D01*
X8Y499D02*
X18Y499D01*
X8Y498D02*
X18Y498D01*
X8Y497D02*
X18Y497D01*
X8Y496D02*
X18Y496D01*
X8Y495D02*
X18Y495D01*
X8Y494D02*
X18Y494D01*
X8Y493D02*
X18Y493D01*
X8Y492D02*
X18Y492D01*
X8Y491D02*
X18Y491D01*
X8Y490D02*
X18Y490D01*
X8Y489D02*
X18Y489D01*
X8Y488D02*
X18Y488D01*
X8Y487D02*
X18Y487D01*
X8Y486D02*
X18Y486D01*
X8Y485D02*
X18Y485D01*
X8Y484D02*
X18Y484D01*
X8Y483D02*
X18Y483D01*
X8Y482D02*
X18Y482D01*
X8Y481D02*
X18Y481D01*
X8Y480D02*
X18Y480D01*
X8Y479D02*
X18Y479D01*
X8Y478D02*
X18Y478D01*
X8Y477D02*
X18Y477D01*
X8Y476D02*
X18Y476D01*
X8Y475D02*
X18Y475D01*
X8Y474D02*
X18Y474D01*
X8Y473D02*
X18Y473D01*
X8Y472D02*
X18Y472D01*
X8Y471D02*
X18Y471D01*
X8Y470D02*
X18Y470D01*
X8Y469D02*
X18Y469D01*
X8Y468D02*
X18Y468D01*
X8Y467D02*
X18Y467D01*
X8Y466D02*
X18Y466D01*
X8Y465D02*
X18Y465D01*
X8Y464D02*
X18Y464D01*
X8Y463D02*
X18Y463D01*
X8Y462D02*
X18Y462D01*
X8Y461D02*
X18Y461D01*
X8Y460D02*
X18Y460D01*
X8Y459D02*
X18Y459D01*
X8Y458D02*
X18Y458D01*
X8Y457D02*
X18Y457D01*
X8Y456D02*
X18Y456D01*
X8Y455D02*
X18Y455D01*
X8Y454D02*
X18Y454D01*
X8Y453D02*
X18Y453D01*
X8Y452D02*
X18Y452D01*
X8Y451D02*
X18Y451D01*
X8Y450D02*
X18Y450D01*
X8Y449D02*
X18Y449D01*
X8Y448D02*
X18Y448D01*
X8Y447D02*
X18Y447D01*
X8Y446D02*
X18Y446D01*
X8Y445D02*
X18Y445D01*
X8Y444D02*
X18Y444D01*
X8Y443D02*
X18Y443D01*
X8Y442D02*
X18Y442D01*
X8Y441D02*
X18Y441D01*
X8Y440D02*
X18Y440D01*
X8Y439D02*
X18Y439D01*
X8Y438D02*
X18Y438D01*
X8Y437D02*
X18Y437D01*
X8Y436D02*
X18Y436D01*
X8Y435D02*
X18Y435D01*
X8Y434D02*
X18Y434D01*
X8Y433D02*
X18Y433D01*
X8Y432D02*
X18Y432D01*
X8Y431D02*
X18Y431D01*
X8Y430D02*
X18Y430D01*
X8Y429D02*
X18Y429D01*
X8Y428D02*
X18Y428D01*
X8Y427D02*
X18Y427D01*
X8Y426D02*
X18Y426D01*
X8Y425D02*
X18Y425D01*
X8Y424D02*
X18Y424D01*
X8Y423D02*
X18Y423D01*
X8Y422D02*
X18Y422D01*
X8Y421D02*
X18Y421D01*
X8Y420D02*
X18Y420D01*
X8Y419D02*
X18Y419D01*
X8Y418D02*
X18Y418D01*
X8Y417D02*
X18Y417D01*
X8Y416D02*
X18Y416D01*
X8Y415D02*
X18Y415D01*
X8Y414D02*
X18Y414D01*
X8Y413D02*
X18Y413D01*
X8Y412D02*
X18Y412D01*
X8Y411D02*
X18Y411D01*
X8Y410D02*
X18Y410D01*
X8Y409D02*
X18Y409D01*
X8Y408D02*
X18Y408D01*
X8Y407D02*
X18Y407D01*
X8Y406D02*
X18Y406D01*
X8Y405D02*
X18Y405D01*
X8Y404D02*
X18Y404D01*
X8Y403D02*
X18Y403D01*
X8Y402D02*
X18Y402D01*
X8Y401D02*
X18Y401D01*
X8Y400D02*
X18Y400D01*
X8Y399D02*
X18Y399D01*
X8Y398D02*
X18Y398D01*
X8Y397D02*
X18Y397D01*
X8Y396D02*
X18Y396D01*
X8Y395D02*
X18Y395D01*
X8Y394D02*
X18Y394D01*
X8Y393D02*
X18Y393D01*
X8Y392D02*
X18Y392D01*
X8Y391D02*
X18Y391D01*
X8Y390D02*
X18Y390D01*
X8Y389D02*
X18Y389D01*
X8Y388D02*
X18Y388D01*
X8Y387D02*
X18Y387D01*
X8Y386D02*
X18Y386D01*
X8Y385D02*
X18Y385D01*
X8Y384D02*
X18Y384D01*
X8Y383D02*
X18Y383D01*
X8Y382D02*
X18Y382D01*
X8Y381D02*
X18Y381D01*
X8Y380D02*
X18Y380D01*
X8Y379D02*
X18Y379D01*
X8Y378D02*
X18Y378D01*
X8Y377D02*
X18Y377D01*
X8Y376D02*
X18Y376D01*
X8Y375D02*
X18Y375D01*
X8Y374D02*
X18Y374D01*
X8Y373D02*
X18Y373D01*
X8Y372D02*
X18Y372D01*
X8Y371D02*
X18Y371D01*
X8Y370D02*
X18Y370D01*
X8Y369D02*
X18Y369D01*
X8Y368D02*
X18Y368D01*
X8Y367D02*
X18Y367D01*
X8Y366D02*
X18Y366D01*
X8Y365D02*
X18Y365D01*
X8Y364D02*
X18Y364D01*
X8Y363D02*
X18Y363D01*
X8Y362D02*
X18Y362D01*
X8Y361D02*
X18Y361D01*
X8Y360D02*
X18Y360D01*
X8Y359D02*
X18Y359D01*
X8Y358D02*
X18Y358D01*
X8Y357D02*
X18Y357D01*
X8Y356D02*
X18Y356D01*
X8Y355D02*
X18Y355D01*
X8Y354D02*
X18Y354D01*
X8Y353D02*
X18Y353D01*
X8Y352D02*
X18Y352D01*
X8Y351D02*
X18Y351D01*
X8Y350D02*
X18Y350D01*
X8Y349D02*
X18Y349D01*
X8Y348D02*
X18Y348D01*
X8Y347D02*
X18Y347D01*
X8Y346D02*
X18Y346D01*
X8Y345D02*
X18Y345D01*
X8Y344D02*
X18Y344D01*
X8Y343D02*
X18Y343D01*
X8Y342D02*
X18Y342D01*
X8Y341D02*
X18Y341D01*
X8Y340D02*
X18Y340D01*
X8Y339D02*
X18Y339D01*
X8Y338D02*
X18Y338D01*
X8Y337D02*
X18Y337D01*
X8Y336D02*
X18Y336D01*
X8Y335D02*
X18Y335D01*
X8Y334D02*
X18Y334D01*
X8Y333D02*
X18Y333D01*
X8Y332D02*
X18Y332D01*
X8Y331D02*
X18Y331D01*
X8Y330D02*
X18Y330D01*
X8Y329D02*
X18Y329D01*
X8Y328D02*
X18Y328D01*
X8Y327D02*
X18Y327D01*
X8Y326D02*
X18Y326D01*
X8Y325D02*
X18Y325D01*
X8Y324D02*
X18Y324D01*
X8Y323D02*
X18Y323D01*
X8Y322D02*
X18Y322D01*
X8Y321D02*
X18Y321D01*
X8Y320D02*
X18Y320D01*
X8Y319D02*
X18Y319D01*
X8Y318D02*
X18Y318D01*
X8Y317D02*
X18Y317D01*
X8Y316D02*
X18Y316D01*
X8Y315D02*
X18Y315D01*
X8Y314D02*
X18Y314D01*
X8Y313D02*
X18Y313D01*
X8Y312D02*
X18Y312D01*
X8Y311D02*
X18Y311D01*
X8Y310D02*
X18Y310D01*
X8Y309D02*
X18Y309D01*
X8Y308D02*
X18Y308D01*
X8Y307D02*
X18Y307D01*
X8Y306D02*
X18Y306D01*
X8Y305D02*
X18Y305D01*
X8Y304D02*
X18Y304D01*
X8Y303D02*
X18Y303D01*
X8Y302D02*
X18Y302D01*
X8Y301D02*
X18Y301D01*
X8Y300D02*
X18Y300D01*
X8Y299D02*
X18Y299D01*
X8Y298D02*
X18Y298D01*
X8Y297D02*
X18Y297D01*
X2293Y297D02*
X2313Y297D01*
X8Y296D02*
X18Y296D01*
X2290Y296D02*
X2316Y296D01*
X8Y295D02*
X18Y295D01*
X2289Y295D02*
X2317Y295D01*
X8Y294D02*
X18Y294D01*
X2288Y294D02*
X2318Y294D01*
X8Y293D02*
X18Y293D01*
X2288Y293D02*
X2319Y293D01*
X8Y292D02*
X18Y292D01*
X2287Y292D02*
X2319Y292D01*
X8Y291D02*
X18Y291D01*
X2287Y291D02*
X2320Y291D01*
X8Y290D02*
X18Y290D01*
X2287Y290D02*
X2293Y290D01*
X2313Y290D02*
X2320Y290D01*
X8Y289D02*
X18Y289D01*
X2287Y289D02*
X2293Y289D01*
X2314Y289D02*
X2320Y289D01*
X8Y288D02*
X18Y288D01*
X2287Y288D02*
X2294Y288D01*
X2314Y288D02*
X2320Y288D01*
X8Y287D02*
X18Y287D01*
X2287Y287D02*
X2294Y287D01*
X2315Y287D02*
X2320Y287D01*
X8Y286D02*
X18Y286D01*
X2288Y286D02*
X2295Y286D01*
X2315Y286D02*
X2320Y286D01*
X8Y285D02*
X18Y285D01*
X2288Y285D02*
X2296Y285D01*
X2316Y285D02*
X2319Y285D01*
X8Y284D02*
X18Y284D01*
X2289Y284D02*
X2297Y284D01*
X8Y283D02*
X18Y283D01*
X2290Y283D02*
X2298Y283D01*
X8Y282D02*
X18Y282D01*
X2290Y282D02*
X2298Y282D01*
X2350Y282D02*
X2369Y282D01*
X2389Y282D02*
X2391Y282D01*
X2402Y282D02*
X2413Y282D01*
X2446Y282D02*
X2461Y282D01*
X2496Y282D02*
X2511Y282D01*
X2539Y282D02*
X2541Y282D01*
X2553Y282D02*
X2562Y282D01*
X8Y281D02*
X18Y281D01*
X2291Y281D02*
X2299Y281D01*
X2348Y281D02*
X2370Y281D01*
X2387Y281D02*
X2392Y281D01*
X2401Y281D02*
X2415Y281D01*
X2444Y281D02*
X2463Y281D01*
X2494Y281D02*
X2513Y281D01*
X2537Y281D02*
X2542Y281D01*
X2551Y281D02*
X2565Y281D01*
X8Y280D02*
X18Y280D01*
X2292Y280D02*
X2300Y280D01*
X2346Y280D02*
X2370Y280D01*
X2387Y280D02*
X2393Y280D01*
X2400Y280D02*
X2417Y280D01*
X2443Y280D02*
X2464Y280D01*
X2493Y280D02*
X2514Y280D01*
X2537Y280D02*
X2543Y280D01*
X2549Y280D02*
X2566Y280D01*
X8Y279D02*
X18Y279D01*
X2293Y279D02*
X2301Y279D01*
X2345Y279D02*
X2370Y279D01*
X2387Y279D02*
X2393Y279D01*
X2399Y279D02*
X2418Y279D01*
X2442Y279D02*
X2465Y279D01*
X2492Y279D02*
X2515Y279D01*
X2537Y279D02*
X2543Y279D01*
X2547Y279D02*
X2567Y279D01*
X8Y278D02*
X18Y278D01*
X2293Y278D02*
X2301Y278D01*
X2344Y278D02*
X2370Y278D01*
X2387Y278D02*
X2393Y278D01*
X2397Y278D02*
X2419Y278D01*
X2441Y278D02*
X2467Y278D01*
X2491Y278D02*
X2517Y278D01*
X2537Y278D02*
X2543Y278D01*
X2546Y278D02*
X2568Y278D01*
X8Y277D02*
X18Y277D01*
X2294Y277D02*
X2302Y277D01*
X2343Y277D02*
X2370Y277D01*
X2387Y277D02*
X2393Y277D01*
X2396Y277D02*
X2419Y277D01*
X2440Y277D02*
X2468Y277D01*
X2490Y277D02*
X2518Y277D01*
X2537Y277D02*
X2568Y277D01*
X8Y276D02*
X18Y276D01*
X2295Y276D02*
X2303Y276D01*
X2342Y276D02*
X2369Y276D01*
X2387Y276D02*
X2393Y276D01*
X2395Y276D02*
X2420Y276D01*
X2439Y276D02*
X2468Y276D01*
X2489Y276D02*
X2518Y276D01*
X2537Y276D02*
X2569Y276D01*
X8Y275D02*
X18Y275D01*
X2296Y275D02*
X2304Y275D01*
X2341Y275D02*
X2350Y275D01*
X2387Y275D02*
X2404Y275D01*
X2413Y275D02*
X2420Y275D01*
X2438Y275D02*
X2447Y275D01*
X2460Y275D02*
X2469Y275D01*
X2488Y275D02*
X2497Y275D01*
X2510Y275D02*
X2519Y275D01*
X2537Y275D02*
X2553Y275D01*
X2562Y275D02*
X2569Y275D01*
X8Y274D02*
X18Y274D01*
X2297Y274D02*
X2305Y274D01*
X2340Y274D02*
X2349Y274D01*
X2387Y274D02*
X2403Y274D01*
X2414Y274D02*
X2420Y274D01*
X2438Y274D02*
X2446Y274D01*
X2462Y274D02*
X2470Y274D01*
X2488Y274D02*
X2496Y274D01*
X2512Y274D02*
X2520Y274D01*
X2537Y274D02*
X2552Y274D01*
X2563Y274D02*
X2569Y274D01*
X8Y273D02*
X18Y273D01*
X2297Y273D02*
X2305Y273D01*
X2339Y273D02*
X2348Y273D01*
X2387Y273D02*
X2401Y273D01*
X2414Y273D02*
X2420Y273D01*
X2437Y273D02*
X2444Y273D01*
X2463Y273D02*
X2470Y273D01*
X2487Y273D02*
X2494Y273D01*
X2513Y273D02*
X2520Y273D01*
X2537Y273D02*
X2550Y273D01*
X2563Y273D02*
X2569Y273D01*
X8Y272D02*
X18Y272D01*
X2298Y272D02*
X2306Y272D01*
X2338Y272D02*
X2347Y272D01*
X2387Y272D02*
X2400Y272D01*
X2414Y272D02*
X2420Y272D01*
X2437Y272D02*
X2444Y272D01*
X2464Y272D02*
X2470Y272D01*
X2487Y272D02*
X2494Y272D01*
X2514Y272D02*
X2520Y272D01*
X2537Y272D02*
X2549Y272D01*
X2563Y272D02*
X2570Y272D01*
X8Y271D02*
X18Y271D01*
X2299Y271D02*
X2307Y271D01*
X2338Y271D02*
X2346Y271D01*
X2387Y271D02*
X2399Y271D01*
X2414Y271D02*
X2420Y271D01*
X2437Y271D02*
X2443Y271D01*
X2464Y271D02*
X2470Y271D01*
X2487Y271D02*
X2493Y271D01*
X2514Y271D02*
X2520Y271D01*
X2537Y271D02*
X2547Y271D01*
X2564Y271D02*
X2570Y271D01*
X8Y270D02*
X18Y270D01*
X2300Y270D02*
X2308Y270D01*
X2337Y270D02*
X2345Y270D01*
X2387Y270D02*
X2398Y270D01*
X2414Y270D02*
X2420Y270D01*
X2437Y270D02*
X2443Y270D01*
X2464Y270D02*
X2470Y270D01*
X2487Y270D02*
X2493Y270D01*
X2514Y270D02*
X2520Y270D01*
X2537Y270D02*
X2546Y270D01*
X2564Y270D02*
X2570Y270D01*
X8Y269D02*
X18Y269D01*
X2300Y269D02*
X2308Y269D01*
X2337Y269D02*
X2344Y269D01*
X2387Y269D02*
X2397Y269D01*
X2415Y269D02*
X2420Y269D01*
X2437Y269D02*
X2443Y269D01*
X2464Y269D02*
X2470Y269D01*
X2487Y269D02*
X2493Y269D01*
X2514Y269D02*
X2520Y269D01*
X2537Y269D02*
X2544Y269D01*
X2564Y269D02*
X2570Y269D01*
X8Y268D02*
X18Y268D01*
X2301Y268D02*
X2309Y268D01*
X2337Y268D02*
X2343Y268D01*
X2387Y268D02*
X2396Y268D01*
X2415Y268D02*
X2420Y268D01*
X2437Y268D02*
X2443Y268D01*
X2464Y268D02*
X2470Y268D01*
X2487Y268D02*
X2493Y268D01*
X2514Y268D02*
X2520Y268D01*
X2537Y268D02*
X2543Y268D01*
X2564Y268D02*
X2570Y268D01*
X8Y267D02*
X18Y267D01*
X2302Y267D02*
X2310Y267D01*
X2337Y267D02*
X2343Y267D01*
X2387Y267D02*
X2394Y267D01*
X2417Y267D02*
X2418Y267D01*
X2437Y267D02*
X2443Y267D01*
X2464Y267D02*
X2470Y267D01*
X2487Y267D02*
X2493Y267D01*
X2514Y267D02*
X2520Y267D01*
X2537Y267D02*
X2543Y267D01*
X2564Y267D02*
X2570Y267D01*
X8Y266D02*
X18Y266D01*
X2303Y266D02*
X2311Y266D01*
X2337Y266D02*
X2343Y266D01*
X2387Y266D02*
X2393Y266D01*
X2437Y266D02*
X2443Y266D01*
X2464Y266D02*
X2470Y266D01*
X2487Y266D02*
X2493Y266D01*
X2514Y266D02*
X2520Y266D01*
X2537Y266D02*
X2543Y266D01*
X2564Y266D02*
X2570Y266D01*
X8Y265D02*
X18Y265D01*
X2304Y265D02*
X2312Y265D01*
X2337Y265D02*
X2343Y265D01*
X2387Y265D02*
X2393Y265D01*
X2437Y265D02*
X2443Y265D01*
X2464Y265D02*
X2470Y265D01*
X2487Y265D02*
X2493Y265D01*
X2514Y265D02*
X2520Y265D01*
X2537Y265D02*
X2543Y265D01*
X2564Y265D02*
X2570Y265D01*
X8Y264D02*
X18Y264D01*
X2304Y264D02*
X2312Y264D01*
X2337Y264D02*
X2343Y264D01*
X2387Y264D02*
X2393Y264D01*
X2437Y264D02*
X2470Y264D01*
X2487Y264D02*
X2520Y264D01*
X2537Y264D02*
X2543Y264D01*
X2564Y264D02*
X2570Y264D01*
X8Y263D02*
X18Y263D01*
X2305Y263D02*
X2313Y263D01*
X2337Y263D02*
X2343Y263D01*
X2387Y263D02*
X2393Y263D01*
X2437Y263D02*
X2470Y263D01*
X2487Y263D02*
X2520Y263D01*
X2537Y263D02*
X2543Y263D01*
X2564Y263D02*
X2570Y263D01*
X8Y262D02*
X18Y262D01*
X2306Y262D02*
X2314Y262D01*
X2337Y262D02*
X2343Y262D01*
X2387Y262D02*
X2393Y262D01*
X2437Y262D02*
X2470Y262D01*
X2487Y262D02*
X2520Y262D01*
X2537Y262D02*
X2543Y262D01*
X2564Y262D02*
X2570Y262D01*
X8Y261D02*
X18Y261D01*
X2307Y261D02*
X2315Y261D01*
X2337Y261D02*
X2343Y261D01*
X2387Y261D02*
X2393Y261D01*
X2437Y261D02*
X2470Y261D01*
X2487Y261D02*
X2520Y261D01*
X2537Y261D02*
X2543Y261D01*
X2564Y261D02*
X2570Y261D01*
X8Y260D02*
X18Y260D01*
X2307Y260D02*
X2315Y260D01*
X2337Y260D02*
X2343Y260D01*
X2387Y260D02*
X2393Y260D01*
X2437Y260D02*
X2470Y260D01*
X2487Y260D02*
X2520Y260D01*
X2537Y260D02*
X2543Y260D01*
X2564Y260D02*
X2570Y260D01*
X8Y259D02*
X18Y259D01*
X2308Y259D02*
X2316Y259D01*
X2337Y259D02*
X2343Y259D01*
X2387Y259D02*
X2393Y259D01*
X2437Y259D02*
X2469Y259D01*
X2487Y259D02*
X2519Y259D01*
X2537Y259D02*
X2543Y259D01*
X2564Y259D02*
X2570Y259D01*
X8Y258D02*
X18Y258D01*
X2309Y258D02*
X2317Y258D01*
X2337Y258D02*
X2343Y258D01*
X2387Y258D02*
X2393Y258D01*
X2437Y258D02*
X2468Y258D01*
X2487Y258D02*
X2518Y258D01*
X2537Y258D02*
X2543Y258D01*
X2564Y258D02*
X2570Y258D01*
X8Y257D02*
X18Y257D01*
X2310Y257D02*
X2318Y257D01*
X2337Y257D02*
X2343Y257D01*
X2387Y257D02*
X2393Y257D01*
X2437Y257D02*
X2443Y257D01*
X2487Y257D02*
X2493Y257D01*
X2537Y257D02*
X2543Y257D01*
X2564Y257D02*
X2570Y257D01*
X8Y256D02*
X18Y256D01*
X2311Y256D02*
X2319Y256D01*
X2337Y256D02*
X2344Y256D01*
X2387Y256D02*
X2393Y256D01*
X2437Y256D02*
X2443Y256D01*
X2487Y256D02*
X2493Y256D01*
X2537Y256D02*
X2543Y256D01*
X2564Y256D02*
X2570Y256D01*
X8Y255D02*
X18Y255D01*
X2288Y255D02*
X2292Y255D01*
X2311Y255D02*
X2319Y255D01*
X2337Y255D02*
X2345Y255D01*
X2387Y255D02*
X2393Y255D01*
X2437Y255D02*
X2443Y255D01*
X2487Y255D02*
X2493Y255D01*
X2537Y255D02*
X2543Y255D01*
X2564Y255D02*
X2570Y255D01*
X8Y254D02*
X18Y254D01*
X2287Y254D02*
X2292Y254D01*
X2312Y254D02*
X2320Y254D01*
X2338Y254D02*
X2346Y254D01*
X2387Y254D02*
X2393Y254D01*
X2437Y254D02*
X2443Y254D01*
X2487Y254D02*
X2493Y254D01*
X2537Y254D02*
X2543Y254D01*
X2564Y254D02*
X2570Y254D01*
X8Y253D02*
X18Y253D01*
X2287Y253D02*
X2293Y253D01*
X2313Y253D02*
X2320Y253D01*
X2339Y253D02*
X2348Y253D01*
X2387Y253D02*
X2393Y253D01*
X2437Y253D02*
X2444Y253D01*
X2487Y253D02*
X2494Y253D01*
X2537Y253D02*
X2543Y253D01*
X2564Y253D02*
X2570Y253D01*
X8Y252D02*
X18Y252D01*
X2287Y252D02*
X2293Y252D01*
X2314Y252D02*
X2320Y252D01*
X2339Y252D02*
X2349Y252D01*
X2387Y252D02*
X2393Y252D01*
X2437Y252D02*
X2445Y252D01*
X2487Y252D02*
X2495Y252D01*
X2537Y252D02*
X2543Y252D01*
X2564Y252D02*
X2570Y252D01*
X8Y251D02*
X18Y251D01*
X2287Y251D02*
X2293Y251D01*
X2314Y251D02*
X2320Y251D01*
X2340Y251D02*
X2350Y251D01*
X2387Y251D02*
X2393Y251D01*
X2438Y251D02*
X2446Y251D01*
X2488Y251D02*
X2496Y251D01*
X2537Y251D02*
X2543Y251D01*
X2564Y251D02*
X2570Y251D01*
X8Y250D02*
X18Y250D01*
X2287Y250D02*
X2320Y250D01*
X2341Y250D02*
X2368Y250D01*
X2387Y250D02*
X2393Y250D01*
X2438Y250D02*
X2468Y250D01*
X2488Y250D02*
X2518Y250D01*
X2537Y250D02*
X2543Y250D01*
X2564Y250D02*
X2570Y250D01*
X8Y249D02*
X18Y249D01*
X2288Y249D02*
X2320Y249D01*
X2342Y249D02*
X2369Y249D01*
X2387Y249D02*
X2393Y249D01*
X2439Y249D02*
X2469Y249D01*
X2489Y249D02*
X2519Y249D01*
X2537Y249D02*
X2543Y249D01*
X2564Y249D02*
X2570Y249D01*
X8Y248D02*
X18Y248D01*
X2288Y248D02*
X2320Y248D01*
X2344Y248D02*
X2370Y248D01*
X2387Y248D02*
X2393Y248D01*
X2440Y248D02*
X2470Y248D01*
X2490Y248D02*
X2520Y248D01*
X2537Y248D02*
X2543Y248D01*
X2564Y248D02*
X2570Y248D01*
X8Y247D02*
X18Y247D01*
X2289Y247D02*
X2319Y247D01*
X2345Y247D02*
X2370Y247D01*
X2387Y247D02*
X2393Y247D01*
X2441Y247D02*
X2470Y247D01*
X2491Y247D02*
X2520Y247D01*
X2537Y247D02*
X2543Y247D01*
X2564Y247D02*
X2570Y247D01*
X8Y246D02*
X18Y246D01*
X2290Y246D02*
X2318Y246D01*
X2346Y246D02*
X2370Y246D01*
X2387Y246D02*
X2393Y246D01*
X2442Y246D02*
X2470Y246D01*
X2492Y246D02*
X2520Y246D01*
X2537Y246D02*
X2543Y246D01*
X2564Y246D02*
X2570Y246D01*
X8Y245D02*
X18Y245D01*
X2291Y245D02*
X2318Y245D01*
X2347Y245D02*
X2370Y245D01*
X2387Y245D02*
X2392Y245D01*
X2444Y245D02*
X2470Y245D01*
X2494Y245D02*
X2520Y245D01*
X2537Y245D02*
X2542Y245D01*
X2565Y245D02*
X2570Y245D01*
X8Y244D02*
X18Y244D01*
X2292Y244D02*
X2316Y244D01*
X2349Y244D02*
X2369Y244D01*
X2388Y244D02*
X2392Y244D01*
X2446Y244D02*
X2469Y244D01*
X2496Y244D02*
X2519Y244D01*
X2538Y244D02*
X2542Y244D01*
X2566Y244D02*
X2569Y244D01*
X8Y243D02*
X18Y243D01*
X8Y242D02*
X18Y242D01*
X8Y241D02*
X18Y241D01*
X8Y240D02*
X18Y240D01*
X8Y239D02*
X18Y239D01*
X8Y238D02*
X18Y238D01*
X8Y237D02*
X18Y237D01*
X8Y236D02*
X18Y236D01*
X8Y235D02*
X18Y235D01*
X8Y234D02*
X18Y234D01*
X8Y233D02*
X18Y233D01*
X8Y232D02*
X18Y232D01*
X8Y231D02*
X18Y231D01*
X8Y230D02*
X18Y230D01*
X8Y229D02*
X18Y229D01*
X8Y228D02*
X18Y228D01*
X8Y227D02*
X18Y227D01*
X8Y226D02*
X18Y226D01*
X8Y225D02*
X18Y225D01*
X8Y224D02*
X18Y224D01*
X8Y223D02*
X18Y223D01*
X8Y222D02*
X18Y222D01*
X8Y221D02*
X18Y221D01*
X8Y220D02*
X18Y220D01*
X8Y219D02*
X18Y219D01*
X8Y218D02*
X18Y218D01*
X8Y217D02*
X18Y217D01*
X8Y216D02*
X18Y216D01*
X8Y215D02*
X18Y215D01*
X8Y214D02*
X18Y214D01*
X8Y213D02*
X18Y213D01*
X8Y212D02*
X18Y212D01*
X8Y211D02*
X18Y211D01*
X8Y210D02*
X18Y210D01*
X8Y209D02*
X18Y209D01*
X8Y208D02*
X18Y208D01*
X8Y207D02*
X18Y207D01*
X8Y206D02*
X18Y206D01*
X8Y205D02*
X18Y205D01*
X8Y204D02*
X18Y204D01*
X8Y203D02*
X18Y203D01*
X8Y202D02*
X18Y202D01*
X8Y201D02*
X18Y201D01*
X8Y200D02*
X18Y200D01*
X8Y199D02*
X18Y199D01*
X8Y198D02*
X18Y198D01*
X8Y197D02*
X18Y197D01*
X8Y196D02*
X18Y196D01*
X8Y195D02*
X18Y195D01*
X8Y194D02*
X18Y194D01*
X8Y193D02*
X18Y193D01*
X8Y192D02*
X18Y192D01*
X8Y191D02*
X18Y191D01*
X8Y190D02*
X18Y190D01*
X8Y189D02*
X18Y189D01*
X8Y188D02*
X18Y188D01*
X8Y187D02*
X18Y187D01*
X8Y186D02*
X18Y186D01*
X8Y185D02*
X18Y185D01*
X8Y184D02*
X18Y184D01*
X8Y183D02*
X18Y183D01*
X8Y182D02*
X18Y182D01*
X8Y181D02*
X18Y181D01*
X8Y180D02*
X18Y180D01*
X8Y179D02*
X18Y179D01*
X8Y178D02*
X18Y178D01*
X8Y177D02*
X18Y177D01*
X8Y176D02*
X18Y176D01*
X143Y176D02*
X159Y176D01*
X2426Y176D02*
X2442Y176D01*
X8Y175D02*
X18Y175D01*
X138Y175D02*
X164Y175D01*
X2421Y175D02*
X2447Y175D01*
X8Y174D02*
X18Y174D01*
X134Y174D02*
X168Y174D01*
X2417Y174D02*
X2451Y174D01*
X8Y173D02*
X18Y173D01*
X131Y173D02*
X170Y173D01*
X2414Y173D02*
X2454Y173D01*
X8Y172D02*
X18Y172D01*
X128Y172D02*
X173Y172D01*
X2412Y172D02*
X2456Y172D01*
X8Y171D02*
X18Y171D01*
X126Y171D02*
X175Y171D01*
X2409Y171D02*
X2459Y171D01*
X8Y170D02*
X18Y170D01*
X124Y170D02*
X177Y170D01*
X2407Y170D02*
X2461Y170D01*
X8Y169D02*
X18Y169D01*
X122Y169D02*
X179Y169D01*
X2405Y169D02*
X2462Y169D01*
X8Y168D02*
X18Y168D01*
X121Y168D02*
X181Y168D01*
X2404Y168D02*
X2464Y168D01*
X8Y167D02*
X18Y167D01*
X119Y167D02*
X183Y167D01*
X2402Y167D02*
X2466Y167D01*
X8Y166D02*
X18Y166D01*
X117Y166D02*
X145Y166D01*
X156Y166D02*
X184Y166D01*
X2401Y166D02*
X2428Y166D01*
X2440Y166D02*
X2467Y166D01*
X8Y165D02*
X18Y165D01*
X116Y165D02*
X139Y165D01*
X162Y165D02*
X185Y165D01*
X2399Y165D02*
X2422Y165D01*
X2446Y165D02*
X2469Y165D01*
X8Y164D02*
X18Y164D01*
X115Y164D02*
X135Y164D01*
X166Y164D02*
X187Y164D01*
X2398Y164D02*
X2418Y164D01*
X2449Y164D02*
X2470Y164D01*
X8Y163D02*
X18Y163D01*
X113Y163D02*
X132Y163D01*
X169Y163D02*
X188Y163D01*
X2397Y163D02*
X2416Y163D01*
X2452Y163D02*
X2471Y163D01*
X8Y162D02*
X18Y162D01*
X112Y162D02*
X130Y162D01*
X171Y162D02*
X189Y162D01*
X2396Y162D02*
X2413Y162D01*
X2455Y162D02*
X2472Y162D01*
X8Y161D02*
X18Y161D01*
X111Y161D02*
X128Y161D01*
X173Y161D02*
X190Y161D01*
X2394Y161D02*
X2411Y161D01*
X2457Y161D02*
X2474Y161D01*
X8Y160D02*
X18Y160D01*
X110Y160D02*
X126Y160D01*
X175Y160D02*
X191Y160D01*
X2393Y160D02*
X2409Y160D01*
X2459Y160D02*
X2475Y160D01*
X8Y159D02*
X18Y159D01*
X109Y159D02*
X125Y159D01*
X177Y159D02*
X192Y159D01*
X2392Y159D02*
X2408Y159D01*
X2460Y159D02*
X2476Y159D01*
X8Y158D02*
X18Y158D01*
X108Y158D02*
X123Y158D01*
X178Y158D02*
X193Y158D01*
X2391Y158D02*
X2406Y158D01*
X2462Y158D02*
X2477Y158D01*
X8Y157D02*
X18Y157D01*
X107Y157D02*
X122Y157D01*
X180Y157D02*
X194Y157D01*
X2390Y157D02*
X2405Y157D01*
X2463Y157D02*
X2478Y157D01*
X8Y156D02*
X18Y156D01*
X106Y156D02*
X120Y156D01*
X181Y156D02*
X195Y156D01*
X2390Y156D02*
X2404Y156D01*
X2464Y156D02*
X2478Y156D01*
X8Y155D02*
X18Y155D01*
X105Y155D02*
X119Y155D01*
X182Y155D02*
X196Y155D01*
X2389Y155D02*
X2402Y155D01*
X2466Y155D02*
X2479Y155D01*
X8Y154D02*
X18Y154D01*
X105Y154D02*
X118Y154D01*
X184Y154D02*
X197Y154D01*
X2388Y154D02*
X2401Y154D01*
X2467Y154D02*
X2480Y154D01*
X8Y153D02*
X18Y153D01*
X104Y153D02*
X117Y153D01*
X185Y153D02*
X198Y153D01*
X2387Y153D02*
X2400Y153D01*
X2468Y153D02*
X2481Y153D01*
X8Y152D02*
X18Y152D01*
X103Y152D02*
X116Y152D01*
X186Y152D02*
X198Y152D01*
X2386Y152D02*
X2399Y152D01*
X2469Y152D02*
X2482Y152D01*
X8Y151D02*
X18Y151D01*
X102Y151D02*
X115Y151D01*
X187Y151D02*
X199Y151D01*
X2386Y151D02*
X2398Y151D01*
X2470Y151D02*
X2482Y151D01*
X8Y150D02*
X18Y150D01*
X102Y150D02*
X114Y150D01*
X188Y150D02*
X200Y150D01*
X2385Y150D02*
X2397Y150D01*
X2471Y150D02*
X2483Y150D01*
X8Y149D02*
X18Y149D01*
X101Y149D02*
X113Y149D01*
X188Y149D02*
X200Y149D01*
X2384Y149D02*
X2396Y149D01*
X2472Y149D02*
X2484Y149D01*
X8Y148D02*
X18Y148D01*
X101Y148D02*
X112Y148D01*
X189Y148D02*
X201Y148D01*
X2384Y148D02*
X2395Y148D01*
X2473Y148D02*
X2484Y148D01*
X8Y147D02*
X18Y147D01*
X100Y147D02*
X111Y147D01*
X190Y147D02*
X201Y147D01*
X2383Y147D02*
X2395Y147D01*
X2473Y147D02*
X2485Y147D01*
X8Y146D02*
X18Y146D01*
X99Y146D02*
X111Y146D01*
X191Y146D02*
X202Y146D01*
X2383Y146D02*
X2394Y146D01*
X2474Y146D02*
X2485Y146D01*
X8Y145D02*
X18Y145D01*
X99Y145D02*
X110Y145D01*
X192Y145D02*
X203Y145D01*
X2382Y145D02*
X2393Y145D01*
X2475Y145D02*
X2486Y145D01*
X8Y144D02*
X18Y144D01*
X98Y144D02*
X109Y144D01*
X192Y144D02*
X203Y144D01*
X2382Y144D02*
X2392Y144D01*
X2476Y144D02*
X2486Y144D01*
X8Y143D02*
X18Y143D01*
X98Y143D02*
X109Y143D01*
X193Y143D02*
X204Y143D01*
X2381Y143D02*
X2392Y143D01*
X2476Y143D02*
X2487Y143D01*
X8Y142D02*
X18Y142D01*
X97Y142D02*
X108Y142D01*
X193Y142D02*
X204Y142D01*
X2381Y142D02*
X2391Y142D01*
X2477Y142D02*
X2487Y142D01*
X8Y141D02*
X18Y141D01*
X97Y141D02*
X107Y141D01*
X194Y141D02*
X205Y141D01*
X2380Y141D02*
X2391Y141D01*
X2477Y141D02*
X2488Y141D01*
X8Y140D02*
X18Y140D01*
X96Y140D02*
X107Y140D01*
X195Y140D02*
X205Y140D01*
X2380Y140D02*
X2390Y140D01*
X2478Y140D02*
X2488Y140D01*
X8Y139D02*
X18Y139D01*
X96Y139D02*
X106Y139D01*
X195Y139D02*
X205Y139D01*
X2379Y139D02*
X2390Y139D01*
X2478Y139D02*
X2489Y139D01*
X8Y138D02*
X18Y138D01*
X96Y138D02*
X106Y138D01*
X196Y138D02*
X206Y138D01*
X2379Y138D02*
X2389Y138D01*
X2479Y138D02*
X2489Y138D01*
X8Y137D02*
X18Y137D01*
X95Y137D02*
X105Y137D01*
X196Y137D02*
X206Y137D01*
X2379Y137D02*
X2389Y137D01*
X2479Y137D02*
X2489Y137D01*
X8Y136D02*
X18Y136D01*
X95Y136D02*
X105Y136D01*
X197Y136D02*
X206Y136D01*
X2378Y136D02*
X2388Y136D01*
X2480Y136D02*
X2490Y136D01*
X8Y135D02*
X18Y135D01*
X95Y135D02*
X105Y135D01*
X197Y135D02*
X207Y135D01*
X2378Y135D02*
X2388Y135D01*
X2480Y135D02*
X2490Y135D01*
X8Y134D02*
X18Y134D01*
X94Y134D02*
X104Y134D01*
X197Y134D02*
X207Y134D01*
X2378Y134D02*
X2387Y134D01*
X2481Y134D02*
X2490Y134D01*
X8Y133D02*
X18Y133D01*
X94Y133D02*
X104Y133D01*
X198Y133D02*
X207Y133D01*
X2377Y133D02*
X2387Y133D01*
X2481Y133D02*
X2491Y133D01*
X8Y132D02*
X18Y132D01*
X94Y132D02*
X103Y132D01*
X198Y132D02*
X208Y132D01*
X2377Y132D02*
X2387Y132D01*
X2481Y132D02*
X2491Y132D01*
X8Y131D02*
X18Y131D01*
X94Y131D02*
X103Y131D01*
X198Y131D02*
X208Y131D01*
X2377Y131D02*
X2386Y131D01*
X2481Y131D02*
X2491Y131D01*
X8Y130D02*
X18Y130D01*
X93Y130D02*
X103Y130D01*
X198Y130D02*
X208Y130D01*
X2377Y130D02*
X2386Y130D01*
X2482Y130D02*
X2491Y130D01*
X8Y129D02*
X18Y129D01*
X93Y129D02*
X103Y129D01*
X199Y129D02*
X208Y129D01*
X2376Y129D02*
X2386Y129D01*
X2482Y129D02*
X2492Y129D01*
X8Y128D02*
X18Y128D01*
X93Y128D02*
X102Y128D01*
X199Y128D02*
X208Y128D01*
X2376Y128D02*
X2386Y128D01*
X2482Y128D02*
X2492Y128D01*
X8Y127D02*
X18Y127D01*
X93Y127D02*
X102Y127D01*
X199Y127D02*
X209Y127D01*
X2376Y127D02*
X2385Y127D01*
X2482Y127D02*
X2492Y127D01*
X8Y126D02*
X18Y126D01*
X93Y126D02*
X102Y126D01*
X199Y126D02*
X209Y126D01*
X2376Y126D02*
X2385Y126D01*
X2483Y126D02*
X2492Y126D01*
X8Y125D02*
X18Y125D01*
X92Y125D02*
X102Y125D01*
X199Y125D02*
X209Y125D01*
X2376Y125D02*
X2385Y125D01*
X2483Y125D02*
X2492Y125D01*
X8Y124D02*
X18Y124D01*
X92Y124D02*
X102Y124D01*
X200Y124D02*
X209Y124D01*
X2376Y124D02*
X2385Y124D01*
X2483Y124D02*
X2492Y124D01*
X8Y123D02*
X18Y123D01*
X92Y123D02*
X102Y123D01*
X200Y123D02*
X209Y123D01*
X2375Y123D02*
X2385Y123D01*
X2483Y123D02*
X2493Y123D01*
X8Y122D02*
X18Y122D01*
X92Y122D02*
X102Y122D01*
X200Y122D02*
X209Y122D01*
X2375Y122D02*
X2385Y122D01*
X2483Y122D02*
X2493Y122D01*
X8Y121D02*
X18Y121D01*
X92Y121D02*
X101Y121D01*
X200Y121D02*
X209Y121D01*
X2375Y121D02*
X2385Y121D01*
X2483Y121D02*
X2493Y121D01*
X8Y120D02*
X18Y120D01*
X92Y120D02*
X101Y120D01*
X200Y120D02*
X209Y120D01*
X2375Y120D02*
X2385Y120D01*
X2483Y120D02*
X2493Y120D01*
X8Y119D02*
X18Y119D01*
X92Y119D02*
X101Y119D01*
X200Y119D02*
X209Y119D01*
X2375Y119D02*
X2385Y119D01*
X2483Y119D02*
X2493Y119D01*
X8Y118D02*
X18Y118D01*
X92Y118D02*
X101Y118D01*
X200Y118D02*
X209Y118D01*
X2375Y118D02*
X2385Y118D01*
X2483Y118D02*
X2493Y118D01*
X8Y117D02*
X18Y117D01*
X92Y117D02*
X101Y117D01*
X200Y117D02*
X210Y117D01*
X2375Y117D02*
X2385Y117D01*
X2483Y117D02*
X2493Y117D01*
X8Y116D02*
X18Y116D01*
X92Y116D02*
X101Y116D01*
X200Y116D02*
X209Y116D01*
X2375Y116D02*
X2385Y116D01*
X2483Y116D02*
X2493Y116D01*
X8Y115D02*
X18Y115D01*
X92Y115D02*
X101Y115D01*
X200Y115D02*
X209Y115D01*
X2375Y115D02*
X2385Y115D01*
X2483Y115D02*
X2493Y115D01*
X8Y114D02*
X18Y114D01*
X92Y114D02*
X101Y114D01*
X200Y114D02*
X209Y114D01*
X2375Y114D02*
X2385Y114D01*
X2483Y114D02*
X2493Y114D01*
X8Y113D02*
X18Y113D01*
X92Y113D02*
X101Y113D01*
X200Y113D02*
X209Y113D01*
X2375Y113D02*
X2385Y113D01*
X2483Y113D02*
X2493Y113D01*
X8Y112D02*
X18Y112D01*
X92Y112D02*
X102Y112D01*
X200Y112D02*
X209Y112D01*
X2375Y112D02*
X2385Y112D01*
X2483Y112D02*
X2493Y112D01*
X8Y111D02*
X18Y111D01*
X92Y111D02*
X102Y111D01*
X200Y111D02*
X209Y111D01*
X2376Y111D02*
X2385Y111D01*
X2483Y111D02*
X2492Y111D01*
X8Y110D02*
X18Y110D01*
X92Y110D02*
X102Y110D01*
X200Y110D02*
X209Y110D01*
X2376Y110D02*
X2385Y110D01*
X2483Y110D02*
X2492Y110D01*
X8Y109D02*
X18Y109D01*
X93Y109D02*
X102Y109D01*
X199Y109D02*
X209Y109D01*
X2376Y109D02*
X2385Y109D01*
X2483Y109D02*
X2492Y109D01*
X8Y108D02*
X18Y108D01*
X93Y108D02*
X102Y108D01*
X199Y108D02*
X209Y108D01*
X2376Y108D02*
X2385Y108D01*
X2483Y108D02*
X2492Y108D01*
X8Y107D02*
X18Y107D01*
X93Y107D02*
X102Y107D01*
X199Y107D02*
X209Y107D01*
X2376Y107D02*
X2386Y107D01*
X2482Y107D02*
X2492Y107D01*
X8Y106D02*
X18Y106D01*
X93Y106D02*
X103Y106D01*
X199Y106D02*
X208Y106D01*
X2376Y106D02*
X2386Y106D01*
X2482Y106D02*
X2492Y106D01*
X8Y105D02*
X18Y105D01*
X93Y105D02*
X103Y105D01*
X199Y105D02*
X208Y105D01*
X2377Y105D02*
X2386Y105D01*
X2482Y105D02*
X2491Y105D01*
X8Y104D02*
X18Y104D01*
X94Y104D02*
X103Y104D01*
X198Y104D02*
X208Y104D01*
X2377Y104D02*
X2386Y104D01*
X2482Y104D02*
X2491Y104D01*
X8Y103D02*
X18Y103D01*
X94Y103D02*
X103Y103D01*
X198Y103D02*
X208Y103D01*
X2377Y103D02*
X2387Y103D01*
X2481Y103D02*
X2491Y103D01*
X8Y102D02*
X18Y102D01*
X94Y102D02*
X104Y102D01*
X198Y102D02*
X207Y102D01*
X2377Y102D02*
X2387Y102D01*
X2481Y102D02*
X2491Y102D01*
X8Y101D02*
X18Y101D01*
X94Y101D02*
X104Y101D01*
X197Y101D02*
X207Y101D01*
X2378Y101D02*
X2387Y101D01*
X2481Y101D02*
X2490Y101D01*
X8Y100D02*
X18Y100D01*
X95Y100D02*
X104Y100D01*
X197Y100D02*
X207Y100D01*
X2378Y100D02*
X2388Y100D01*
X2480Y100D02*
X2490Y100D01*
X8Y99D02*
X18Y99D01*
X95Y99D02*
X105Y99D01*
X197Y99D02*
X207Y99D01*
X2378Y99D02*
X2388Y99D01*
X2480Y99D02*
X2490Y99D01*
X8Y98D02*
X18Y98D01*
X95Y98D02*
X105Y98D01*
X196Y98D02*
X206Y98D01*
X2379Y98D02*
X2388Y98D01*
X2479Y98D02*
X2489Y98D01*
X8Y97D02*
X18Y97D01*
X96Y97D02*
X106Y97D01*
X196Y97D02*
X206Y97D01*
X2379Y97D02*
X2389Y97D01*
X2479Y97D02*
X2489Y97D01*
X8Y96D02*
X18Y96D01*
X96Y96D02*
X106Y96D01*
X195Y96D02*
X205Y96D01*
X2379Y96D02*
X2389Y96D01*
X2479Y96D02*
X2489Y96D01*
X8Y95D02*
X18Y95D01*
X96Y95D02*
X107Y95D01*
X195Y95D02*
X205Y95D01*
X2380Y95D02*
X2390Y95D01*
X2478Y95D02*
X2488Y95D01*
X8Y94D02*
X18Y94D01*
X97Y94D02*
X107Y94D01*
X194Y94D02*
X205Y94D01*
X2380Y94D02*
X2390Y94D01*
X2478Y94D02*
X2488Y94D01*
X8Y93D02*
X18Y93D01*
X97Y93D02*
X108Y93D01*
X194Y93D02*
X204Y93D01*
X2381Y93D02*
X2391Y93D01*
X2477Y93D02*
X2487Y93D01*
X8Y92D02*
X18Y92D01*
X98Y92D02*
X108Y92D01*
X193Y92D02*
X204Y92D01*
X2381Y92D02*
X2392Y92D01*
X2476Y92D02*
X2487Y92D01*
X8Y91D02*
X18Y91D01*
X98Y91D02*
X109Y91D01*
X192Y91D02*
X203Y91D01*
X2381Y91D02*
X2392Y91D01*
X2476Y91D02*
X2486Y91D01*
X8Y90D02*
X18Y90D01*
X99Y90D02*
X110Y90D01*
X192Y90D02*
X203Y90D01*
X2382Y90D02*
X2393Y90D01*
X2475Y90D02*
X2486Y90D01*
X9Y89D02*
X18Y89D01*
X99Y89D02*
X110Y89D01*
X191Y89D02*
X202Y89D01*
X2382Y89D02*
X2394Y89D01*
X2474Y89D02*
X2485Y89D01*
X9Y88D02*
X18Y88D01*
X100Y88D02*
X111Y88D01*
X190Y88D02*
X202Y88D01*
X2383Y88D02*
X2394Y88D01*
X2474Y88D02*
X2485Y88D01*
X9Y87D02*
X18Y87D01*
X100Y87D02*
X112Y87D01*
X190Y87D02*
X201Y87D01*
X2384Y87D02*
X2395Y87D01*
X2473Y87D02*
X2484Y87D01*
X9Y86D02*
X18Y86D01*
X101Y86D02*
X113Y86D01*
X189Y86D02*
X200Y86D01*
X2384Y86D02*
X2396Y86D01*
X2472Y86D02*
X2484Y86D01*
X9Y85D02*
X18Y85D01*
X102Y85D02*
X114Y85D01*
X188Y85D02*
X200Y85D01*
X2385Y85D02*
X2397Y85D01*
X2471Y85D02*
X2483Y85D01*
X9Y84D02*
X18Y84D01*
X102Y84D02*
X115Y84D01*
X187Y84D02*
X199Y84D01*
X2386Y84D02*
X2398Y84D01*
X2470Y84D02*
X2482Y84D01*
X9Y83D02*
X19Y83D01*
X103Y83D02*
X115Y83D01*
X186Y83D02*
X198Y83D01*
X2386Y83D02*
X2399Y83D01*
X2469Y83D02*
X2482Y83D01*
X9Y82D02*
X19Y82D01*
X104Y82D02*
X116Y82D01*
X185Y82D02*
X198Y82D01*
X2387Y82D02*
X2400Y82D01*
X2468Y82D02*
X2481Y82D01*
X9Y81D02*
X19Y81D01*
X104Y81D02*
X118Y81D01*
X184Y81D02*
X197Y81D01*
X2388Y81D02*
X2401Y81D01*
X2467Y81D02*
X2480Y81D01*
X10Y80D02*
X19Y80D01*
X105Y80D02*
X119Y80D01*
X183Y80D02*
X196Y80D01*
X2388Y80D02*
X2402Y80D01*
X2466Y80D02*
X2479Y80D01*
X10Y79D02*
X19Y79D01*
X106Y79D02*
X120Y79D01*
X182Y79D02*
X195Y79D01*
X2389Y79D02*
X2403Y79D01*
X2465Y79D02*
X2479Y79D01*
X10Y78D02*
X19Y78D01*
X107Y78D02*
X121Y78D01*
X180Y78D02*
X194Y78D01*
X2390Y78D02*
X2404Y78D01*
X2463Y78D02*
X2478Y78D01*
X10Y77D02*
X20Y77D01*
X108Y77D02*
X123Y77D01*
X179Y77D02*
X194Y77D01*
X2391Y77D02*
X2406Y77D01*
X2462Y77D02*
X2477Y77D01*
X10Y76D02*
X20Y76D01*
X109Y76D02*
X124Y76D01*
X177Y76D02*
X193Y76D01*
X2392Y76D02*
X2407Y76D01*
X2461Y76D02*
X2476Y76D01*
X10Y75D02*
X20Y75D01*
X110Y75D02*
X126Y75D01*
X176Y75D02*
X192Y75D01*
X2393Y75D02*
X2409Y75D01*
X2459Y75D02*
X2475Y75D01*
X11Y74D02*
X20Y74D01*
X111Y74D02*
X127Y74D01*
X174Y74D02*
X191Y74D01*
X2394Y74D02*
X2411Y74D01*
X2457Y74D02*
X2474Y74D01*
X11Y73D02*
X20Y73D01*
X112Y73D02*
X129Y73D01*
X172Y73D02*
X189Y73D01*
X2395Y73D02*
X2413Y73D01*
X2455Y73D02*
X2473Y73D01*
X11Y72D02*
X21Y72D01*
X113Y72D02*
X132Y72D01*
X170Y72D02*
X188Y72D01*
X2396Y72D02*
X2415Y72D01*
X2453Y72D02*
X2472Y72D01*
X11Y71D02*
X21Y71D01*
X114Y71D02*
X134Y71D01*
X167Y71D02*
X187Y71D01*
X2398Y71D02*
X2418Y71D01*
X2450Y71D02*
X2470Y71D01*
X11Y70D02*
X21Y70D01*
X116Y70D02*
X138Y70D01*
X163Y70D02*
X186Y70D01*
X2399Y70D02*
X2421Y70D01*
X2447Y70D02*
X2469Y70D01*
X12Y69D02*
X21Y69D01*
X117Y69D02*
X143Y69D01*
X158Y69D02*
X184Y69D01*
X2400Y69D02*
X2426Y69D01*
X2442Y69D02*
X2468Y69D01*
X12Y68D02*
X22Y68D01*
X118Y68D02*
X183Y68D01*
X2402Y68D02*
X2466Y68D01*
X12Y67D02*
X22Y67D01*
X120Y67D02*
X181Y67D01*
X2403Y67D02*
X2465Y67D01*
X12Y66D02*
X22Y66D01*
X122Y66D02*
X180Y66D01*
X2405Y66D02*
X2463Y66D01*
X13Y65D02*
X22Y65D01*
X124Y65D02*
X178Y65D01*
X2407Y65D02*
X2461Y65D01*
X13Y64D02*
X23Y64D01*
X126Y64D02*
X176Y64D01*
X2409Y64D02*
X2459Y64D01*
X13Y63D02*
X23Y63D01*
X128Y63D02*
X174Y63D01*
X2411Y63D02*
X2457Y63D01*
X14Y62D02*
X23Y62D01*
X130Y62D02*
X171Y62D01*
X2414Y62D02*
X2454Y62D01*
X14Y61D02*
X24Y61D01*
X133Y61D02*
X168Y61D01*
X2416Y61D02*
X2452Y61D01*
X14Y60D02*
X24Y60D01*
X137Y60D02*
X165Y60D01*
X2420Y60D02*
X2448Y60D01*
X15Y59D02*
X24Y59D01*
X141Y59D02*
X160Y59D01*
X2424Y59D02*
X2444Y59D01*
X15Y58D02*
X25Y58D01*
X15Y57D02*
X25Y57D01*
X16Y56D02*
X26Y56D01*
X16Y55D02*
X26Y55D01*
X16Y54D02*
X26Y54D01*
X17Y53D02*
X27Y53D01*
X17Y52D02*
X27Y52D01*
X18Y51D02*
X28Y51D01*
X18Y50D02*
X28Y50D01*
X18Y49D02*
X29Y49D01*
X19Y48D02*
X29Y48D01*
X19Y47D02*
X30Y47D01*
X20Y46D02*
X30Y46D01*
X20Y45D02*
X31Y45D01*
X21Y44D02*
X31Y44D01*
X21Y43D02*
X32Y43D01*
X22Y42D02*
X32Y42D01*
X22Y41D02*
X33Y41D01*
X23Y40D02*
X34Y40D01*
X23Y39D02*
X34Y39D01*
X24Y38D02*
X35Y38D01*
X24Y37D02*
X35Y37D01*
X25Y36D02*
X36Y36D01*
X26Y35D02*
X37Y35D01*
X26Y34D02*
X37Y34D01*
X27Y33D02*
X38Y33D01*
X27Y32D02*
X39Y32D01*
X28Y31D02*
X40Y31D01*
X29Y30D02*
X40Y30D01*
X29Y29D02*
X41Y29D01*
X30Y28D02*
X42Y28D01*
X31Y27D02*
X43Y27D01*
X31Y26D02*
X43Y26D01*
X32Y25D02*
X44Y25D01*
X33Y24D02*
X45Y24D01*
X34Y23D02*
X46Y23D01*
X34Y22D02*
X47Y22D01*
X35Y21D02*
X48Y21D01*
X36Y20D02*
X49Y20D01*
X37Y19D02*
X50Y19D01*
X38Y18D02*
X51Y18D01*
X39Y17D02*
X52Y17D01*
X3320Y17D02*
X3333Y17D01*
X39Y16D02*
X53Y16D01*
X3319Y16D02*
X3333Y16D01*
X40Y15D02*
X54Y15D01*
X3318Y15D02*
X3332Y15D01*
X41Y14D02*
X55Y14D01*
X3317Y14D02*
X3331Y14D01*
X42Y13D02*
X56Y13D01*
X3316Y13D02*
X3330Y13D01*
X43Y12D02*
X57Y12D01*
X3315Y12D02*
X3329Y12D01*
X44Y11D02*
X58Y11D01*
X3314Y11D02*
X3328Y11D01*
X45Y10D02*
X60Y10D01*
X3312Y10D02*
X3327Y10D01*
X46Y9D02*
X61Y9D01*
X3311Y9D02*
X3326Y9D01*
X47Y8D02*
X62Y8D01*
X3310Y8D02*
X3325Y8D01*
X48Y7D02*
X64Y7D01*
X3308Y7D02*
X3324Y7D01*
X49Y6D02*
X65Y6D01*
X3307Y6D02*
X3323Y6D01*
X50Y5D02*
X66Y5D01*
X3306Y5D02*
X3322Y5D01*
X52Y4D02*
X68Y4D01*
X3304Y4D02*
X3320Y4D01*
X53Y3D02*
X69Y3D01*
X3303Y3D02*
X3319Y3D01*
X54Y2D02*
X71Y2D01*
X3301Y2D02*
X3318Y2D01*
X55Y1D02*
X72Y1D01*
X3300Y1D02*
X3317Y1D01*
X57Y0D02*
X74Y0D01*
X3298Y0D02*
X3315Y0D01*
X58Y-1D02*
X76Y-1D01*
X3296Y-1D02*
X3314Y-1D01*
D02*
G04 End of Silk1*
M02*