; NON-PLATED HOLES START AT T1
; THROUGH (PLATED) HOLES START AT T100
M48
INCH
T100C0.040000
T101C0.031496
T102C0.040639
%
T100
X011328Y015122
X027428Y004122
X026428Y004222
X011428Y014122
X029428Y004122
X011428Y016122
X011328Y013122
X028428Y004222
T101
X028428Y009122
X005428Y016122
X007428Y013122
X029428Y009122
X004428Y015122
X028428Y014122
X029428Y013122
X003428Y014122
X026428Y015122
X027428Y009122
X027428Y016122
X026428Y009122
T102
X009428Y021122
X008428Y020122
X022428Y021122
X018428Y020122
X020428Y020122
X017428Y021122
X019428Y020122
X004428Y020122
X022428Y020122
X009428Y020122
X003428Y020122
X005428Y021122
X007428Y020122
X020428Y021122
X012428Y021122
X021428Y021122
X006428Y021122
X008428Y021122
X005428Y020122
X012428Y020122
X013428Y021122
X006428Y020122
X003428Y021122
X017428Y020122
X007428Y021122
X010428Y021122
X010428Y020122
X004428Y021122
X016428Y021122
X021428Y020122
X014428Y020122
X019428Y021122
X014428Y021122
X018428Y021122
X011428Y020122
X015428Y020122
X016428Y020122
X013428Y020122
X011428Y021122
X015428Y021122
T00
M30
